Khand_0.ufo
<glyph name="quotedbl" format="1">
  <advance width="310"/>
  <unicode hex="0022"/>
  <outline>
    <contour>
      <point x="185" y="736" type="line"/>
      <point x="185" y="553" type="line"/>
      <point x="230" y="553" type="line"/>
      <point x="230" y="736" type="line"/>
    </contour>
    <contour>
      <point x="80" y="736" type="line"/>
      <point x="80" y="553" type="line"/>
      <point x="125" y="553" type="line"/>
      <point x="125" y="736" type="line"/>
    </contour>
  </outline>
</glyph>
<glyph name="numbersign" format="1">
  <advance width="505"/>
  <unicode hex="0023"/>
  <outline>
    <contour>
      <point x="388" y="644" type="line"/>
      <point x="294" y="0" type="line"/>
      <point x="337" y="0" type="line"/>
      <point x="431" y="644" type="line"/>
    </contour>
    <contour>
      <point x="37" y="201" type="line"/>
      <point x="37" y="164" type="line"/>
      <point x="445" y="164" type="line"/>
      <point x="445" y="201" type="line"/>
    </contour>
    <contour>
      <point x="189" y="644" type="line"/>
      <point x="95" y="0" type="line"/>
      <point x="138" y="0" type="line"/>
      <point x="232" y="644" type="line"/>
    </contour>
    <contour>
      <point x="78" y="480" type="line"/>
      <point x="78" y="443" type="line"/>
      <point x="486" y="443" type="line"/>
      <point x="486" y="480" type="line"/>
    </contour>
  </outline>
</glyph>
<glyph name="dollar" format="1">
  <advance width="374"/>
  <unicode hex="0024"/>
  <outline>
    <contour>
      <point x="163" y="733" type="line"/>
      <point x="163" y="643" type="line"/>
      <point x="208" y="643" type="line"/>
      <point x="208" y="733" type="line"/>
    </contour>
    <contour>
      <point x="153" y="10" type="line"/>
      <point x="153" y="-80" type="line"/>
      <point x="198" y="-80" type="line"/>
      <point x="198" y="10" type="line"/>
    </contour>
    <component base="S"/>
  </outline>
</glyph>
<glyph name="ampersand" format="1">
  <advance width="445"/>
  <unicode hex="0026"/>
  <outline>
    <contour>
      <point x="54" y="526" type="curve"/>
      <point x="54" y="472" type="line" smooth="yes"/>
      <point x="54" y="409"/>
      <point x="78" y="362"/>
      <point x="133" y="341" type="curve"/>
      <point x="78" y="320"/>
      <point x="53" y="273"/>
      <point x="53" y="211" type="curve" smooth="yes"/>
      <point x="53" y="143" type="line" smooth="yes"/>
      <point x="53" y="57"/>
      <point x="112" y="-10"/>
      <point x="222" y="-10" type="curve" smooth="yes"/>
      <point x="332" y="-10"/>
      <point x="388" y="57"/>
      <point x="388" y="143" type="curve" smooth="yes"/>
      <point x="388" y="421" type="line"/>
      <point x="338" y="421" type="line"/>
      <point x="338" y="143" type="line" smooth="yes"/>
      <point x="338" y="79"/>
      <point x="301" y="35"/>
      <point x="222" y="35" type="curve" smooth="yes"/>
      <point x="143" y="35"/>
      <point x="103" y="79"/>
      <point x="103" y="143" type="curve" smooth="yes"/>
      <point x="103" y="211" type="line" smooth="yes"/>
      <point x="103" y="273"/>
      <point x="130" y="319"/>
      <point x="205" y="319" type="curve" smooth="yes"/>
      <point x="428" y="319" type="line"/>
      <point x="428" y="364" type="line"/>
      <point x="203" y="364" type="line" smooth="yes"/>
      <point x="128" y="364"/>
      <point x="104" y="409"/>
      <point x="104" y="472" type="curve" smooth="yes"/>
      <point x="104" y="526" type="line" smooth="yes"/>
      <point x="104" y="581"/>
      <point x="130" y="623"/>
      <point x="233" y="623" type="curve" smooth="yes"/>
      <point x="281" y="623"/>
      <point x="327" y="613"/>
      <point x="358" y="602" type="curve"/>
      <point x="358" y="652" type="line"/>
      <point x="330" y="661"/>
      <point x="284" y="671"/>
      <point x="233" y="671" type="curve" smooth="yes"/>
      <point x="106" y="671"/>
      <point x="54" y="610"/>
    </contour>
  </outline>
</glyph>
<glyph name="parenleft" format="1">
  <advance width="265"/>
  <unicode hex="0028"/>
  <outline>
    <contour>
      <point x="160" y="763" type="line"/>
      <point x="99" y="633"/>
      <point x="70" y="457"/>
      <point x="70" y="322" type="curve" smooth="yes"/>
      <point x="70" y="188"/>
      <point x="99" y="10"/>
      <point x="160" y="-120" type="curve"/>
      <point x="205" y="-120" type="line"/>
      <point x="146" y="20"/>
      <point x="115" y="188"/>
      <point x="115" y="322" type="curve" smooth="yes"/>
      <point x="115" y="456"/>
      <point x="146" y="623"/>
      <point x="205" y="763" type="curve"/>
    </contour>
  </outline>
</glyph>
<glyph name="parenright" format="1">
  <advance width="265"/>
  <unicode hex="0029"/>
  <outline>
    <contour>
      <point x="60" y="763" type="line"/>
      <point x="119" y="623"/>
      <point x="150" y="456"/>
      <point x="150" y="322" type="curve" smooth="yes"/>
      <point x="150" y="188"/>
      <point x="119" y="20"/>
      <point x="60" y="-120" type="curve"/>
      <point x="105" y="-120" type="line"/>
      <point x="166" y="10"/>
      <point x="195" y="188"/>
      <point x="195" y="322" type="curve" smooth="yes"/>
      <point x="195" y="457"/>
      <point x="166" y="633"/>
      <point x="105" y="763" type="curve"/>
    </contour>
  </outline>
</glyph>
<glyph name="plus" format="1">
  <advance width="421"/>
  <unicode hex="002B"/>
  <outline>
    <contour>
      <point x="188" y="493" type="line"/>
      <point x="188" y="152" type="line"/>
      <point x="233" y="152" type="line"/>
      <point x="233" y="493" type="line"/>
    </contour>
    <contour>
      <point x="40" y="343" type="line"/>
      <point x="40" y="303" type="line"/>
      <point x="381" y="303" type="line"/>
      <point x="381" y="343" type="line"/>
    </contour>
  </outline>
</glyph>
<glyph name="period" format="1">
  <advance width="126"/>
  <unicode hex="002E"/>
  <outline>
    <contour>
      <point x="30" y="32" type="curve" smooth="yes"/>
      <point x="30" y="9"/>
      <point x="39" y="-5"/>
      <point x="63" y="-5" type="curve" smooth="yes"/>
      <point x="87" y="-5"/>
      <point x="96" y="9"/>
      <point x="96" y="32" type="curve" smooth="yes"/>
      <point x="96" y="55"/>
      <point x="87" y="69"/>
      <point x="63" y="69" type="curve" smooth="yes"/>
      <point x="39" y="69"/>
      <point x="30" y="55"/>
    </contour>
  </outline>
</glyph>
<glyph name="two" format="1">
  <advance width="390"/>
  <unicode hex="0032"/>
  <outline>
    <contour>
      <point x="55" y="655" type="curve"/>
      <point x="55" y="606" type="line"/>
      <point x="85" y="616"/>
      <point x="130" y="625"/>
      <point x="174" y="625" type="curve" smooth="yes"/>
      <point x="271" y="625"/>
      <point x="290" y="590"/>
      <point x="290" y="536" type="curve" smooth="yes"/>
      <point x="290" y="479" type="line"/>
      <point x="290" y="425"/>
      <point x="278" y="394"/>
      <point x="233" y="365" type="curve" smooth="yes"/>
      <point x="159" y="316" type="line" smooth="yes"/>
      <point x="92" y="272"/>
      <point x="45" y="235"/>
      <point x="45" y="140" type="curve" smooth="yes"/>
      <point x="45" y="0" type="line"/>
      <point x="345" y="0" type="line"/>
      <point x="345" y="48" type="line"/>
      <point x="95" y="48" type="line"/>
      <point x="95" y="141" type="line" smooth="yes"/>
      <point x="95" y="209"/>
      <point x="123" y="234"/>
      <point x="187" y="276" type="curve" smooth="yes"/>
      <point x="261" y="325" type="line" smooth="yes"/>
      <point x="322" y="365"/>
      <point x="339" y="402"/>
      <point x="340" y="479" type="curve" smooth="yes"/>
      <point x="340" y="536" type="line" smooth="yes"/>
      <point x="340" y="620"/>
      <point x="292" y="671"/>
      <point x="174" y="671" type="curve" smooth="yes"/>
      <point x="128" y="671"/>
      <point x="80" y="663"/>
    </contour>
  </outline>
</glyph>
<glyph name="five" format="1">
  <advance width="413"/>
  <unicode hex="0035"/>
  <outline>
    <contour>
      <point x="66" y="666" type="line"/>
      <point x="66" y="329" type="line"/>
      <point x="139" y="337"/>
      <point x="165" y="341"/>
      <point x="206" y="341" type="curve" smooth="yes"/>
      <point x="284" y="341"/>
      <point x="305" y="305"/>
      <point x="305" y="240" type="curve"/>
      <point x="305" y="133" type="line" smooth="yes"/>
      <point x="305" y="78"/>
      <point x="276" y="41"/>
      <point x="183" y="41" type="curve" smooth="yes"/>
      <point x="135" y="41"/>
      <point x="92" y="54"/>
      <point x="62" y="66" type="curve"/>
      <point x="62" y="15" type="line"/>
      <point x="90" y="5"/>
      <point x="132" y="-5"/>
      <point x="183" y="-5" type="curve" smooth="yes"/>
      <point x="300" y="-5"/>
      <point x="355" y="49"/>
      <point x="355" y="133" type="curve" smooth="yes"/>
      <point x="355" y="240" type="line" smooth="yes"/>
      <point x="355" y="327"/>
      <point x="315" y="389"/>
      <point x="206" y="389" type="curve" smooth="yes"/>
      <point x="179" y="389"/>
      <point x="149" y="387"/>
      <point x="116" y="383" type="curve"/>
      <point x="116" y="620" type="line"/>
      <point x="341" y="620" type="line"/>
      <point x="341" y="666" type="line"/>
    </contour>
  </outline>
</glyph>
<glyph name="eight" format="1">
  <advance width="450"/>
  <unicode hex="0038"/>
  <outline>
    <contour>
      <point x="68" y="527" type="curve" smooth="yes"/>
      <point x="68" y="462" type="line" smooth="yes"/>
      <point x="68" y="376"/>
      <point x="115" y="319"/>
      <point x="225" y="319" type="curve" smooth="yes"/>
      <point x="335" y="319"/>
      <point x="382" y="376"/>
      <point x="382" y="462" type="curve" smooth="yes"/>
      <point x="382" y="527" type="line" smooth="yes"/>
      <point x="382" y="613"/>
      <point x="335" y="676"/>
      <point x="225" y="676" type="curve" smooth="yes"/>
      <point x="115" y="676"/>
      <point x="68" y="613"/>
    </contour>
    <contour>
      <point x="65" y="201" type="curve" smooth="yes"/>
      <point x="65" y="139" type="line" smooth="yes"/>
      <point x="65" y="53"/>
      <point x="115" y="-10"/>
      <point x="225" y="-10" type="curve" smooth="yes"/>
      <point x="335" y="-10"/>
      <point x="385" y="53"/>
      <point x="385" y="139" type="curve" smooth="yes"/>
      <point x="385" y="201" type="line" smooth="yes"/>
      <point x="385" y="287"/>
      <point x="335" y="344"/>
      <point x="225" y="344" type="curve" smooth="yes"/>
      <point x="115" y="344"/>
      <point x="65" y="287"/>
    </contour>
    <contour>
      <point x="335" y="201" type="curve" smooth="yes"/>
      <point x="335" y="139" type="line" smooth="yes"/>
      <point x="335" y="75"/>
      <point x="304" y="35"/>
      <point x="225" y="35" type="curve" smooth="yes"/>
      <point x="146" y="35"/>
      <point x="115" y="75"/>
      <point x="115" y="139" type="curve" smooth="yes"/>
      <point x="115" y="201" type="line" smooth="yes"/>
      <point x="115" y="265"/>
      <point x="146" y="309"/>
      <point x="225" y="309" type="curve" smooth="yes"/>
      <point x="304" y="309"/>
      <point x="335" y="265"/>
    </contour>
    <contour>
      <point x="332" y="527" type="curve" smooth="yes"/>
      <point x="332" y="462" type="line" smooth="yes"/>
      <point x="332" y="398"/>
      <point x="304" y="354"/>
      <point x="225" y="354" type="curve" smooth="yes"/>
      <point x="146" y="354"/>
      <point x="118" y="398"/>
      <point x="118" y="462" type="curve" smooth="yes"/>
      <point x="118" y="527" type="line" smooth="yes"/>
      <point x="118" y="591"/>
      <point x="146" y="631"/>
      <point x="225" y="631" type="curve" smooth="yes"/>
      <point x="304" y="631"/>
      <point x="332" y="591"/>
    </contour>
  </outline>
</glyph>
<glyph name="semicolon" format="1">
  <advance width="183"/>
  <unicode hex="003B"/>
  <outline>
    <contour>
      <point x="44" y="69" type="line"/>
      <point x="4" y="-124" type="line"/>
      <point x="36" y="-124" type="line"/>
      <point x="55" y="-82"/>
      <point x="97" y="12"/>
      <point x="97" y="43" type="curve" smooth="yes"/>
      <point x="97" y="61"/>
      <point x="84" y="69"/>
      <point x="69" y="69" type="curve" smooth="yes"/>
    </contour>
    <contour>
      <point x="30" y="382" type="curve" smooth="yes"/>
      <point x="30" y="359"/>
      <point x="39" y="345"/>
      <point x="63" y="345" type="curve" smooth="yes"/>
      <point x="87" y="345"/>
      <point x="96" y="359"/>
      <point x="96" y="382" type="curve" smooth="yes"/>
      <point x="96" y="405"/>
      <point x="87" y="419"/>
      <point x="63" y="419" type="curve" smooth="yes"/>
      <point x="39" y="419"/>
      <point x="30" y="405"/>
    </contour>
  </outline>
</glyph>
<glyph name="equal" format="1">
  <advance width="421"/>
  <unicode hex="003D"/>
  <outline>
    <contour>
      <point x="40" y="428" type="line"/>
      <point x="40" y="388" type="line"/>
      <point x="381" y="388" type="line"/>
      <point x="381" y="428" type="line"/>
    </contour>
    <contour>
      <point x="40" y="256" type="line"/>
      <point x="40" y="216" type="line"/>
      <point x="381" y="216" type="line"/>
      <point x="381" y="256" type="line"/>
    </contour>
  </outline>
</glyph>
<glyph name="greater" format="1">
  <advance width="446"/>
  <unicode hex="003E"/>
  <outline>
    <contour>
      <point x="60" y="445" type="line"/>
      <point x="401" y="308" type="line"/>
      <point x="401" y="353" type="line"/>
      <point x="60" y="490" type="line"/>
    </contour>
    <contour>
      <point x="60" y="200" type="line"/>
      <point x="60" y="155" type="line"/>
      <point x="401" y="291" type="line"/>
      <point x="401" y="336" type="line"/>
    </contour>
  </outline>
</glyph>
<glyph name="F" format="1">
  <advance width="362"/>
  <unicode hex="0046"/>
  <outline>
    <contour>
      <point x="75" y="666" type="line"/>
      <point x="75" y="0" type="line"/>
      <point x="125" y="0" type="line"/>
      <point x="125" y="303" type="line"/>
      <point x="333" y="303" type="line"/>
      <point x="333" y="348" type="line"/>
      <point x="125" y="348" type="line"/>
      <point x="125" y="621" type="line"/>
      <point x="342" y="621" type="line"/>
      <point x="342" y="666" type="line"/>
    </contour>
  </outline>
</glyph>
<glyph name="H" format="1">
  <advance width="485"/>
  <unicode hex="0048"/>
  <outline>
    <contour>
      <point x="359" y="666" type="line"/>
      <point x="359" y="0" type="line"/>
      <point x="410" y="0" type="line"/>
      <point x="410" y="666" type="line"/>
    </contour>
    <contour>
      <point x="75" y="666" type="line"/>
      <point x="75" y="0" type="line"/>
      <point x="125" y="0" type="line"/>
      <point x="125" y="666" type="line"/>
    </contour>
    <contour>
      <point x="107" y="349" type="line"/>
      <point x="107" y="304" type="line"/>
      <point x="375" y="304" type="line"/>
      <point x="375" y="349" type="line"/>
    </contour>
  </outline>
</glyph>
<glyph name="J" format="1">
  <advance width="200"/>
  <unicode hex="004A"/>
  <outline>
    <contour>
      <point x="75" y="666" type="line"/>
      <point x="75" y="194" type="line" smooth="yes"/>
      <point x="75" y="93"/>
      <point x="62" y="30"/>
      <point x="41" y="-43" type="curve" smooth="yes"/>
      <point x="11" y="-149" type="line"/>
      <point x="61" y="-149" type="line"/>
      <point x="92" y="-44" type="line" smooth="yes"/>
      <point x="107" y="9"/>
      <point x="125" y="80"/>
      <point x="125" y="195" type="curve" smooth="yes"/>
      <point x="125" y="666" type="line"/>
    </contour>
  </outline>
</glyph>
<glyph name="L" format="1">
  <advance width="339"/>
  <unicode hex="004C"/>
  <outline>
    <contour>
      <point x="75" y="666" type="line"/>
      <point x="75" y="0" type="line"/>
      <point x="334" y="0" type="line"/>
      <point x="334" y="45" type="line"/>
      <point x="125" y="45" type="line"/>
      <point x="125" y="666" type="line"/>
    </contour>
  </outline>
</glyph>
<glyph name="M" format="1">
  <advance width="601"/>
  <unicode hex="004D"/>
  <outline>
    <contour>
      <point x="459" y="666" type="line"/>
      <point x="300" y="227" type="line"/>
      <point x="141" y="666" type="line"/>
      <point x="75" y="666" type="line"/>
      <point x="75" y="0" type="line"/>
      <point x="122" y="0" type="line"/>
      <point x="122" y="385" type="line"/>
      <point x="122" y="488"/>
      <point x="118" y="582"/>
      <point x="118" y="582" type="curve"/>
      <point x="268" y="180" type="line"/>
      <point x="332" y="180" type="line"/>
      <point x="481" y="582" type="line"/>
      <point x="481" y="582"/>
      <point x="478" y="501"/>
      <point x="478" y="384" type="curve"/>
      <point x="478" y="0" type="line"/>
      <point x="526" y="0" type="line"/>
      <point x="526" y="666" type="line"/>
    </contour>
  </outline>
</glyph>
<glyph name="N" format="1">
  <advance width="491"/>
  <unicode hex="004E"/>
  <outline>
    <contour>
      <point x="366" y="666" type="line"/>
      <point x="366" y="286" type="line"/>
      <point x="367" y="219"/>
      <point x="367" y="151"/>
      <point x="368" y="84" type="curve"/>
      <point x="342" y="152"/>
      <point x="315" y="219"/>
      <point x="289" y="287" type="curve"/>
      <point x="140" y="666" type="line"/>
      <point x="75" y="666" type="line"/>
      <point x="75" y="0" type="line"/>
      <point x="124" y="0" type="line"/>
      <point x="124" y="378" type="line"/>
      <point x="123" y="445"/>
      <point x="123" y="513"/>
      <point x="122" y="580" type="curve"/>
      <point x="148" y="512"/>
      <point x="175" y="445"/>
      <point x="201" y="377" type="curve"/>
      <point x="350" y="0" type="line"/>
      <point x="416" y="0" type="line"/>
      <point x="416" y="666" type="line"/>
    </contour>
  </outline>
</glyph>
<glyph name="Q" format="1">
  <advance width="448"/>
  <unicode hex="0051"/>
  <outline>
    <contour>
      <point x="239" y="35" type="line"/>
      <point x="362" y="-104" type="line"/>
      <point x="427" y="-104" type="line"/>
      <point x="303" y="35" type="line"/>
    </contour>
    <component base="O"/>
  </outline>
</glyph>
<glyph name="T" format="1">
  <advance width="334"/>
  <unicode hex="0054"/>
  <outline>
    <contour>
      <point x="142" y="666" type="line"/>
      <point x="142" y="0" type="line"/>
      <point x="192" y="0" type="line"/>
      <point x="192" y="666" type="line"/>
    </contour>
    <contour>
      <point x="10" y="666" type="line"/>
      <point x="10" y="621" type="line"/>
      <point x="324" y="621" type="line"/>
      <point x="324" y="666" type="line"/>
    </contour>
  </outline>
</glyph>
<glyph name="V" format="1">
  <advance width="402"/>
  <unicode hex="0056"/>
  <outline>
    <contour>
      <point x="335" y="666" type="line"/>
      <point x="259" y="323" type="line"/>
      <point x="240" y="233"/>
      <point x="220" y="143"/>
      <point x="201" y="53" type="curve"/>
      <point x="182" y="143"/>
      <point x="162" y="232"/>
      <point x="143" y="322" type="curve"/>
      <point x="67" y="666" type="line"/>
      <point x="15" y="666" type="line"/>
      <point x="165" y="0" type="line"/>
      <point x="237" y="0" type="line"/>
      <point x="387" y="666" type="line"/>
    </contour>
  </outline>
</glyph>
<glyph name="W" format="1">
  <advance width="613"/>
  <unicode hex="0057"/>
  <outline>
    <contour>
      <point x="536" y="666" type="line"/>
      <point x="462" y="220" type="line" smooth="yes"/>
      <point x="451" y="152"/>
      <point x="436" y="45"/>
      <point x="436" y="45" type="curve"/>
      <point x="436" y="45"/>
      <point x="421" y="152"/>
      <point x="410" y="220" type="curve" smooth="yes"/>
      <point x="336" y="666" type="line"/>
      <point x="277" y="666" type="line"/>
      <point x="203" y="221" type="line" smooth="yes"/>
      <point x="188" y="133"/>
      <point x="177" y="45"/>
      <point x="177" y="45" type="curve"/>
      <point x="177" y="45"/>
      <point x="165" y="134"/>
      <point x="151" y="220" type="curve" smooth="yes"/>
      <point x="77" y="666" type="line"/>
      <point x="25" y="666" type="line"/>
      <point x="141" y="0" type="line"/>
      <point x="213" y="0" type="line"/>
      <point x="274" y="352" type="line" smooth="yes"/>
      <point x="296" y="478"/>
      <point x="306" y="587"/>
      <point x="306" y="587" type="curve"/>
      <point x="306" y="587"/>
      <point x="316" y="482"/>
      <point x="339" y="351" type="curve" smooth="yes"/>
      <point x="400" y="0" type="line"/>
      <point x="472" y="0" type="line"/>
      <point x="588" y="666" type="line"/>
    </contour>
  </outline>
</glyph>
<glyph name="Y" format="1">
  <advance width="390"/>
  <unicode hex="0059"/>
  <outline>
    <contour>
      <point x="333" y="666" type="line"/>
      <point x="257" y="462" type="line"/>
      <point x="237" y="406"/>
      <point x="216" y="350"/>
      <point x="196" y="294" type="curve"/>
      <point x="175" y="350"/>
      <point x="155" y="407"/>
      <point x="134" y="463" type="curve"/>
      <point x="57" y="666" type="line"/>
      <point x="5" y="666" type="line"/>
      <point x="170" y="230" type="line"/>
      <point x="170" y="0" type="line"/>
      <point x="220" y="0" type="line"/>
      <point x="220" y="230" type="line"/>
      <point x="385" y="666" type="line"/>
    </contour>
  </outline>
</glyph>
<glyph name="bracketleft" format="1">
  <advance width="275"/>
  <unicode hex="005B"/>
  <outline>
    <contour>
      <point x="80" y="405" type="line"/>
      <point x="80" y="-120" type="line"/>
      <point x="249" y="-120" type="line"/>
      <point x="249" y="-80" type="line"/>
      <point x="125" y="-80" type="line"/>
      <point x="125" y="405" type="line"/>
    </contour>
    <contour>
      <point x="80" y="764" type="line"/>
      <point x="80" y="405" type="line"/>
      <point x="125" y="405" type="line"/>
      <point x="125" y="724" type="line"/>
      <point x="249" y="724" type="line"/>
      <point x="249" y="764" type="line"/>
    </contour>
  </outline>
</glyph>
<glyph name="backslash" format="1">
  <advance width="367"/>
  <unicode hex="005C"/>
  <outline>
    <contour>
      <point x="31" y="764" type="line"/>
      <point x="300" y="-120" type="line"/>
      <point x="344" y="-120" type="line"/>
      <point x="75" y="764" type="line"/>
    </contour>
  </outline>
</glyph>
<glyph name="asciicircum" format="1">
  <advance width="285"/>
  <unicode hex="005E"/>
  <outline>
    <contour>
      <point x="132" y="644" type="line"/>
      <point x="229" y="374" type="line"/>
      <point x="276" y="374" type="line"/>
      <point x="177" y="644" type="line"/>
    </contour>
    <contour>
      <point x="104" y="644" type="line"/>
      <point x="4" y="374" type="line"/>
      <point x="51" y="374" type="line"/>
      <point x="148" y="644" type="line"/>
    </contour>
  </outline>
</glyph>
<glyph name="c" format="1">
  <advance width="369"/>
  <unicode hex="0063"/>
  <outline>
    <contour>
      <point x="65" y="433" type="curve" smooth="yes"/>
      <point x="65" y="129" type="line" smooth="yes"/>
      <point x="65" y="45"/>
      <point x="109" y="-5"/>
      <point x="226" y="-5" type="curve" smooth="yes"/>
      <point x="269" y="-5"/>
      <point x="304" y="2"/>
      <point x="329" y="9" type="curve"/>
      <point x="329" y="56" type="line"/>
      <point x="302" y="47"/>
      <point x="267" y="41"/>
      <point x="226" y="41" type="curve" smooth="yes"/>
      <point x="133" y="41"/>
      <point x="115" y="74"/>
      <point x="115" y="129" type="curve" smooth="yes"/>
      <point x="115" y="433" type="line" smooth="yes"/>
      <point x="115" y="488"/>
      <point x="133" y="522"/>
      <point x="226" y="522" type="curve" smooth="yes"/>
      <point x="263" y="522"/>
      <point x="299" y="517"/>
      <point x="327" y="509" type="curve"/>
      <point x="327" y="555" type="line"/>
      <point x="304" y="562"/>
      <point x="268" y="568"/>
      <point x="226" y="568" type="curve" smooth="yes"/>
      <point x="109" y="568"/>
      <point x="65" y="517"/>
    </contour>
  </outline>
</glyph>
<glyph name="f" format="1">
  <advance width="267"/>
  <unicode hex="0066"/>
  <outline>
    <contour>
      <point x="97" y="605" type="curve" smooth="yes"/>
      <point x="97" y="563" type="line"/>
      <point x="40" y="563" type="line"/>
      <point x="40" y="518" type="line"/>
      <point x="97" y="518" type="line"/>
      <point x="97" y="0" type="line"/>
      <point x="147" y="0" type="line"/>
      <point x="147" y="518" type="line"/>
      <point x="259" y="518" type="line"/>
      <point x="259" y="563" type="line"/>
      <point x="147" y="563" type="line"/>
      <point x="147" y="605" type="line" smooth="yes"/>
      <point x="147" y="665"/>
      <point x="177" y="687"/>
      <point x="225" y="687" type="curve" smooth="yes"/>
      <point x="240" y="687"/>
      <point x="255" y="686"/>
      <point x="267" y="683" type="curve"/>
      <point x="267" y="729" type="line"/>
      <point x="255" y="731"/>
      <point x="239" y="732"/>
      <point x="225" y="732" type="curve" smooth="yes"/>
      <point x="141" y="732"/>
      <point x="97" y="686"/>
    </contour>
  </outline>
</glyph>
<glyph name="i" format="1">
  <advance width="200"/>
  <unicode hex="0069"/>
  <outline>
    <contour>
      <point x="75" y="563" type="line"/>
      <point x="75" y="0" type="line"/>
      <point x="125" y="0" type="line"/>
      <point x="125" y="563" type="line"/>
    </contour>
    <contour>
      <point x="67" y="677" type="curve" smooth="yes"/>
      <point x="67" y="654"/>
      <point x="76" y="640"/>
      <point x="100" y="640" type="curve" smooth="yes"/>
      <point x="124" y="640"/>
      <point x="133" y="654"/>
      <point x="133" y="677" type="curve" smooth="yes"/>
      <point x="133" y="700"/>
      <point x="124" y="714"/>
      <point x="100" y="714" type="curve" smooth="yes"/>
      <point x="76" y="714"/>
      <point x="67" y="700"/>
    </contour>
  </outline>
</glyph>
<glyph name="k" format="1">
  <advance width="394"/>
  <unicode hex="006B"/>
  <outline>
    <contour>
      <point x="310" y="563" type="line"/>
      <point x="173" y="289" type="line"/>
      <point x="317" y="0" type="line"/>
      <point x="374" y="0" type="line"/>
      <point x="230" y="291" type="line"/>
      <point x="366" y="563" type="line"/>
    </contour>
    <contour>
      <point x="75" y="713" type="line"/>
      <point x="75" y="0" type="line"/>
      <point x="125" y="0" type="line"/>
      <point x="125" y="713" type="line"/>
    </contour>
  </outline>
</glyph>
<glyph name="l" format="1">
  <advance width="200"/>
  <unicode hex="006C"/>
  <outline>
    <contour>
      <point x="75" y="713" type="line"/>
      <point x="75" y="0" type="line"/>
      <point x="125" y="0" type="line"/>
      <point x="125" y="713" type="line"/>
    </contour>
  </outline>
</glyph>
<glyph name="n" format="1">
  <advance width="448"/>
  <unicode hex="006E"/>
  <outline>
    <contour>
      <point x="124" y="537" type="curve"/>
      <point x="124" y="563" type="line"/>
      <point x="75" y="563" type="line"/>
      <point x="75" y="0" type="line"/>
      <point x="125" y="0" type="line"/>
      <point x="125" y="489" type="line"/>
      <point x="163" y="507"/>
      <point x="200" y="519"/>
      <point x="242" y="519" type="curve"/>
      <point x="295" y="519"/>
      <point x="328" y="492"/>
      <point x="328" y="432" type="curve" smooth="yes"/>
      <point x="328" y="0" type="line"/>
      <point x="378" y="0" type="line"/>
      <point x="378" y="432" type="line" smooth="yes"/>
      <point x="378" y="517"/>
      <point x="325" y="565"/>
      <point x="242" y="565" type="curve"/>
      <point x="196" y="565"/>
      <point x="149" y="547"/>
    </contour>
  </outline>
</glyph>
<glyph name="o" format="1">
  <advance width="440"/>
  <unicode hex="006F"/>
  <outline>
    <contour>
      <point x="65" y="420" type="curve" smooth="yes"/>
      <point x="65" y="143" type="line" smooth="yes"/>
      <point x="65" y="57"/>
      <point x="110" y="-10"/>
      <point x="220" y="-10" type="curve" smooth="yes"/>
      <point x="330" y="-10"/>
      <point x="375" y="57"/>
      <point x="375" y="143" type="curve" smooth="yes"/>
      <point x="375" y="420" type="line" smooth="yes"/>
      <point x="375" y="506"/>
      <point x="330" y="573"/>
      <point x="220" y="573" type="curve" smooth="yes"/>
      <point x="110" y="573"/>
      <point x="65" y="506"/>
    </contour>
    <contour>
      <point x="325" y="420" type="curve" smooth="yes"/>
      <point x="325" y="143" type="line" smooth="yes"/>
      <point x="325" y="79"/>
      <point x="299" y="35"/>
      <point x="220" y="35" type="curve" smooth="yes"/>
      <point x="141" y="35"/>
      <point x="115" y="79"/>
      <point x="115" y="143" type="curve" smooth="yes"/>
      <point x="115" y="420" type="line" smooth="yes"/>
      <point x="115" y="484"/>
      <point x="141" y="528"/>
      <point x="220" y="528" type="curve" smooth="yes"/>
      <point x="299" y="528"/>
      <point x="325" y="484"/>
    </contour>
  </outline>
</glyph>
<glyph name="q" format="1">
  <advance width="443"/>
  <unicode hex="0071"/>
  <outline>
    <contour>
      <point x="215" y="563" type="line"/>
      <point x="127" y="563"/>
      <point x="65" y="508"/>
      <point x="65" y="415" type="curve" smooth="yes"/>
      <point x="65" y="142" type="line" smooth="yes"/>
      <point x="65" y="49"/>
      <point x="113" y="-3"/>
      <point x="208" y="-3" type="curve" smooth="yes"/>
      <point x="265" y="-3"/>
      <point x="297" y="14"/>
      <point x="319" y="31" type="curve"/>
      <point x="319" y="-149" type="line"/>
      <point x="368" y="-149" type="line"/>
      <point x="368" y="563" type="line"/>
    </contour>
    <contour>
      <point x="318" y="82" type="line"/>
      <point x="298" y="62"/>
      <point x="261" y="42"/>
      <point x="209" y="42" type="curve" smooth="yes"/>
      <point x="146" y="42"/>
      <point x="115" y="74"/>
      <point x="115" y="141" type="curve" smooth="yes"/>
      <point x="115" y="415" type="line" smooth="yes"/>
      <point x="115" y="484"/>
      <point x="157" y="517"/>
      <point x="226" y="517" type="curve" smooth="yes"/>
      <point x="318" y="517" type="line"/>
    </contour>
  </outline>
</glyph>
<glyph name="r" format="1">
  <advance width="272"/>
  <unicode hex="0072"/>
  <outline>
    <contour>
      <point x="240" y="566" type="line"/>
      <point x="180" y="566"/>
      <point x="161" y="546"/>
      <point x="124" y="519" type="curve"/>
      <point x="124" y="563" type="line"/>
      <point x="75" y="563" type="line"/>
      <point x="75" y="0" type="line"/>
      <point x="125" y="0" type="line"/>
      <point x="125" y="465" type="line"/>
      <point x="175" y="501"/>
      <point x="189" y="517"/>
      <point x="231" y="517" type="curve"/>
      <point x="267" y="517" type="line"/>
      <point x="267" y="566" type="line"/>
    </contour>
  </outline>
</glyph>
<glyph name="t" format="1">
  <advance width="283"/>
  <unicode hex="0074"/>
  <outline>
    <contour>
      <point x="85" y="667" type="line"/>
      <point x="71" y="563" type="line"/>
      <point x="5" y="563" type="line"/>
      <point x="5" y="518" type="line"/>
      <point x="70" y="518" type="line"/>
      <point x="70" y="116" type="line" smooth="yes"/>
      <point x="70" y="38"/>
      <point x="115" y="-3"/>
      <point x="197" y="-3" type="curve" smooth="yes"/>
      <point x="223" y="-3"/>
      <point x="258" y="3"/>
      <point x="268" y="6" type="curve"/>
      <point x="268" y="52" type="line"/>
      <point x="257" y="48"/>
      <point x="224" y="42"/>
      <point x="197" y="42" type="curve" smooth="yes"/>
      <point x="147" y="42"/>
      <point x="120" y="61"/>
      <point x="120" y="116" type="curve" smooth="yes"/>
      <point x="120" y="518" type="line"/>
      <point x="257" y="518" type="line"/>
      <point x="257" y="563" type="line"/>
      <point x="120" y="563" type="line"/>
      <point x="120" y="667" type="line"/>
    </contour>
  </outline>
</glyph>
<glyph name="w" format="1">
  <advance width="591"/>
  <unicode hex="0077"/>
  <outline>
    <contour>
      <point x="520" y="563" type="line"/>
      <point x="425" y="40" type="line"/>
      <point x="327" y="563" type="line"/>
      <point x="264" y="563" type="line"/>
      <point x="165" y="40" type="line"/>
      <point x="71" y="563" type="line"/>
      <point x="20" y="563" type="line"/>
      <point x="126" y="0" type="line"/>
      <point x="205" y="0" type="line"/>
      <point x="264" y="304" type="line"/>
      <point x="281" y="391"/>
      <point x="295" y="498"/>
      <point x="295" y="498" type="curve"/>
      <point x="295" y="498"/>
      <point x="313" y="377"/>
      <point x="327" y="304" type="curve" smooth="yes"/>
      <point x="386" y="0" type="line"/>
      <point x="465" y="0" type="line"/>
      <point x="571" y="563" type="line"/>
    </contour>
  </outline>
</glyph>
<glyph name="bar" format="1">
  <advance width="203"/>
  <unicode hex="007C"/>
  <outline>
    <contour>
      <point x="80" y="784" type="line"/>
      <point x="80" y="-140" type="line"/>
      <point x="123" y="-140" type="line"/>
      <point x="123" y="784" type="line"/>
    </contour>
  </outline>
</glyph>
<glyph name="braceright" format="1">
  <advance width="335"/>
  <unicode hex="007D"/>
  <outline>
    <contour>
      <point x="273" y="343" type="line"/>
      <point x="221" y="343"/>
      <point x="195" y="373"/>
      <point x="195" y="417" type="curve" smooth="yes"/>
      <point x="195" y="648" type="line" smooth="yes"/>
      <point x="195" y="721"/>
      <point x="146" y="764"/>
      <point x="58" y="764" type="curve" smooth="yes"/>
      <point x="50" y="764" type="line"/>
      <point x="50" y="722" type="line"/>
      <point x="57" y="722" type="line" smooth="yes"/>
      <point x="127" y="722"/>
      <point x="150" y="692"/>
      <point x="150" y="648" type="curve" smooth="yes"/>
      <point x="150" y="437" type="line" smooth="yes"/>
      <point x="150" y="369"/>
      <point x="167" y="329"/>
      <point x="234" y="322" type="curve"/>
      <point x="167" y="315"/>
      <point x="150" y="275"/>
      <point x="150" y="207" type="curve" smooth="yes"/>
      <point x="150" y="-4" type="line" smooth="yes"/>
      <point x="150" y="-48"/>
      <point x="127" y="-78"/>
      <point x="57" y="-78" type="curve" smooth="yes"/>
      <point x="50" y="-78" type="line"/>
      <point x="50" y="-120" type="line"/>
      <point x="58" y="-120" type="line" smooth="yes"/>
      <point x="146" y="-120"/>
      <point x="195" y="-77"/>
      <point x="195" y="-4" type="curve" smooth="yes"/>
      <point x="195" y="227" type="line" smooth="yes"/>
      <point x="195" y="271"/>
      <point x="221" y="301"/>
      <point x="273" y="301" type="curve" smooth="yes"/>
      <point x="275" y="301" type="line"/>
      <point x="275" y="343" type="line"/>
    </contour>
  </outline>
</glyph>
<glyph name="cent" format="1">
  <advance width="405"/>
  <unicode hex="00A2"/>
  <outline>
    <contour>
      <point x="212" y="12" type="line"/>
      <point x="212" y="-80" type="line"/>
      <point x="257" y="-80" type="line"/>
      <point x="257" y="12" type="line"/>
    </contour>
    <contour>
      <point x="211" y="653" type="line"/>
      <point x="211" y="561" type="line"/>
      <point x="256" y="561" type="line"/>
      <point x="256" y="653" type="line"/>
    </contour>
    <component base="c" xOffset="10"/>
  </outline>
</glyph>
<glyph name="sterling" format="1">
  <advance width="443"/>
  <unicode hex="00A3"/>
  <outline>
    <contour>
      <point x="120" y="522" type="curve" smooth="yes"/>
      <point x="120" y="144" type="line" smooth="yes"/>
      <point x="120" y="40"/>
      <point x="43" y="48"/>
      <point x="43" y="48" type="curve"/>
      <point x="43" y="0" type="line"/>
      <point x="410" y="0" type="line"/>
      <point x="410" y="48" type="line"/>
      <point x="123" y="48" type="line"/>
      <point x="129" y="49"/>
      <point x="170" y="64"/>
      <point x="170" y="147" type="curve"/>
      <point x="170" y="522" type="line" smooth="yes"/>
      <point x="170" y="577"/>
      <point x="186" y="619"/>
      <point x="279" y="619" type="curve" smooth="yes"/>
      <point x="327" y="619"/>
      <point x="373" y="607"/>
      <point x="404" y="596" type="curve"/>
      <point x="404" y="646" type="line"/>
      <point x="376" y="655"/>
      <point x="330" y="667"/>
      <point x="279" y="667" type="curve" smooth="yes"/>
      <point x="162" y="667"/>
      <point x="120" y="606"/>
    </contour>
    <contour>
      <point x="59" y="366" type="line"/>
      <point x="59" y="324" type="line"/>
      <point x="350" y="324" type="line"/>
      <point x="350" y="366" type="line"/>
    </contour>
  </outline>
</glyph>
<glyph name="brokenbar" format="1">
  <advance width="203"/>
  <unicode hex="00A6"/>
  <outline>
    <contour>
      <point x="80" y="784" type="line"/>
      <point x="80" y="409" type="line"/>
      <point x="123" y="409" type="line"/>
      <point x="123" y="784" type="line"/>
    </contour>
    <contour>
      <point x="80" y="235" type="line"/>
      <point x="80" y="-140" type="line"/>
      <point x="123" y="-140" type="line"/>
      <point x="123" y="235" type="line"/>
    </contour>
  </outline>
</glyph>
<glyph name="section" format="1">
  <advance width="354"/>
  <unicode hex="00A7"/>
  <outline>
    <contour>
      <point x="30" y="533" type="curve" smooth="yes"/>
      <point x="30" y="517" type="line" smooth="yes"/>
      <point x="30" y="452"/>
      <point x="60" y="415"/>
      <point x="117" y="391" type="curve" smooth="yes"/>
      <point x="208" y="351" type="line" smooth="yes"/>
      <point x="261" y="328"/>
      <point x="274" y="310"/>
      <point x="274" y="269" type="curve" smooth="yes"/>
      <point x="274" y="257" type="line"/>
      <point x="324" y="257" type="line"/>
      <point x="324" y="273" type="line" smooth="yes"/>
      <point x="324" y="334"/>
      <point x="288" y="367"/>
      <point x="231" y="393" type="curve" smooth="yes"/>
      <point x="144" y="432" type="line" smooth="yes"/>
      <point x="97" y="452"/>
      <point x="80" y="465"/>
      <point x="80" y="527" type="curve" smooth="yes"/>
      <point x="80" y="590"/>
      <point x="98" y="620"/>
      <point x="191" y="620" type="curve" smooth="yes"/>
      <point x="232" y="620"/>
      <point x="268" y="614"/>
      <point x="299" y="603" type="curve"/>
      <point x="299" y="651" type="line"/>
      <point x="271" y="660"/>
      <point x="232" y="666"/>
      <point x="191" y="666" type="curve" smooth="yes"/>
      <point x="74" y="666"/>
      <point x="30" y="620"/>
    </contour>
    <contour>
      <point x="88" y="258" type="line"/>
      <point x="38" y="258" type="line"/>
      <point x="38" y="242" type="line" smooth="yes"/>
      <point x="38" y="177"/>
      <point x="68" y="140"/>
      <point x="125" y="116" type="curve" smooth="yes"/>
      <point x="216" y="76" type="line" smooth="yes"/>
      <point x="269" y="53"/>
      <point x="282" y="35"/>
      <point x="282" y="-12" type="curve" smooth="yes"/>
      <point x="282" y="-75"/>
      <point x="253" y="-103"/>
      <point x="160" y="-103" type="curve" smooth="yes"/>
      <point x="112" y="-103"/>
      <point x="74" y="-97"/>
      <point x="43" y="-86" type="curve"/>
      <point x="43" y="-134" type="line"/>
      <point x="71" y="-143"/>
      <point x="109" y="-149"/>
      <point x="160" y="-149" type="curve" smooth="yes"/>
      <point x="277" y="-149"/>
      <point x="332" y="-102"/>
      <point x="332" y="-16" type="curve" smooth="yes"/>
      <point x="332" y="-2" type="line" smooth="yes"/>
      <point x="332" y="59"/>
      <point x="296" y="92"/>
      <point x="239" y="118" type="curve" smooth="yes"/>
      <point x="152" y="157" type="line" smooth="yes"/>
      <point x="105" y="177"/>
      <point x="88" y="196"/>
      <point x="88" y="248" type="curve" smooth="yes"/>
    </contour>
  </outline>
</glyph>
<glyph name="dieresis" format="1">
  <advance width="350"/>
  <unicode hex="00A8"/>
  <outline>
    <contour>
      <point x="79" y="659" type="curve" smooth="yes"/>
      <point x="79" y="640"/>
      <point x="88" y="626"/>
      <point x="112" y="626" type="curve" smooth="yes"/>
      <point x="136" y="626"/>
      <point x="145" y="640"/>
      <point x="145" y="659" type="curve" smooth="yes"/>
      <point x="145" y="678"/>
      <point x="136" y="692"/>
      <point x="112" y="692" type="curve" smooth="yes"/>
      <point x="88" y="692"/>
      <point x="79" y="678"/>
    </contour>
    <contour>
      <point x="204" y="659" type="curve" smooth="yes"/>
      <point x="204" y="640"/>
      <point x="213" y="626"/>
      <point x="237" y="626" type="curve" smooth="yes"/>
      <point x="261" y="626"/>
      <point x="270" y="640"/>
      <point x="270" y="659" type="curve" smooth="yes"/>
      <point x="270" y="678"/>
      <point x="261" y="692"/>
      <point x="237" y="692" type="curve" smooth="yes"/>
      <point x="213" y="692"/>
      <point x="204" y="678"/>
    </contour>
  </outline>
</glyph>
<glyph name="copyright" format="1">
  <advance width="681"/>
  <unicode hex="00A9"/>
  <outline>
    <contour>
      <point x="50" y="321" type="curve" smooth="yes"/>
      <point x="50" y="135"/>
      <point x="112" y="0"/>
      <point x="342" y="0" type="curve" smooth="yes"/>
      <point x="567" y="0"/>
      <point x="631" y="138"/>
      <point x="631" y="321" type="curve" smooth="yes"/>
      <point x="631" y="510"/>
      <point x="580" y="644"/>
      <point x="342" y="644" type="curve" smooth="yes"/>
      <point x="106" y="644"/>
      <point x="50" y="507"/>
    </contour>
    <contour>
      <point x="226" y="374" type="curve" smooth="yes"/>
      <point x="226" y="269" type="line" smooth="yes"/>
      <point x="226" y="191"/>
      <point x="257" y="142"/>
      <point x="356" y="142" type="curve" smooth="yes"/>
      <point x="378" y="142"/>
      <point x="408" y="145"/>
      <point x="430" y="149" type="curve"/>
      <point x="430" y="197" type="line"/>
      <point x="411" y="190"/>
      <point x="392" y="186"/>
      <point x="356" y="186" type="curve" smooth="yes"/>
      <point x="278" y="186"/>
      <point x="273" y="222"/>
      <point x="273" y="269" type="curve" smooth="yes"/>
      <point x="273" y="374" type="line" smooth="yes"/>
      <point x="273" y="421"/>
      <point x="278" y="458"/>
      <point x="356" y="458" type="curve" smooth="yes"/>
      <point x="391" y="458"/>
      <point x="410" y="454"/>
      <point x="429" y="447" type="curve"/>
      <point x="429" y="494" type="line"/>
      <point x="407" y="499"/>
      <point x="378" y="501"/>
      <point x="356" y="501" type="curve" smooth="yes"/>
      <point x="257" y="501"/>
      <point x="226" y="452"/>
    </contour>
    <contour>
      <point x="584" y="321" type="curve" smooth="yes"/>
      <point x="584" y="162"/>
      <point x="545" y="44"/>
      <point x="342" y="44" type="curve" smooth="yes"/>
      <point x="133" y="44"/>
      <point x="97" y="159"/>
      <point x="97" y="321" type="curve" smooth="yes"/>
      <point x="97" y="483"/>
      <point x="130" y="600"/>
      <point x="342" y="600" type="curve" smooth="yes"/>
      <point x="553" y="600"/>
      <point x="584" y="485"/>
    </contour>
  </outline>
</glyph>
<glyph name="guillemotleft" format="1">
  <advance width="418"/>
  <unicode hex="00AB"/>
  <outline>
    <contour>
      <point x="346" y="505" type="line"/>
      <point x="225" y="322" type="line"/>
      <point x="346" y="139" type="line"/>
      <point x="399" y="139" type="line"/>
      <point x="277" y="322" type="line"/>
      <point x="399" y="505" type="line"/>
    </contour>
    <contour>
      <point x="182" y="505" type="line"/>
      <point x="61" y="322" type="line"/>
      <point x="182" y="139" type="line"/>
      <point x="235" y="139" type="line"/>
      <point x="113" y="322" type="line"/>
      <point x="235" y="505" type="line"/>
    </contour>
  </outline>
</glyph>
<glyph name="logicalnot" format="1">
  <advance width="435"/>
  <unicode hex="00AC"/>
  <outline>
    <contour>
      <point x="75" y="349" type="line"/>
      <point x="75" y="304" type="line"/>
      <point x="309" y="304" type="line"/>
      <point x="309" y="208" type="line"/>
      <point x="360" y="208" type="line"/>
      <point x="360" y="349" type="line"/>
    </contour>
  </outline>
</glyph>
<glyph name="softhyphen" format="1">
  <advance width="206"/>
  <unicode hex="00AD"/>
  <outline>
    <contour>
      <point x="40" y="343" type="line"/>
      <point x="40" y="303" type="line"/>
      <point x="171" y="303" type="line"/>
      <point x="171" y="343" type="line"/>
    </contour>
  </outline>
</glyph>
<glyph name="registered" format="1">
  <advance width="486"/>
  <unicode hex="00AE"/>
  <outline>
    <contour>
      <point x="64" y="515" type="curve" smooth="yes"/>
      <point x="64" y="379"/>
      <point x="106" y="315"/>
      <point x="251" y="315" type="curve" smooth="yes"/>
      <point x="405" y="315"/>
      <point x="444" y="382"/>
      <point x="444" y="515" type="curve" smooth="yes"/>
      <point x="444" y="654"/>
      <point x="402" y="720"/>
      <point x="253" y="720" type="curve" smooth="yes"/>
      <point x="107" y="720"/>
      <point x="64" y="654"/>
    </contour>
    <contour>
      <point x="259" y="505" type="line"/>
      <point x="305" y="392" type="line"/>
      <point x="347" y="392" type="line"/>
      <point x="297" y="505" type="line"/>
    </contour>
    <contour>
      <point x="404" y="515" type="curve" smooth="yes"/>
      <point x="404" y="393"/>
      <point x="383" y="349"/>
      <point x="251" y="349" type="curve" smooth="yes"/>
      <point x="125" y="349"/>
      <point x="104" y="393"/>
      <point x="104" y="515" type="curve" smooth="yes"/>
      <point x="104" y="643"/>
      <point x="126" y="686"/>
      <point x="253" y="686" type="curve" smooth="yes"/>
      <point x="379" y="686"/>
      <point x="404" y="643"/>
    </contour>
    <contour>
      <point x="183" y="644" type="line"/>
      <point x="183" y="392" type="line"/>
      <point x="221" y="392" type="line"/>
      <point x="221" y="487" type="line"/>
      <point x="250" y="487" type="line"/>
      <point x="309" y="487"/>
      <point x="336" y="511"/>
      <point x="336" y="568" type="curve" smooth="yes"/>
      <point x="336" y="620"/>
      <point x="309" y="644"/>
      <point x="251" y="644" type="curve" smooth="yes"/>
    </contour>
    <contour>
      <point x="302" y="568" type="curve" smooth="yes"/>
      <point x="302" y="528"/>
      <point x="285" y="519"/>
      <point x="247" y="519" type="curve" smooth="yes"/>
      <point x="221" y="519" type="line"/>
      <point x="221" y="611" type="line"/>
      <point x="254" y="611" type="line" smooth="yes"/>
      <point x="284" y="611"/>
      <point x="302" y="608"/>
    </contour>
  </outline>
</glyph>
<glyph name="degree" format="1">
  <advance width="352"/>
  <unicode hex="00B0"/>
  <outline>
    <contour>
      <point x="55" y="644" type="curve" smooth="yes"/>
      <point x="55" y="569"/>
      <point x="85" y="510"/>
      <point x="179" y="510" type="curve" smooth="yes"/>
      <point x="273" y="510"/>
      <point x="304" y="569"/>
      <point x="304" y="644" type="curve" smooth="yes"/>
      <point x="304" y="719"/>
      <point x="273" y="779"/>
      <point x="179" y="779" type="curve" smooth="yes"/>
      <point x="85" y="779"/>
      <point x="55" y="719"/>
    </contour>
    <contour>
      <point x="264" y="643" type="curve" smooth="yes"/>
      <point x="264" y="591"/>
      <point x="252" y="549"/>
      <point x="179" y="549" type="curve" smooth="yes"/>
      <point x="106" y="549"/>
      <point x="95" y="591"/>
      <point x="95" y="643" type="curve" smooth="yes"/>
      <point x="95" y="695"/>
      <point x="106" y="738"/>
      <point x="179" y="738" type="curve" smooth="yes"/>
      <point x="252" y="738"/>
      <point x="264" y="695"/>
    </contour>
  </outline>
</glyph>
<glyph name="mu.math" format="1">
  <advance width="453"/>
  <unicode hex="00B5"/>
  <outline>
    <contour>
      <point x="328" y="563" type="line"/>
      <point x="328" y="81" type="line"/>
      <point x="328" y="81"/>
      <point x="285" y="43"/>
      <point x="220" y="43" type="curve" smooth="yes"/>
      <point x="154" y="43"/>
      <point x="125" y="65"/>
      <point x="125" y="65" type="curve"/>
      <point x="125" y="563" type="line"/>
      <point x="75" y="563" type="line"/>
      <point x="75" y="-151" type="line"/>
      <point x="125" y="-151" type="line"/>
      <point x="125" y="14" type="line"/>
      <point x="144" y="6"/>
      <point x="180" y="-2"/>
      <point x="219" y="-2" type="curve" smooth="yes"/>
      <point x="283" y="-2"/>
      <point x="329" y="27"/>
      <point x="329" y="27" type="curve"/>
      <point x="329" y="0" type="line"/>
      <point x="378" y="0" type="line"/>
      <point x="378" y="563" type="line"/>
    </contour>
  </outline>
</glyph>
<glyph name="periodcentered" format="1">
  <advance width="196"/>
  <unicode hex="00B7"/>
  <outline>
    <contour>
      <point x="67" y="344" type="curve" smooth="yes"/>
      <point x="67" y="325"/>
      <point x="76" y="311"/>
      <point x="100" y="311" type="curve" smooth="yes"/>
      <point x="124" y="311"/>
      <point x="133" y="325"/>
      <point x="133" y="344" type="curve" smooth="yes"/>
      <point x="133" y="363"/>
      <point x="124" y="377"/>
      <point x="100" y="377" type="curve" smooth="yes"/>
      <point x="76" y="377"/>
      <point x="67" y="363"/>
    </contour>
  </outline>
</glyph>
<glyph name="cedilla" format="1">
  <advance width="350"/>
  <unicode hex="00B8"/>
  <outline>
    <contour>
      <point x="151" y="6" type="line"/>
      <point x="136" y="-67" type="line"/>
      <point x="150" y="-67" type="line" smooth="yes"/>
      <point x="189" y="-67"/>
      <point x="208" y="-79"/>
      <point x="208" y="-107" type="curve" smooth="yes"/>
      <point x="208" y="-135"/>
      <point x="184" y="-147"/>
      <point x="152" y="-147" type="curve" smooth="yes"/>
      <point x="135" y="-147"/>
      <point x="118" y="-144"/>
      <point x="107" y="-139" type="curve"/>
      <point x="107" y="-172" type="line"/>
      <point x="120" y="-177"/>
      <point x="140" y="-179"/>
      <point x="156" y="-179" type="curve" smooth="yes"/>
      <point x="203" y="-179"/>
      <point x="242" y="-155"/>
      <point x="242" y="-107" type="curve" smooth="yes"/>
      <point x="242" y="-66"/>
      <point x="214" y="-42"/>
      <point x="172" y="-40" type="curve"/>
      <point x="182" y="6" type="line"/>
    </contour>
  </outline>
</glyph>
<glyph name="guillemotright" format="1">
  <advance width="418"/>
  <unicode hex="00BB"/>
  <outline>
    <contour>
      <point x="183" y="505" type="line"/>
      <point x="305" y="322" type="line"/>
      <point x="183" y="139" type="line"/>
      <point x="236" y="139" type="line"/>
      <point x="357" y="322" type="line"/>
      <point x="236" y="505" type="line"/>
    </contour>
    <contour>
      <point x="19" y="505" type="line"/>
      <point x="141" y="322" type="line"/>
      <point x="19" y="139" type="line"/>
      <point x="72" y="139" type="line"/>
      <point x="193" y="322" type="line"/>
      <point x="72" y="505" type="line"/>
    </contour>
  </outline>
</glyph>
<glyph name="onequarter" format="1">
  <advance width="776"/>
  <unicode hex="00BC"/>
  <outline>
    <contour>
      <point x="131" y="666" type="line"/>
      <point x="40" y="596" type="line"/>
      <point x="40" y="547" type="line"/>
      <point x="142" y="628" type="line"/>
      <point x="142" y="214" type="line"/>
      <point x="182" y="214" type="line"/>
      <point x="182" y="666" type="line"/>
    </contour>
    <contour>
      <point x="604" y="452" type="line"/>
      <point x="436" y="141" type="line"/>
      <point x="436" y="104" type="line"/>
      <point x="627" y="104" type="line"/>
      <point x="627" y="0" type="line"/>
      <point x="665" y="0" type="line"/>
      <point x="665" y="104" type="line"/>
      <point x="716" y="104" type="line"/>
      <point x="716" y="141" type="line"/>
      <point x="665" y="141" type="line"/>
      <point x="665" y="452" type="line"/>
    </contour>
    <contour>
      <point x="627" y="141" type="line"/>
      <point x="476" y="141" type="line"/>
      <point x="627" y="422" type="line"/>
    </contour>
    <contour>
      <point x="475" y="666" type="line"/>
      <point x="160" y="0" type="line"/>
      <point x="202" y="0" type="line"/>
      <point x="517" y="666" type="line"/>
    </contour>
  </outline>
</glyph>
<glyph name="threequarters" format="1">
  <advance width="820"/>
  <unicode hex="00BE"/>
  <outline>
    <contour>
      <point x="648" y="452" type="line"/>
      <point x="480" y="141" type="line"/>
      <point x="480" y="104" type="line"/>
      <point x="671" y="104" type="line"/>
      <point x="671" y="0" type="line"/>
      <point x="709" y="0" type="line"/>
      <point x="709" y="104" type="line"/>
      <point x="760" y="104" type="line"/>
      <point x="760" y="141" type="line"/>
      <point x="709" y="141" type="line"/>
      <point x="709" y="452" type="line"/>
    </contour>
    <contour>
      <point x="671" y="141" type="line"/>
      <point x="520" y="141" type="line"/>
      <point x="671" y="422" type="line"/>
    </contour>
    <contour>
      <point x="539" y="666" type="line"/>
      <point x="224" y="0" type="line"/>
      <point x="266" y="0" type="line"/>
      <point x="581" y="666" type="line"/>
    </contour>
    <contour>
      <point x="52" y="664" type="curve"/>
      <point x="52" y="625" type="line"/>
      <point x="70" y="628"/>
      <point x="92" y="633"/>
      <point x="140" y="633" type="curve" smooth="yes"/>
      <point x="205" y="633"/>
      <point x="224" y="611"/>
      <point x="224" y="569" type="curve" smooth="yes"/>
      <point x="224" y="534" type="line" smooth="yes"/>
      <point x="224" y="498"/>
      <point x="216" y="465"/>
      <point x="151" y="465" type="curve" smooth="yes"/>
      <point x="108" y="465" type="line"/>
      <point x="108" y="427" type="line"/>
      <point x="151" y="427" type="line" smooth="yes"/>
      <point x="216" y="426"/>
      <point x="224" y="397"/>
      <point x="224" y="361" type="curve" smooth="yes"/>
      <point x="224" y="313" type="line" smooth="yes"/>
      <point x="224" y="271"/>
      <point x="204" y="249"/>
      <point x="139" y="249" type="curve" smooth="yes"/>
      <point x="91" y="249"/>
      <point x="71" y="254"/>
      <point x="40" y="261" type="curve"/>
      <point x="40" y="222" type="line"/>
      <point x="68" y="215"/>
      <point x="100" y="211"/>
      <point x="139" y="211" type="curve" smooth="yes"/>
      <point x="222" y="211"/>
      <point x="264" y="248"/>
      <point x="264" y="313" type="curve" smooth="yes"/>
      <point x="264" y="361" type="line" smooth="yes"/>
      <point x="264" y="397"/>
      <point x="251" y="433"/>
      <point x="217" y="446" type="curve"/>
      <point x="250" y="459"/>
      <point x="264" y="498"/>
      <point x="264" y="534" type="curve" smooth="yes"/>
      <point x="264" y="574" type="line" smooth="yes"/>
      <point x="262" y="636"/>
      <point x="221" y="671"/>
      <point x="140" y="671" type="curve" smooth="yes"/>
      <point x="95" y="671"/>
      <point x="69" y="667"/>
    </contour>
  </outline>
</glyph>
<glyph name="multiply" format="1">
  <advance width="343"/>
  <unicode hex="00D7"/>
  <outline>
    <contour>
      <point x="27" y="439" type="line"/>
      <point x="288" y="178" type="line"/>
      <point x="316" y="206" type="line"/>
      <point x="55" y="467" type="line"/>
    </contour>
    <contour>
      <point x="27" y="206" type="line"/>
      <point x="55" y="178" type="line"/>
      <point x="316" y="439" type="line"/>
      <point x="288" y="467" type="line"/>
    </contour>
  </outline>
</glyph>
<glyph name="Thorn" format="1">
  <advance width="423"/>
  <unicode hex="00DE"/>
  <outline>
    <contour>
      <point x="119" y="540" type="line"/>
      <point x="119" y="495" type="line"/>
      <point x="232" y="495" type="line" smooth="yes"/>
      <point x="311" y="495"/>
      <point x="341" y="454"/>
      <point x="341" y="390" type="curve" smooth="yes"/>
      <point x="341" y="276" type="line" smooth="yes"/>
      <point x="341" y="212"/>
      <point x="311" y="173"/>
      <point x="232" y="173" type="curve" smooth="yes"/>
      <point x="124" y="173" type="line"/>
      <point x="124" y="126" type="line"/>
      <point x="232" y="126" type="line" smooth="yes"/>
      <point x="342" y="126"/>
      <point x="391" y="190"/>
      <point x="391" y="276" type="curve" smooth="yes"/>
      <point x="391" y="390" type="line" smooth="yes"/>
      <point x="391" y="476"/>
      <point x="342" y="540"/>
      <point x="232" y="540" type="curve" smooth="yes"/>
    </contour>
    <contour>
      <point x="85" y="666" type="line"/>
      <point x="85" y="0" type="line"/>
      <point x="135" y="0" type="line"/>
      <point x="135" y="666" type="line"/>
    </contour>
  </outline>
</glyph>
<glyph name="divide" format="1">
  <advance width="421"/>
  <unicode hex="00F7"/>
  <outline>
    <contour>
      <point x="40" y="341" type="line"/>
      <point x="40" y="301" type="line"/>
      <point x="381" y="301" type="line"/>
      <point x="381" y="341" type="line"/>
    </contour>
    <contour>
      <point x="181" y="148" type="curve" smooth="yes"/>
      <point x="181" y="129"/>
      <point x="190" y="115"/>
      <point x="214" y="115" type="curve" smooth="yes"/>
      <point x="238" y="115"/>
      <point x="247" y="129"/>
      <point x="247" y="148" type="curve" smooth="yes"/>
      <point x="247" y="167"/>
      <point x="238" y="181"/>
      <point x="214" y="181" type="curve" smooth="yes"/>
      <point x="190" y="181"/>
      <point x="181" y="167"/>
    </contour>
    <contour>
      <point x="181" y="491" type="curve" smooth="yes"/>
      <point x="181" y="472"/>
      <point x="190" y="458"/>
      <point x="214" y="458" type="curve" smooth="yes"/>
      <point x="238" y="458"/>
      <point x="247" y="472"/>
      <point x="247" y="491" type="curve" smooth="yes"/>
      <point x="247" y="510"/>
      <point x="238" y="524"/>
      <point x="214" y="524" type="curve" smooth="yes"/>
      <point x="190" y="524"/>
      <point x="181" y="510"/>
    </contour>
  </outline>
</glyph>
<glyph name="thorn" format="1">
  <advance width="453"/>
  <unicode hex="00FE"/>
  <outline>
    <contour>
      <point x="75" y="713" type="line"/>
      <point x="75" y="-179" type="line"/>
      <point x="125" y="-179" type="line"/>
      <point x="125" y="0" type="line"/>
      <point x="232" y="0" type="line" smooth="yes"/>
      <point x="320" y="0"/>
      <point x="378" y="57"/>
      <point x="378" y="150" type="curve" smooth="yes"/>
      <point x="378" y="432" type="line" smooth="yes"/>
      <point x="378" y="517"/>
      <point x="325" y="565"/>
      <point x="242" y="565" type="curve" smooth="yes"/>
      <point x="196" y="565"/>
      <point x="149" y="547"/>
      <point x="124" y="537" type="curve"/>
      <point x="124" y="713" type="line"/>
    </contour>
    <contour>
      <point x="328" y="432" type="curve" smooth="yes"/>
      <point x="328" y="150" type="line" smooth="yes"/>
      <point x="328" y="81"/>
      <point x="290" y="45"/>
      <point x="221" y="45" type="curve" smooth="yes"/>
      <point x="125" y="45" type="line"/>
      <point x="125" y="489" type="line"/>
      <point x="163" y="507"/>
      <point x="200" y="519"/>
      <point x="242" y="519" type="curve" smooth="yes"/>
      <point x="295" y="519"/>
      <point x="328" y="492"/>
    </contour>
  </outline>
</glyph>
<glyph name="dcaron" format="1">
  <advance width="443"/>
  <unicode hex="010F"/>
  <outline>
    <contour>
      <point x="318" y="713" type="line"/>
      <point x="318" y="563" type="line"/>
      <point x="211" y="563" type="line"/>
      <point x="129" y="563"/>
      <point x="65" y="515"/>
      <point x="65" y="421" type="curve"/>
      <point x="65" y="142" type="line" smooth="yes"/>
      <point x="65" y="49"/>
      <point x="114" y="-3"/>
      <point x="209" y="-3" type="curve"/>
      <point x="266" y="-3"/>
      <point x="297" y="14"/>
      <point x="319" y="31" type="curve"/>
      <point x="319" y="0" type="line"/>
      <point x="368" y="0" type="line"/>
      <point x="368" y="713" type="line"/>
    </contour>
    <contour>
      <point x="318" y="82" type="line"/>
      <point x="298" y="62"/>
      <point x="262" y="42"/>
      <point x="210" y="42" type="curve"/>
      <point x="147" y="42"/>
      <point x="115" y="74"/>
      <point x="115" y="141" type="curve" smooth="yes"/>
      <point x="115" y="421" type="line" smooth="yes"/>
      <point x="115" y="485"/>
      <point x="153" y="517"/>
      <point x="223" y="517" type="curve" smooth="yes"/>
      <point x="318" y="517" type="line"/>
    </contour>
    <contour>
      <point x="436" y="711" type="line"/>
      <point x="409" y="598" type="line"/>
      <point x="440" y="598" type="line"/>
      <point x="453" y="618"/>
      <point x="484" y="668"/>
      <point x="484" y="687" type="curve" smooth="yes"/>
      <point x="484" y="704"/>
      <point x="472" y="711"/>
      <point x="459" y="711" type="curve" smooth="yes"/>
    </contour>
  </outline>
</glyph>
<glyph name="dcroat" format="1">
  <advance width="443"/>
  <unicode hex="0111"/>
  <outline>
    <contour>
      <point x="195" y="666" type="line"/>
      <point x="195" y="625" type="line"/>
      <point x="408" y="625" type="line"/>
      <point x="408" y="666" type="line"/>
    </contour>
    <component base="d"/>
  </outline>
</glyph>
<glyph name="Gcommaaccent" format="1">
  <advance width="443"/>
  <unicode hex="0122"/>
  <outline>
    <contour>
      <point x="65" y="530" type="curve" smooth="yes"/>
      <point x="65" y="130" type="line" smooth="yes"/>
      <point x="65" y="28"/>
      <point x="136" y="-5"/>
      <point x="218" y="-5" type="curve" smooth="yes"/>
      <point x="306" y="-5"/>
      <point x="346" y="18"/>
      <point x="373" y="34" type="curve"/>
      <point x="373" y="319" type="line"/>
      <point x="323" y="319" type="line"/>
      <point x="323" y="64" type="line"/>
      <point x="313" y="57"/>
      <point x="274" y="40"/>
      <point x="218" y="40" type="curve" smooth="yes"/>
      <point x="155" y="40"/>
      <point x="115" y="64"/>
      <point x="115" y="130" type="curve" smooth="yes"/>
      <point x="115" y="530" type="line" smooth="yes"/>
      <point x="115" y="590"/>
      <point x="145" y="625"/>
      <point x="240" y="625" type="curve" smooth="yes"/>
      <point x="285" y="625"/>
      <point x="324" y="616"/>
      <point x="355" y="606" type="curve"/>
      <point x="355" y="655" type="line"/>
      <point x="327" y="663"/>
      <point x="285" y="671"/>
      <point x="239" y="671" type="curve" smooth="yes"/>
      <point x="112" y="671"/>
      <point x="65" y="614"/>
    </contour>
    <contour>
      <point x="212" y="-61" type="line"/>
      <point x="185" y="-174" type="line"/>
      <point x="216" y="-174" type="line"/>
      <point x="229" y="-154"/>
      <point x="260" y="-104"/>
      <point x="260" y="-85" type="curve" smooth="yes"/>
      <point x="260" y="-68"/>
      <point x="248" y="-61"/>
      <point x="235" y="-61" type="curve" smooth="yes"/>
    </contour>
  </outline>
</glyph>
<glyph name="Kcommaaccent" format="1">
  <advance width="419"/>
  <unicode hex="0136"/>
  <outline>
    <contour>
      <point x="337" y="666" type="line"/>
      <point x="192" y="330" type="line"/>
      <point x="343" y="0" type="line"/>
      <point x="399" y="0" type="line"/>
      <point x="247" y="332" type="line"/>
      <point x="392" y="666" type="line"/>
    </contour>
    <contour>
      <point x="75" y="666" type="line"/>
      <point x="75" y="0" type="line"/>
      <point x="125" y="0" type="line"/>
      <point x="125" y="666" type="line"/>
    </contour>
    <contour>
      <point x="203" y="-61" type="line"/>
      <point x="176" y="-174" type="line"/>
      <point x="207" y="-174" type="line"/>
      <point x="220" y="-154"/>
      <point x="251" y="-104"/>
      <point x="251" y="-85" type="curve" smooth="yes"/>
      <point x="251" y="-68"/>
      <point x="239" y="-61"/>
      <point x="226" y="-61" type="curve" smooth="yes"/>
    </contour>
  </outline>
</glyph>
<glyph name="Lcommaaccent" format="1">
  <advance width="339"/>
  <unicode hex="013B"/>
  <outline>
    <contour>
      <point x="75" y="666" type="line"/>
      <point x="75" y="0" type="line"/>
      <point x="334" y="0" type="line"/>
      <point x="334" y="45" type="line"/>
      <point x="125" y="45" type="line"/>
      <point x="125" y="666" type="line"/>
    </contour>
    <contour>
      <point x="183" y="-61" type="line"/>
      <point x="156" y="-174" type="line"/>
      <point x="187" y="-174" type="line"/>
      <point x="200" y="-154"/>
      <point x="231" y="-104"/>
      <point x="231" y="-85" type="curve" smooth="yes"/>
      <point x="231" y="-68"/>
      <point x="219" y="-61"/>
      <point x="206" y="-61" type="curve" smooth="yes"/>
    </contour>
  </outline>
</glyph>
<glyph name="lcaron" format="1">
  <advance width="200"/>
  <unicode hex="013E"/>
  <outline>
    <contour>
      <point x="75" y="713" type="line"/>
      <point x="75" y="0" type="line"/>
      <point x="125" y="0" type="line"/>
      <point x="125" y="713" type="line"/>
    </contour>
    <contour>
      <point x="194" y="711" type="line"/>
      <point x="167" y="598" type="line"/>
      <point x="198" y="598" type="line"/>
      <point x="211" y="618"/>
      <point x="242" y="668"/>
      <point x="242" y="687" type="curve" smooth="yes"/>
      <point x="242" y="704"/>
      <point x="230" y="711"/>
      <point x="217" y="711" type="curve" smooth="yes"/>
    </contour>
  </outline>
</glyph>
<glyph name="OE" format="1">
  <advance width="659"/>
  <unicode hex="0152"/>
  <outline>
    <contour>
      <point x="244" y="666" type="line"/>
      <point x="134" y="666"/>
      <point x="85" y="602"/>
      <point x="85" y="516" type="curve" smooth="yes"/>
      <point x="85" y="150" type="line" smooth="yes"/>
      <point x="85" y="64"/>
      <point x="134" y="0"/>
      <point x="244" y="0" type="curve" smooth="yes"/>
      <point x="363" y="0" type="line"/>
      <point x="363" y="45" type="line"/>
      <point x="244" y="45" type="line" smooth="yes"/>
      <point x="165" y="45"/>
      <point x="135" y="86"/>
      <point x="135" y="150" type="curve" smooth="yes"/>
      <point x="135" y="516" type="line" smooth="yes"/>
      <point x="135" y="580"/>
      <point x="165" y="621"/>
      <point x="244" y="621" type="curve" smooth="yes"/>
      <point x="373" y="621" type="line"/>
      <point x="373" y="666" type="line"/>
    </contour>
    <component base="E" xOffset="278"/>
  </outline>
</glyph>
<glyph name="oe" format="1">
  <advance width="710"/>
  <unicode hex="0153"/>
  <outline>
    <contour>
      <point x="75" y="420" type="curve" smooth="yes"/>
      <point x="75" y="143" type="line" smooth="yes"/>
      <point x="75" y="57"/>
      <point x="120" y="-10"/>
      <point x="230" y="-10" type="curve" smooth="yes"/>
      <point x="340" y="-10"/>
      <point x="385" y="57"/>
      <point x="385" y="143" type="curve" smooth="yes"/>
      <point x="385" y="420" type="line" smooth="yes"/>
      <point x="385" y="506"/>
      <point x="340" y="573"/>
      <point x="230" y="573" type="curve" smooth="yes"/>
      <point x="120" y="573"/>
      <point x="75" y="506"/>
    </contour>
    <contour>
      <point x="335" y="420" type="curve" smooth="yes"/>
      <point x="335" y="143" type="line" smooth="yes"/>
      <point x="335" y="79"/>
      <point x="309" y="35"/>
      <point x="230" y="35" type="curve" smooth="yes"/>
      <point x="151" y="35"/>
      <point x="125" y="79"/>
      <point x="125" y="143" type="curve" smooth="yes"/>
      <point x="125" y="420" type="line" smooth="yes"/>
      <point x="125" y="484"/>
      <point x="151" y="528"/>
      <point x="230" y="528" type="curve" smooth="yes"/>
      <point x="309" y="528"/>
      <point x="335" y="484"/>
    </contour>
    <component base="e" xOffset="270"/>
  </outline>
</glyph>
<glyph name="Rcommaaccent" format="1">
  <advance width="450"/>
  <unicode hex="0156"/>
  <outline>
    <contour>
      <point x="75" y="666" type="line"/>
      <point x="75" y="0" type="line"/>
      <point x="125" y="0" type="line"/>
      <point x="125" y="275" type="line"/>
      <point x="222" y="275" type="line" smooth="yes"/>
      <point x="332" y="275"/>
      <point x="381" y="339"/>
      <point x="381" y="425" type="curve" smooth="yes"/>
      <point x="381" y="516" type="line" smooth="yes"/>
      <point x="381" y="602"/>
      <point x="332" y="666"/>
      <point x="222" y="666" type="curve" smooth="yes"/>
    </contour>
    <contour>
      <point x="238" y="297" type="line"/>
      <point x="345" y="0" type="line"/>
      <point x="400" y="0" type="line"/>
      <point x="291" y="297" type="line"/>
    </contour>
    <contour>
      <point x="331" y="516" type="curve" smooth="yes"/>
      <point x="331" y="425" type="line" smooth="yes"/>
      <point x="331" y="361"/>
      <point x="301" y="322"/>
      <point x="222" y="322" type="curve" smooth="yes"/>
      <point x="125" y="322" type="line"/>
      <point x="125" y="621" type="line"/>
      <point x="222" y="621" type="line" smooth="yes"/>
      <point x="301" y="621"/>
      <point x="331" y="580"/>
    </contour>
    <contour>
      <point x="200" y="-61" type="line"/>
      <point x="173" y="-174" type="line"/>
      <point x="204" y="-174" type="line"/>
      <point x="217" y="-154"/>
      <point x="248" y="-104"/>
      <point x="248" y="-85" type="curve" smooth="yes"/>
      <point x="248" y="-68"/>
      <point x="236" y="-61"/>
      <point x="223" y="-61" type="curve" smooth="yes"/>
    </contour>
  </outline>
</glyph>
<glyph name="rcommaaccent" format="1">
  <advance width="272"/>
  <unicode hex="0157"/>
  <outline>
    <contour>
      <point x="240" y="566" type="line"/>
      <point x="180" y="566"/>
      <point x="161" y="546"/>
      <point x="124" y="519" type="curve"/>
      <point x="124" y="563" type="line"/>
      <point x="75" y="563" type="line"/>
      <point x="75" y="0" type="line"/>
      <point x="125" y="0" type="line"/>
      <point x="125" y="465" type="line"/>
      <point x="175" y="501"/>
      <point x="189" y="517"/>
      <point x="231" y="517" type="curve"/>
      <point x="267" y="517" type="line"/>
      <point x="267" y="566" type="line"/>
    </contour>
    <contour>
      <point x="79" y="-61" type="line"/>
      <point x="52" y="-174" type="line"/>
      <point x="83" y="-174" type="line"/>
      <point x="96" y="-154"/>
      <point x="127" y="-104"/>
      <point x="127" y="-85" type="curve" smooth="yes"/>
      <point x="127" y="-68"/>
      <point x="115" y="-61"/>
      <point x="102" y="-61" type="curve" smooth="yes"/>
    </contour>
  </outline>
</glyph>
<glyph name="scedilla" format="1">
  <advance width="354"/>
  <unicode hex="015F"/>
  <outline>
    <contour>
      <point x="30" y="435" type="curve" smooth="yes"/>
      <point x="30" y="399" type="line" smooth="yes"/>
      <point x="30" y="334"/>
      <point x="60" y="297"/>
      <point x="117" y="273" type="curve" smooth="yes"/>
      <point x="208" y="233" type="line" smooth="yes"/>
      <point x="261" y="210"/>
      <point x="274" y="192"/>
      <point x="274" y="151" type="curve" smooth="yes"/>
      <point x="274" y="128" type="line" smooth="yes"/>
      <point x="274" y="73"/>
      <point x="245" y="41"/>
      <point x="152" y="41" type="curve" smooth="yes"/>
      <point x="104" y="41"/>
      <point x="66" y="49"/>
      <point x="35" y="60" type="curve"/>
      <point x="35" y="12" type="line"/>
      <point x="63" y="3"/>
      <point x="101" y="-5"/>
      <point x="152" y="-5" type="curve" smooth="yes"/>
      <point x="269" y="-5"/>
      <point x="324" y="42"/>
      <point x="324" y="128" type="curve" smooth="yes"/>
      <point x="324" y="155" type="line"/>
      <point x="324" y="216"/>
      <point x="288" y="249"/>
      <point x="231" y="275" type="curve" smooth="yes"/>
      <point x="144" y="314" type="line" smooth="yes"/>
      <point x="97" y="334"/>
      <point x="80" y="353"/>
      <point x="80" y="405" type="curve" smooth="yes"/>
      <point x="80" y="435" type="line" smooth="yes"/>
      <point x="80" y="493"/>
      <point x="98" y="522"/>
      <point x="191" y="522" type="curve" smooth="yes"/>
      <point x="232" y="522"/>
      <point x="268" y="514"/>
      <point x="299" y="503" type="curve"/>
      <point x="299" y="551" type="line"/>
      <point x="271" y="560"/>
      <point x="232" y="568"/>
      <point x="191" y="568" type="curve" smooth="yes"/>
      <point x="74" y="568"/>
      <point x="30" y="522"/>
    </contour>
    <contour>
      <point x="149" y="-61" type="line"/>
      <point x="122" y="-174" type="line"/>
      <point x="153" y="-174" type="line"/>
      <point x="166" y="-154"/>
      <point x="197" y="-104"/>
      <point x="197" y="-85" type="curve" smooth="yes"/>
      <point x="197" y="-68"/>
      <point x="185" y="-61"/>
      <point x="172" y="-61" type="curve" smooth="yes"/>
    </contour>
  </outline>
</glyph>
<glyph name="tcedilla" format="1">
  <advance width="283"/>
  <unicode hex="0163"/>
  <outline>
    <contour>
      <point x="85" y="667" type="line"/>
      <point x="71" y="563" type="line"/>
      <point x="5" y="563" type="line"/>
      <point x="5" y="518" type="line"/>
      <point x="70" y="518" type="line"/>
      <point x="70" y="116" type="line" smooth="yes"/>
      <point x="70" y="38"/>
      <point x="115" y="-3"/>
      <point x="197" y="-3" type="curve" smooth="yes"/>
      <point x="223" y="-3"/>
      <point x="258" y="3"/>
      <point x="268" y="6" type="curve"/>
      <point x="268" y="52" type="line"/>
      <point x="257" y="48"/>
      <point x="224" y="42"/>
      <point x="197" y="42" type="curve" smooth="yes"/>
      <point x="147" y="42"/>
      <point x="120" y="61"/>
      <point x="120" y="116" type="curve" smooth="yes"/>
      <point x="120" y="518" type="line"/>
      <point x="257" y="518" type="line"/>
      <point x="257" y="563" type="line"/>
      <point x="120" y="563" type="line"/>
      <point x="120" y="667" type="line"/>
    </contour>
    <contour>
      <point x="149" y="-61" type="line"/>
      <point x="122" y="-174" type="line"/>
      <point x="153" y="-174" type="line"/>
      <point x="166" y="-154"/>
      <point x="197" y="-104"/>
      <point x="197" y="-85" type="curve" smooth="yes"/>
      <point x="197" y="-68"/>
      <point x="185" y="-61"/>
      <point x="172" y="-61" type="curve" smooth="yes"/>
    </contour>
  </outline>
</glyph>
<glyph name="Tcommaaccent" format="1">
  <advance width="334"/>
  <unicode hex="021A"/>
  <outline>
    <contour>
      <point x="142" y="666" type="line"/>
      <point x="142" y="0" type="line"/>
      <point x="192" y="0" type="line"/>
      <point x="192" y="666" type="line"/>
    </contour>
    <contour>
      <point x="10" y="666" type="line"/>
      <point x="10" y="621" type="line"/>
      <point x="324" y="621" type="line"/>
      <point x="324" y="666" type="line"/>
    </contour>
    <contour>
      <point x="142" y="-61" type="line"/>
      <point x="115" y="-174" type="line"/>
      <point x="146" y="-174" type="line"/>
      <point x="159" y="-154"/>
      <point x="190" y="-104"/>
      <point x="190" y="-85" type="curve" smooth="yes"/>
      <point x="190" y="-68"/>
      <point x="178" y="-61"/>
      <point x="165" y="-61" type="curve" smooth="yes"/>
    </contour>
  </outline>
</glyph>
<glyph name="breve" format="1">
  <advance width="350"/>
  <unicode hex="02D8"/>
  <outline>
    <contour>
      <point x="239" y="713" type="line"/>
      <point x="238" y="674"/>
      <point x="215" y="648"/>
      <point x="175" y="648" type="curve" smooth="yes"/>
      <point x="135" y="648"/>
      <point x="112" y="674"/>
      <point x="111" y="713" type="curve"/>
      <point x="68" y="713" type="line"/>
      <point x="70" y="655"/>
      <point x="106" y="608"/>
      <point x="175" y="608" type="curve" smooth="yes"/>
      <point x="244" y="608"/>
      <point x="280" y="655"/>
      <point x="282" y="713" type="curve"/>
    </contour>
  </outline>
</glyph>
<glyph name="dotaccent" format="1">
  <advance width="350"/>
  <unicode hex="02D9"/>
  <outline>
    <contour>
      <point x="140" y="688" type="curve" smooth="yes"/>
      <point x="140" y="669"/>
      <point x="149" y="655"/>
      <point x="173" y="655" type="curve" smooth="yes"/>
      <point x="197" y="655"/>
      <point x="206" y="669"/>
      <point x="206" y="688" type="curve" smooth="yes"/>
      <point x="206" y="707"/>
      <point x="197" y="721"/>
      <point x="173" y="721" type="curve" smooth="yes"/>
      <point x="149" y="721"/>
      <point x="140" y="707"/>
    </contour>
  </outline>
</glyph>
<glyph name="ring" format="1">
  <advance width="350"/>
  <unicode hex="02DA"/>
  <outline>
    <contour>
      <point x="103" y="661" type="curve" smooth="yes"/>
      <point x="103" y="622"/>
      <point x="129" y="590"/>
      <point x="175" y="590" type="curve" smooth="yes"/>
      <point x="222" y="590"/>
      <point x="247" y="622"/>
      <point x="247" y="661" type="curve" smooth="yes"/>
      <point x="247" y="700"/>
      <point x="222" y="731"/>
      <point x="175" y="731" type="curve" smooth="yes"/>
      <point x="129" y="731"/>
      <point x="103" y="700"/>
    </contour>
    <contour>
      <point x="212" y="661" type="curve" smooth="yes"/>
      <point x="212" y="638"/>
      <point x="198" y="623"/>
      <point x="175" y="623" type="curve" smooth="yes"/>
      <point x="152" y="623"/>
      <point x="138" y="638"/>
      <point x="138" y="661" type="curve" smooth="yes"/>
      <point x="138" y="683"/>
      <point x="152" y="698"/>
      <point x="175" y="698" type="curve" smooth="yes"/>
      <point x="198" y="698"/>
      <point x="212" y="683"/>
    </contour>
  </outline>
</glyph>
<glyph name="ogonek" format="1">
  <advance width="350"/>
  <unicode hex="02DB"/>
  <outline>
    <contour>
      <point x="188" y="0" type="line"/>
      <point x="154" y="-26"/>
      <point x="130" y="-66"/>
      <point x="130" y="-105" type="curve" smooth="yes"/>
      <point x="130" y="-148"/>
      <point x="156" y="-170"/>
      <point x="208" y="-170" type="curve" smooth="yes"/>
      <point x="220" y="-170" type="line"/>
      <point x="220" y="-128" type="line"/>
      <point x="208" y="-128" type="line" smooth="yes"/>
      <point x="182" y="-128"/>
      <point x="169" y="-119"/>
      <point x="169" y="-92" type="curve" smooth="yes"/>
      <point x="169" y="-60"/>
      <point x="188" y="-24"/>
      <point x="220" y="0" type="curve"/>
    </contour>
  </outline>
</glyph>
<glyph name="pi" format="1">
  <advance width="448"/>
  <unicode hex="03C0"/>
  <outline>
    <contour>
      <point x="74" y="563" type="line"/>
      <point x="75" y="0" type="line"/>
      <point x="125" y="0" type="line"/>
      <point x="125" y="518" type="line"/>
      <point x="328" y="518" type="line"/>
      <point x="328" y="0" type="line"/>
      <point x="378" y="0" type="line"/>
      <point x="378" y="518" type="line"/>
      <point x="448" y="518" type="line"/>
      <point x="448" y="563" type="line"/>
    </contour>
  </outline>
</glyph>
<glyph name="dvVisarga" format="1">
  <advance width="188"/>
  <unicode hex="0903"/>
  <outline>
    <contour>
      <point x="42" y="376" type="curve" smooth="yes"/>
      <point x="42" y="357"/>
      <point x="51" y="343"/>
      <point x="75" y="343" type="curve" smooth="yes"/>
      <point x="99" y="343"/>
      <point x="108" y="357"/>
      <point x="108" y="376" type="curve" smooth="yes"/>
      <point x="108" y="395"/>
      <point x="99" y="409"/>
      <point x="75" y="409" type="curve" smooth="yes"/>
      <point x="51" y="409"/>
      <point x="42" y="395"/>
    </contour>
    <contour>
      <point x="42" y="33" type="curve" smooth="yes"/>
      <point x="42" y="14"/>
      <point x="51" y="0"/>
      <point x="75" y="0" type="curve" smooth="yes"/>
      <point x="99" y="0"/>
      <point x="108" y="14"/>
      <point x="108" y="33" type="curve" smooth="yes"/>
      <point x="108" y="52"/>
      <point x="99" y="66"/>
      <point x="75" y="66" type="curve" smooth="yes"/>
      <point x="51" y="66"/>
      <point x="42" y="52"/>
    </contour>
  </outline>
</glyph>
<glyph name="dvA" format="1">
  <advance width="550"/>
  <unicode hex="0905"/>
  <outline>
    <contour>
      <point x="250" y="160" type="line"/>
      <point x="250" y="111"/>
      <point x="222" y="76"/>
      <point x="149" y="76" type="curve" smooth="yes"/>
      <point x="107" y="76"/>
      <point x="67" y="84"/>
      <point x="35" y="93" type="curve"/>
      <point x="35" y="49" type="line"/>
      <point x="70" y="40"/>
      <point x="107" y="34"/>
      <point x="149" y="34" type="curve" smooth="yes"/>
      <point x="244" y="34"/>
      <point x="295" y="82"/>
      <point x="295" y="160" type="curve"/>
      <point x="295" y="240" type="line" smooth="yes"/>
      <point x="295" y="285"/>
      <point x="285" y="329"/>
      <point x="241" y="346" type="curve"/>
      <point x="284" y="361"/>
      <point x="295" y="407"/>
      <point x="295" y="452" type="curve" smooth="yes"/>
      <point x="295" y="523" type="line" smooth="yes"/>
      <point x="295" y="601"/>
      <point x="244" y="649"/>
      <point x="149" y="649" type="curve" smooth="yes"/>
      <point x="103" y="649"/>
      <point x="70" y="642"/>
      <point x="45" y="634" type="curve"/>
      <point x="45" y="588" type="line"/>
      <point x="73" y="598"/>
      <point x="106" y="607"/>
      <point x="149" y="607" type="curve" smooth="yes"/>
      <point x="222" y="607"/>
      <point x="250" y="572"/>
      <point x="250" y="523" type="curve" smooth="yes"/>
      <point x="250" y="452" type="line" smooth="yes"/>
      <point x="250" y="407"/>
      <point x="240" y="368"/>
      <point x="159" y="367" type="curve" smooth="yes"/>
      <point x="98" y="367" type="line"/>
      <point x="98" y="325" type="line"/>
      <point x="159" y="325" type="line" smooth="yes"/>
      <point x="240" y="324"/>
      <point x="250" y="285"/>
      <point x="250" y="240" type="curve" smooth="yes"/>
    </contour>
    <contour>
      <point x="425" y="644" type="line"/>
      <point x="425" y="0" type="line"/>
      <point x="470" y="0" type="line"/>
      <point x="470" y="604" type="line"/>
      <point x="570" y="604" type="line"/>
      <point x="570" y="644" type="line"/>
    </contour>
    <contour>
      <point x="267" y="213" type="line"/>
      <point x="428" y="213" type="line"/>
      <point x="428" y="253" type="line"/>
      <point x="267" y="253" type="line"/>
    </contour>
  </outline>
</glyph>
<glyph name="dvII" format="1">
  <advance width="393"/>
  <unicode hex="0908"/>
  <outline>
    <contour>
      <point x="313" y="644" type="line"/>
      <point x="296" y="677"/>
      <point x="275" y="726"/>
      <point x="275" y="761" type="curve" smooth="yes"/>
      <point x="275" y="818"/>
      <point x="315" y="836"/>
      <point x="361" y="836" type="curve" smooth="yes"/>
      <point x="373" y="836"/>
      <point x="386" y="835"/>
      <point x="399" y="833" type="curve"/>
      <point x="399" y="873" type="line"/>
      <point x="385" y="875"/>
      <point x="371" y="877"/>
      <point x="357" y="877" type="curve" smooth="yes"/>
      <point x="291" y="877"/>
      <point x="230" y="845"/>
      <point x="230" y="761" type="curve" smooth="yes"/>
      <point x="230" y="719"/>
      <point x="248" y="678"/>
      <point x="267" y="644" type="curve"/>
    </contour>
    <contour>
      <point x="97" y="171" type="line"/>
      <point x="55" y="171" type="line"/>
      <point x="55" y="-61" type="line"/>
      <point x="97" y="-61" type="line"/>
      <point x="97" y="44" type="line"/>
      <point x="125" y="38"/>
      <point x="157" y="35"/>
      <point x="195" y="35" type="curve" smooth="yes"/>
      <point x="301" y="35"/>
      <point x="347" y="73"/>
      <point x="347" y="151" type="curve" smooth="yes"/>
      <point x="347" y="193" type="line" smooth="yes"/>
      <point x="347" y="268"/>
      <point x="302" y="309"/>
      <point x="207" y="309" type="curve" smooth="yes"/>
      <point x="185" y="309" type="line" smooth="yes"/>
      <point x="110" y="309"/>
      <point x="90" y="338"/>
      <point x="90" y="383" type="curve" smooth="yes"/>
      <point x="90" y="389" type="line" smooth="yes"/>
      <point x="90" y="434"/>
      <point x="110" y="462"/>
      <point x="185" y="462" type="curve" smooth="yes"/>
      <point x="318" y="462" type="line"/>
      <point x="318" y="604" type="line"/>
      <point x="413" y="604" type="line"/>
      <point x="413" y="644" type="line"/>
      <point x="-20" y="644" type="line"/>
      <point x="-20" y="604" type="line"/>
      <point x="273" y="604" type="line"/>
      <point x="273" y="504" type="line"/>
      <point x="185" y="504" type="line" smooth="yes"/>
      <point x="90" y="504"/>
      <point x="45" y="464"/>
      <point x="45" y="389" type="curve" smooth="yes"/>
      <point x="45" y="383" type="line" smooth="yes"/>
      <point x="45" y="308"/>
      <point x="90" y="267"/>
      <point x="185" y="267" type="curve" smooth="yes"/>
      <point x="207" y="267" type="line" smooth="yes"/>
      <point x="282" y="267"/>
      <point x="302" y="238"/>
      <point x="302" y="193" type="curve" smooth="yes"/>
      <point x="302" y="151" type="line" smooth="yes"/>
      <point x="302" y="103"/>
      <point x="270" y="77"/>
      <point x="195" y="77" type="curve" smooth="yes"/>
      <point x="156" y="77"/>
      <point x="127" y="79"/>
      <point x="97" y="85" type="curve"/>
    </contour>
  </outline>
</glyph>
<glyph name="dvUU" format="1">
  <advance width="557"/>
  <unicode hex="090A"/>
  <outline>
    <contour>
      <point x="283" y="644" type="move" name="abvm.bindu"/>
    </contour>
    <contour>
      <point x="377" y="-1" type="line"/>
      <point x="395" y="-1" type="line" smooth="yes"/>
      <point x="477" y="-1"/>
      <point x="517" y="45"/>
      <point x="517" y="115" type="curve" smooth="yes"/>
      <point x="517" y="218" type="line" smooth="yes"/>
      <point x="517" y="293"/>
      <point x="472" y="344"/>
      <point x="377" y="344" type="curve" smooth="yes"/>
      <point x="323" y="344"/>
      <point x="256" y="333"/>
      <point x="256" y="333" type="curve"/>
      <point x="258" y="302" type="line"/>
      <point x="377" y="302" type="line" smooth="yes"/>
      <point x="450" y="302"/>
      <point x="472" y="263"/>
      <point x="472" y="218" type="curve" smooth="yes"/>
      <point x="472" y="115" type="line" smooth="yes"/>
      <point x="472" y="71"/>
      <point x="453" y="41"/>
      <point x="384" y="41" type="curve"/>
      <point x="377" y="41" type="line"/>
    </contour>
    <contour>
      <point x="323" y="232" type="line"/>
      <point x="323" y="277"/>
      <point x="311" y="325"/>
      <point x="269" y="338" type="curve"/>
      <point x="310" y="349"/>
      <point x="323" y="399"/>
      <point x="323" y="444" type="curve" smooth="yes"/>
      <point x="323" y="531" type="line" smooth="yes"/>
      <point x="323" y="584"/>
      <point x="312" y="604"/>
      <point x="312" y="604" type="curve"/>
      <point x="577" y="604" type="line"/>
      <point x="577" y="644" type="line"/>
      <point x="-20" y="644" type="line"/>
      <point x="-20" y="604" type="line"/>
      <point x="264" y="604" type="line"/>
      <point x="264" y="604"/>
      <point x="278" y="579"/>
      <point x="278" y="530" type="curve" smooth="yes"/>
      <point x="278" y="444" type="line" smooth="yes"/>
      <point x="278" y="399"/>
      <point x="268" y="360"/>
      <point x="187" y="359" type="curve" smooth="yes"/>
      <point x="126" y="359" type="line"/>
      <point x="126" y="317" type="line"/>
      <point x="187" y="317" type="line" smooth="yes"/>
      <point x="268" y="316"/>
      <point x="278" y="277"/>
      <point x="278" y="232" type="curve" smooth="yes"/>
      <point x="278" y="123" type="line" smooth="yes"/>
      <point x="278" y="71"/>
      <point x="247" y="39"/>
      <point x="154" y="39" type="curve" smooth="yes"/>
      <point x="116" y="39"/>
      <point x="84" y="47"/>
      <point x="50" y="59" type="curve"/>
      <point x="50" y="13" type="line"/>
      <point x="83" y="3"/>
      <point x="112" y="-3"/>
      <point x="154" y="-3" type="curve" smooth="yes"/>
      <point x="269" y="-3"/>
      <point x="323" y="42"/>
      <point x="323" y="123" type="curve" smooth="yes"/>
    </contour>
  </outline>
</glyph>
<glyph name="dvNGA" format="1">
  <advance width="420"/>
  <unicode hex="0919"/>
  <outline>
    <contour>
      <point x="224" y="-61" type="move" name="blwm.u"/>
    </contour>
    <contour>
      <point x="224" y="-5" type="move" name="blwm.virama"/>
    </contour>
    <contour>
      <point x="323" y="644" type="move" name="abvm.e"/>
    </contour>
    <contour>
      <point x="323" y="644" type="move" name="abvm.bindu"/>
    </contour>
    <contour>
      <point x="352" y="169" type="line"/>
      <point x="352" y="244"/>
      <point x="307" y="285"/>
      <point x="212" y="285" type="curve" smooth="yes"/>
      <point x="195" y="285" type="line" smooth="yes"/>
      <point x="120" y="285"/>
      <point x="100" y="314"/>
      <point x="100" y="359" type="curve" smooth="yes"/>
      <point x="100" y="390" type="line" smooth="yes"/>
      <point x="100" y="435"/>
      <point x="120" y="463"/>
      <point x="195" y="463" type="curve" smooth="yes"/>
      <point x="323" y="463" type="line"/>
      <point x="323" y="604" type="line"/>
      <point x="440" y="604" type="line"/>
      <point x="440" y="644" type="line"/>
      <point x="-20" y="644" type="line"/>
      <point x="-20" y="604" type="line"/>
      <point x="278" y="604" type="line"/>
      <point x="278" y="505" type="line"/>
      <point x="195" y="505" type="line" smooth="yes"/>
      <point x="100" y="505"/>
      <point x="55" y="465"/>
      <point x="55" y="390" type="curve" smooth="yes"/>
      <point x="55" y="359" type="line" smooth="yes"/>
      <point x="55" y="284"/>
      <point x="100" y="243"/>
      <point x="195" y="243" type="curve" smooth="yes"/>
      <point x="212" y="243" type="line" smooth="yes"/>
      <point x="287" y="243"/>
      <point x="307" y="214"/>
      <point x="307" y="169" type="curve" smooth="yes"/>
      <point x="307" y="116" type="line" smooth="yes"/>
      <point x="307" y="62"/>
      <point x="268" y="37"/>
      <point x="193" y="37" type="curve" smooth="yes"/>
      <point x="142" y="37"/>
      <point x="92" y="43"/>
      <point x="56" y="52" type="curve"/>
      <point x="56" y="10" type="line"/>
      <point x="95" y="1"/>
      <point x="139" y="-5"/>
      <point x="193" y="-5" type="curve" smooth="yes"/>
      <point x="299" y="-5"/>
      <point x="352" y="38"/>
      <point x="352" y="116" type="curve"/>
    </contour>
    <contour>
      <point x="359" y="364" type="curve" smooth="yes"/>
      <point x="359" y="345"/>
      <point x="368" y="331"/>
      <point x="392" y="331" type="curve" smooth="yes"/>
      <point x="416" y="331"/>
      <point x="425" y="345"/>
      <point x="425" y="364" type="curve" smooth="yes"/>
      <point x="425" y="383"/>
      <point x="416" y="397"/>
      <point x="392" y="397" type="curve" smooth="yes"/>
      <point x="368" y="397"/>
      <point x="359" y="383"/>
    </contour>
  </outline>
</glyph>
<glyph name="dvCA" format="1">
  <advance width="455"/>
  <unicode hex="091A"/>
  <outline>
    <contour>
      <point x="140" y="344" type="line"/>
      <point x="140" y="406"/>
      <point x="150" y="439"/>
      <point x="150" y="439" type="curve"/>
      <point x="271" y="439" type="line"/>
      <point x="271" y="479" type="line"/>
      <point x="12" y="479" type="line"/>
      <point x="12" y="439" type="line"/>
      <point x="105" y="439" type="line"/>
      <point x="105" y="439"/>
      <point x="95" y="407"/>
      <point x="95" y="344" type="curve"/>
      <point x="95" y="187" type="line"/>
      <point x="95" y="111"/>
      <point x="138" y="64"/>
      <point x="237" y="64" type="curve"/>
      <point x="275" y="64"/>
      <point x="305" y="70"/>
      <point x="330" y="79" type="curve"/>
      <point x="330" y="0" type="line"/>
      <point x="375" y="0" type="line"/>
      <point x="375" y="604" type="line"/>
      <point x="475" y="604" type="line"/>
      <point x="475" y="644" type="line"/>
      <point x="-20" y="644" type="line"/>
      <point x="-20" y="604" type="line"/>
      <point x="330" y="604" type="line"/>
      <point x="330" y="121" type="line"/>
      <point x="297" y="110"/>
      <point x="272" y="106"/>
      <point x="237" y="106" type="curve"/>
      <point x="164" y="106"/>
      <point x="140" y="135"/>
      <point x="140" y="187" type="curve" smooth="yes"/>
    </contour>
  </outline>
</glyph>
<glyph name="dvJA" format="1">
  <advance width="540"/>
  <unicode hex="091C"/>
  <outline>
    <contour>
      <point x="265" y="364" type="line"/>
      <point x="265" y="414"/>
      <point x="257" y="439"/>
      <point x="257" y="439" type="curve"/>
      <point x="415" y="439" type="line"/>
      <point x="415" y="0" type="line"/>
      <point x="460" y="0" type="line"/>
      <point x="460" y="604" type="line"/>
      <point x="560" y="604" type="line"/>
      <point x="560" y="644" type="line"/>
      <point x="-20" y="644" type="line"/>
      <point x="-20" y="604" type="line"/>
      <point x="415" y="604" type="line"/>
      <point x="415" y="479" type="line"/>
      <point x="99" y="479" type="line"/>
      <point x="99" y="439" type="line"/>
      <point x="212" y="439" type="line"/>
      <point x="212" y="439"/>
      <point x="220" y="411"/>
      <point x="220" y="364" type="curve" smooth="yes"/>
      <point x="220" y="167" type="line" smooth="yes"/>
      <point x="220" y="118"/>
      <point x="195" y="83"/>
      <point x="122" y="83" type="curve" smooth="yes"/>
      <point x="85" y="83"/>
      <point x="56" y="88"/>
      <point x="28" y="96" type="curve"/>
      <point x="28" y="53" type="line"/>
      <point x="53" y="46"/>
      <point x="77" y="41"/>
      <point x="122" y="41" type="curve" smooth="yes"/>
      <point x="217" y="41"/>
      <point x="265" y="89"/>
      <point x="265" y="167" type="curve"/>
    </contour>
  </outline>
</glyph>
<glyph name="dvJHA" format="1">
  <advance width="588"/>
  <unicode hex="091D"/>
  <outline>
    <contour>
      <point x="195" y="267" type="line"/>
      <point x="267" y="267"/>
      <point x="287" y="237"/>
      <point x="287" y="193" type="curve" smooth="yes"/>
      <point x="287" y="143" type="line" smooth="yes"/>
      <point x="287" y="98"/>
      <point x="261" y="67"/>
      <point x="186" y="67" type="curve"/>
      <point x="158" y="67"/>
      <point x="129" y="69"/>
      <point x="97" y="78" type="curve"/>
      <point x="97" y="154" type="line"/>
      <point x="55" y="154" type="line"/>
      <point x="55" y="-55" type="line"/>
      <point x="97" y="-55" type="line"/>
      <point x="97" y="35" type="line"/>
      <point x="128" y="27"/>
      <point x="151" y="25"/>
      <point x="186" y="25" type="curve"/>
      <point x="292" y="25"/>
      <point x="332" y="68"/>
      <point x="332" y="143" type="curve" smooth="yes"/>
      <point x="332" y="193" type="line" smooth="yes"/>
      <point x="332" y="229"/>
      <point x="321" y="254"/>
      <point x="299" y="268" type="curve"/>
      <point x="463" y="268" type="line"/>
      <point x="463" y="0" type="line"/>
      <point x="508" y="0" type="line"/>
      <point x="508" y="604" type="line"/>
      <point x="608" y="604" type="line"/>
      <point x="608" y="644" type="line"/>
      <point x="-20" y="644" type="line"/>
      <point x="-20" y="604" type="line"/>
      <point x="280" y="604" type="line"/>
      <point x="280" y="505" type="line"/>
      <point x="192" y="505" type="line" smooth="yes"/>
      <point x="97" y="505"/>
      <point x="52" y="465"/>
      <point x="52" y="390" type="curve" smooth="yes"/>
      <point x="52" y="383" type="line" smooth="yes"/>
      <point x="52" y="308"/>
      <point x="96" y="267"/>
      <point x="191" y="267" type="curve" smooth="yes"/>
    </contour>
    <contour>
      <point x="189" y="309" type="line"/>
      <point x="116" y="310"/>
      <point x="97" y="338"/>
      <point x="97" y="383" type="curve" smooth="yes"/>
      <point x="97" y="390" type="line" smooth="yes"/>
      <point x="97" y="435"/>
      <point x="117" y="463"/>
      <point x="192" y="463" type="curve" smooth="yes"/>
      <point x="325" y="463" type="line"/>
      <point x="325" y="604" type="line"/>
      <point x="463" y="604" type="line"/>
      <point x="463" y="309" type="line"/>
    </contour>
  </outline>
</glyph>
<glyph name="dvTTHA" format="1">
  <advance width="400"/>
  <unicode hex="0920"/>
  <outline>
    <contour>
      <point x="221" y="-61" type="move" name="blwm.u"/>
    </contour>
    <contour>
      <point x="225" y="-5" type="move" name="blwm.virama"/>
    </contour>
    <contour>
      <point x="222" y="644" type="move" name="abvm.e"/>
    </contour>
    <contour>
      <point x="222" y="644" type="move" name="abvm.bindu"/>
    </contour>
    <contour>
      <point x="340" y="386" type="line"/>
      <point x="340" y="455"/>
      <point x="302" y="500"/>
      <point x="222" y="507" type="curve"/>
      <point x="222" y="604" type="line"/>
      <point x="420" y="604" type="line"/>
      <point x="420" y="644" type="line"/>
      <point x="-20" y="644" type="line"/>
      <point x="-20" y="604" type="line"/>
      <point x="177" y="604" type="line"/>
      <point x="177" y="507" type="line"/>
      <point x="97" y="500"/>
      <point x="60" y="454"/>
      <point x="60" y="386" type="curve"/>
      <point x="60" y="117" type="line" smooth="yes"/>
      <point x="60" y="42"/>
      <point x="105" y="-5"/>
      <point x="200" y="-5" type="curve" smooth="yes"/>
      <point x="295" y="-5"/>
      <point x="340" y="42"/>
      <point x="340" y="117" type="curve" smooth="yes"/>
    </contour>
    <contour>
      <point x="295" y="117" type="line"/>
      <point x="295" y="72"/>
      <point x="275" y="37"/>
      <point x="200" y="37" type="curve" smooth="yes"/>
      <point x="125" y="37"/>
      <point x="105" y="72"/>
      <point x="105" y="117" type="curve"/>
      <point x="105" y="386" type="line" smooth="yes"/>
      <point x="105" y="431"/>
      <point x="125" y="466"/>
      <point x="200" y="466" type="curve" smooth="yes"/>
      <point x="275" y="466"/>
      <point x="295" y="431"/>
      <point x="295" y="386" type="curve" smooth="yes"/>
    </contour>
  </outline>
</glyph>
<glyph name="dvNNA" format="1">
  <advance width="600"/>
  <unicode hex="0923"/>
  <outline>
    <contour>
      <point x="327" y="245" type="curve" smooth="yes"/>
      <point x="327" y="604" type="line"/>
      <point x="476" y="604" type="line"/>
      <point x="476" y="0" type="line"/>
      <point x="520" y="0" type="line"/>
      <point x="520" y="604" type="line"/>
      <point x="620" y="604" type="line"/>
      <point x="620" y="644" type="line"/>
      <point x="-20" y="644" type="line"/>
      <point x="-20" y="604" type="line"/>
      <point x="57" y="604" type="line"/>
      <point x="57" y="245" type="line" smooth="yes"/>
      <point x="57" y="170"/>
      <point x="97" y="123"/>
      <point x="192" y="123" type="curve" smooth="yes"/>
      <point x="287" y="123"/>
      <point x="327" y="170"/>
    </contour>
    <contour>
      <point x="282" y="604" type="line"/>
      <point x="282" y="245" type="line" smooth="yes"/>
      <point x="282" y="200"/>
      <point x="267" y="165"/>
      <point x="192" y="165" type="curve" smooth="yes"/>
      <point x="117" y="165"/>
      <point x="102" y="200"/>
      <point x="102" y="245" type="curve" smooth="yes"/>
      <point x="102" y="604" type="line"/>
    </contour>
  </outline>
</glyph>
<glyph name="dvTHA" format="1">
  <advance width="535"/>
  <unicode hex="0925"/>
  <outline>
    <contour>
      <point x="258" y="131" type="curve" smooth="yes"/>
      <point x="138" y="131"/>
      <point x="95" y="168"/>
      <point x="95" y="271" type="curve" smooth="yes"/>
      <point x="95" y="323" type="line"/>
      <point x="127" y="323" type="line" smooth="yes"/>
      <point x="242" y="323"/>
      <point x="302" y="357"/>
      <point x="302" y="468" type="curve" smooth="yes"/>
      <point x="302" y="524" type="line" smooth="yes"/>
      <point x="302" y="604"/>
      <point x="277" y="649"/>
      <point x="189" y="649" type="curve" smooth="yes"/>
      <point x="101" y="649"/>
      <point x="70" y="605"/>
      <point x="70" y="524" type="curve"/>
      <point x="70" y="503"/>
      <point x="75" y="472"/>
      <point x="75" y="472" type="curve"/>
      <point x="120" y="472" type="line"/>
      <point x="120" y="472"/>
      <point x="115" y="495"/>
      <point x="115" y="525" type="curve"/>
      <point x="115" y="577"/>
      <point x="126" y="607"/>
      <point x="189" y="607" type="curve" smooth="yes"/>
      <point x="255" y="607"/>
      <point x="259" y="576"/>
      <point x="259" y="524" type="curve" smooth="yes"/>
      <point x="259" y="467" type="line" smooth="yes"/>
      <point x="259" y="380"/>
      <point x="214" y="365"/>
      <point x="127" y="365" type="curve" smooth="yes"/>
      <point x="50" y="365" type="line"/>
      <point x="50" y="271" type="line" smooth="yes"/>
      <point x="50" y="143"/>
      <point x="114" y="89"/>
      <point x="258" y="89" type="curve"/>
      <point x="318" y="89"/>
      <point x="377" y="96"/>
      <point x="419" y="109" type="curve"/>
      <point x="419" y="151" type="line"/>
      <point x="368" y="138"/>
      <point x="313" y="131"/>
    </contour>
    <contour>
      <point x="411" y="0" type="line"/>
      <point x="455" y="0" type="line"/>
      <point x="455" y="604" type="line"/>
      <point x="555" y="604" type="line"/>
      <point x="555" y="644" type="line"/>
      <point x="411" y="644" type="line"/>
    </contour>
  </outline>
</glyph>
<glyph name="dvDA" format="1">
  <advance width="397"/>
  <unicode hex="0926"/>
  <outline>
    <contour>
      <point x="314" y="-10" type="move" name="blwm.u"/>
    </contour>
    <contour>
      <point x="334" y="-10" type="move" name="blwm.virama"/>
    </contour>
    <contour>
      <point x="317" y="644" type="move" name="abvm.e"/>
    </contour>
    <contour>
      <point x="317" y="644" type="move" name="abvm.bindu"/>
    </contour>
    <contour>
      <point x="47" y="203" type="line"/>
      <point x="47" y="124"/>
      <point x="104" y="77"/>
      <point x="199" y="77" type="curve"/>
      <point x="239" y="77"/>
      <point x="263" y="80"/>
      <point x="292" y="87" type="curve"/>
      <point x="292" y="-10" type="line"/>
      <point x="334" y="-10" type="line"/>
      <point x="334" y="228" type="line"/>
      <point x="292" y="228" type="line"/>
      <point x="292" y="129" type="line"/>
      <point x="260" y="122"/>
      <point x="239" y="119"/>
      <point x="199" y="119" type="curve"/>
      <point x="124" y="119"/>
      <point x="92" y="152"/>
      <point x="92" y="203" type="curve" smooth="yes"/>
      <point x="92" y="387" type="line" smooth="yes"/>
      <point x="92" y="432"/>
      <point x="112" y="462"/>
      <point x="187" y="462" type="curve" smooth="yes"/>
      <point x="317" y="462" type="line"/>
      <point x="317" y="604" type="line"/>
      <point x="417" y="604" type="line"/>
      <point x="417" y="644" type="line"/>
      <point x="-20" y="644" type="line"/>
      <point x="-20" y="604" type="line"/>
      <point x="272" y="604" type="line"/>
      <point x="272" y="504" type="line"/>
      <point x="187" y="504" type="line" smooth="yes"/>
      <point x="92" y="504"/>
      <point x="47" y="462"/>
      <point x="47" y="387" type="curve" smooth="yes"/>
    </contour>
  </outline>
</glyph>
<glyph name="dvPHA" format="1">
  <advance width="590"/>
  <unicode hex="092B"/>
  <outline>
    <contour>
      <point x="325" y="0" type="move" name="blwm.u"/>
    </contour>
    <contour>
      <point x="325" y="644" type="move" name="abvm.bindu"/>
    </contour>
    <contour>
      <point x="325" y="644" type="move" name="abvm.e"/>
    </contour>
    <contour>
      <point x="282" y="0" type="line"/>
      <point x="325" y="0" type="line"/>
      <point x="325" y="446" type="line"/>
      <point x="325" y="446"/>
      <point x="362" y="458"/>
      <point x="406" y="458" type="curve"/>
      <point x="476" y="458"/>
      <point x="495" y="428"/>
      <point x="495" y="383" type="curve"/>
      <point x="495" y="183" type="line" smooth="yes"/>
      <point x="495" y="138"/>
      <point x="475" y="107"/>
      <point x="400" y="109" type="curve"/>
      <point x="400" y="68" type="line"/>
      <point x="400" y="68"/>
      <point x="411" y="67"/>
      <point x="418" y="67" type="curve"/>
      <point x="500" y="67"/>
      <point x="540" y="113"/>
      <point x="540" y="183" type="curve" smooth="yes"/>
      <point x="540" y="383" type="line" smooth="yes"/>
      <point x="540" y="452"/>
      <point x="496" y="500"/>
      <point x="406" y="500" type="curve"/>
      <point x="364" y="500"/>
      <point x="325" y="488"/>
      <point x="325" y="488" type="curve"/>
      <point x="325" y="604" type="line"/>
      <point x="610" y="604" type="line"/>
      <point x="610" y="644" type="line"/>
      <point x="-20" y="644" type="line"/>
      <point x="-20" y="604" type="line"/>
      <point x="57" y="604" type="line"/>
      <point x="57" y="244" type="line" smooth="yes"/>
      <point x="57" y="169"/>
      <point x="108" y="123"/>
      <point x="203" y="123" type="curve" smooth="yes"/>
      <point x="241" y="123"/>
      <point x="267" y="130"/>
      <point x="282" y="134" type="curve"/>
    </contour>
    <contour>
      <point x="282" y="175" type="line"/>
      <point x="267" y="171"/>
      <point x="238" y="165"/>
      <point x="203" y="165" type="curve" smooth="yes"/>
      <point x="128" y="165"/>
      <point x="102" y="199"/>
      <point x="102" y="244" type="curve"/>
      <point x="102" y="604" type="line"/>
      <point x="282" y="604" type="line"/>
    </contour>
  </outline>
</glyph>
<glyph name="dvYA" format="1">
  <advance width="491"/>
  <unicode hex="092F"/>
  <outline>
    <contour>
      <point x="239" y="529" type="line"/>
      <point x="239" y="579"/>
      <point x="231" y="604"/>
      <point x="231" y="604" type="curve"/>
      <point x="366" y="604" type="line"/>
      <point x="366" y="139" type="line"/>
      <point x="340" y="134"/>
      <point x="298" y="127"/>
      <point x="248" y="127" type="curve" smooth="yes"/>
      <point x="148" y="127"/>
      <point x="105" y="167"/>
      <point x="105" y="253" type="curve" smooth="yes"/>
      <point x="105" y="339" type="line"/>
      <point x="186" y="339"/>
      <point x="239" y="372"/>
      <point x="239" y="456" type="curve" smooth="yes"/>
    </contour>
    <contour>
      <point x="186" y="604" type="line"/>
      <point x="186" y="604"/>
      <point x="194" y="576"/>
      <point x="194" y="529" type="curve"/>
      <point x="194" y="456" type="line" smooth="yes"/>
      <point x="194" y="395"/>
      <point x="166" y="381"/>
      <point x="80" y="381" type="curve" smooth="yes"/>
      <point x="60" y="381" type="line"/>
      <point x="60" y="253" type="line" smooth="yes"/>
      <point x="60" y="115"/>
      <point x="152" y="85"/>
      <point x="248" y="85" type="curve" smooth="yes"/>
      <point x="298" y="85"/>
      <point x="342" y="92"/>
      <point x="366" y="97" type="curve"/>
      <point x="366" y="0" type="line"/>
      <point x="411" y="0" type="line"/>
      <point x="411" y="604" type="line"/>
      <point x="511" y="604" type="line"/>
      <point x="511" y="644" type="line"/>
      <point x="-20" y="644" type="line"/>
      <point x="-20" y="604" type="line"/>
    </contour>
  </outline>
</glyph>
<glyph name="dvRxA" format="1">
  <advance width="410"/>
  <unicode hex="0931"/>
  <outline>
    <contour>
      <point x="327" y="644" type="move" name="abvm.e"/>
    </contour>
    <contour>
      <point x="308" y="644" type="move" name="abvm.bindu"/>
    </contour>
    <contour>
      <point x="-17" y="-51" type="curve" smooth="yes"/>
      <point x="-17" y="-70"/>
      <point x="-8" y="-84"/>
      <point x="16" y="-84" type="curve" smooth="yes"/>
      <point x="40" y="-84"/>
      <point x="49" y="-70"/>
      <point x="49" y="-51" type="curve" smooth="yes"/>
      <point x="49" y="-32"/>
      <point x="40" y="-18"/>
      <point x="16" y="-18" type="curve" smooth="yes"/>
      <point x="-8" y="-18"/>
      <point x="-17" y="-32"/>
    </contour>
    <contour>
      <point x="110" y="450" type="line"/>
      <point x="65" y="450" type="line"/>
      <point x="65" y="133" type="line" smooth="yes"/>
      <point x="65" y="37"/>
      <point x="132" y="-5"/>
      <point x="227" y="-5" type="curve" smooth="yes"/>
      <point x="284" y="-5"/>
      <point x="328" y="5"/>
      <point x="350" y="11" type="curve"/>
      <point x="350" y="53" type="line"/>
      <point x="319" y="46"/>
      <point x="287" y="37"/>
      <point x="227" y="37" type="curve" smooth="yes"/>
      <point x="152" y="37"/>
      <point x="110" y="65"/>
      <point x="110" y="133" type="curve" smooth="yes"/>
      <point x="110" y="277" type="line"/>
      <point x="141" y="267"/>
      <point x="165" y="261"/>
      <point x="205" y="261" type="curve"/>
      <point x="300" y="261"/>
      <point x="345" y="308"/>
      <point x="345" y="383" type="curve" smooth="yes"/>
      <point x="345" y="529" type="line" smooth="yes"/>
      <point x="345" y="579"/>
      <point x="337" y="604"/>
      <point x="337" y="604" type="curve"/>
      <point x="430" y="604" type="line"/>
      <point x="430" y="644" type="line"/>
      <point x="-20" y="644" type="line"/>
      <point x="-20" y="604" type="line"/>
      <point x="292" y="604" type="line"/>
      <point x="292" y="604"/>
      <point x="300" y="576"/>
      <point x="300" y="529" type="curve" smooth="yes"/>
      <point x="300" y="383" type="line" smooth="yes"/>
      <point x="300" y="338"/>
      <point x="280" y="303"/>
      <point x="205" y="303" type="curve" smooth="yes"/>
      <point x="166" y="303"/>
      <point x="140" y="310"/>
      <point x="110" y="319" type="curve"/>
    </contour>
  </outline>
</glyph>
<glyph name="dvLLA" format="1">
  <advance width="585"/>
  <unicode hex="0933"/>
  <outline>
    <contour>
      <point x="319" y="-61" type="move" name="blwm.u"/>
    </contour>
    <contour>
      <point x="319" y="-5" type="move" name="blwm.virama"/>
    </contour>
    <contour>
      <point x="422" y="644" type="move" name="abvm.e"/>
    </contour>
    <contour>
      <point x="422" y="644" type="move" name="abvm.bindu"/>
    </contour>
    <contour>
      <point x="530" y="364" type="line"/>
      <point x="530" y="433"/>
      <point x="497" y="477"/>
      <point x="422" y="484" type="curve"/>
      <point x="422" y="604" type="line"/>
      <point x="605" y="604" type="line"/>
      <point x="605" y="644" type="line"/>
      <point x="-20" y="644" type="line"/>
      <point x="-20" y="604" type="line"/>
      <point x="377" y="604" type="line"/>
      <point x="377" y="483" type="line"/>
      <point x="333" y="478"/>
      <point x="306" y="460"/>
      <point x="292" y="430" type="curve"/>
      <point x="276" y="465"/>
      <point x="242" y="485"/>
      <point x="183" y="485" type="curve" smooth="yes"/>
      <point x="93" y="485"/>
      <point x="55" y="439"/>
      <point x="55" y="364" type="curve" smooth="yes"/>
      <point x="55" y="116" type="line" smooth="yes"/>
      <point x="55" y="41"/>
      <point x="92" y="-5"/>
      <point x="182" y="-5" type="curve" smooth="yes"/>
      <point x="241" y="-5"/>
      <point x="276" y="14"/>
      <point x="292" y="49" type="curve"/>
      <point x="309" y="14"/>
      <point x="344" y="-5"/>
      <point x="403" y="-5" type="curve" smooth="yes"/>
      <point x="493" y="-5"/>
      <point x="530" y="41"/>
      <point x="530" y="116" type="curve" smooth="yes"/>
    </contour>
    <contour>
      <point x="99" y="364" type="line"/>
      <point x="99" y="409"/>
      <point x="113" y="446"/>
      <point x="183" y="446" type="curve" smooth="yes"/>
      <point x="253" y="446"/>
      <point x="271" y="409"/>
      <point x="271" y="364" type="curve" smooth="yes"/>
      <point x="271" y="116" type="line"/>
      <point x="271" y="71"/>
      <point x="252" y="34"/>
      <point x="182" y="34" type="curve" smooth="yes"/>
      <point x="112" y="34"/>
      <point x="99" y="71"/>
      <point x="99" y="116" type="curve" smooth="yes"/>
    </contour>
    <contour>
      <point x="314" y="364" type="line"/>
      <point x="314" y="409"/>
      <point x="332" y="446"/>
      <point x="402" y="446" type="curve" smooth="yes"/>
      <point x="472" y="446"/>
      <point x="486" y="409"/>
      <point x="486" y="364" type="curve" smooth="yes"/>
      <point x="486" y="116" type="line"/>
      <point x="486" y="71"/>
      <point x="473" y="34"/>
      <point x="403" y="34" type="curve" smooth="yes"/>
      <point x="333" y="34"/>
      <point x="314" y="70"/>
      <point x="314" y="116" type="curve" smooth="yes"/>
    </contour>
  </outline>
</glyph>
<glyph name="dvHA" format="1">
  <advance width="412"/>
  <unicode hex="0939"/>
  <outline>
    <contour>
      <point x="239" y="-61" type="move" name="blwm.u"/>
    </contour>
    <contour>
      <point x="334" y="644" type="move" name="abvm.bindu"/>
    </contour>
    <contour>
      <point x="334" y="644" type="move" name="abvm.e"/>
    </contour>
    <contour>
      <point x="51" y="125" type="line"/>
      <point x="51" y="46"/>
      <point x="109" y="-5"/>
      <point x="223" y="-5" type="curve"/>
      <point x="283" y="-5"/>
      <point x="320" y="1"/>
      <point x="344" y="11" type="curve"/>
      <point x="344" y="52" type="line"/>
      <point x="308" y="41"/>
      <point x="276" y="37"/>
      <point x="223" y="37" type="curve"/>
      <point x="129" y="37"/>
      <point x="96" y="72"/>
      <point x="96" y="125" type="curve" smooth="yes"/>
      <point x="96" y="190" type="line" smooth="yes"/>
      <point x="96" y="235"/>
      <point x="121" y="262"/>
      <point x="196" y="262" type="curve" smooth="yes"/>
      <point x="235" y="262" type="line" smooth="yes"/>
      <point x="305" y="262"/>
      <point x="313" y="235"/>
      <point x="313" y="190" type="curve" smooth="yes"/>
      <point x="313" y="160" type="line"/>
      <point x="358" y="160" type="line"/>
      <point x="358" y="190" type="line" smooth="yes"/>
      <point x="358" y="265"/>
      <point x="322" y="304"/>
      <point x="235" y="304" type="curve" smooth="yes"/>
      <point x="194" y="304" type="line" smooth="yes"/>
      <point x="119" y="304"/>
      <point x="99" y="331"/>
      <point x="99" y="376" type="curve" smooth="yes"/>
      <point x="99" y="389" type="line" smooth="yes"/>
      <point x="99" y="434"/>
      <point x="116" y="462"/>
      <point x="191" y="462" type="curve" smooth="yes"/>
      <point x="334" y="462" type="line"/>
      <point x="334" y="604" type="line"/>
      <point x="432" y="604" type="line"/>
      <point x="432" y="644" type="line"/>
      <point x="-20" y="644" type="line"/>
      <point x="-20" y="604" type="line"/>
      <point x="289" y="604" type="line"/>
      <point x="289" y="504" type="line"/>
      <point x="191" y="504" type="line" smooth="yes"/>
      <point x="96" y="504"/>
      <point x="54" y="464"/>
      <point x="54" y="389" type="curve" smooth="yes"/>
      <point x="54" y="376" type="line" smooth="yes"/>
      <point x="54" y="329"/>
      <point x="71" y="299"/>
      <point x="108" y="283" type="curve"/>
      <point x="70" y="267"/>
      <point x="51" y="236"/>
      <point x="51" y="190" type="curve" smooth="yes"/>
    </contour>
  </outline>
</glyph>
<glyph name="dvmI" format="1">
  <advance width="205"/>
  <unicode hex="093F"/>
  <outline>
    <contour>
      <point x="80" y="644" type="line"/>
      <point x="-20" y="644" type="line"/>
      <point x="-20" y="604" type="line"/>
      <point x="80" y="604" type="line"/>
      <point x="80" y="0" type="line"/>
      <point x="125" y="0" type="line"/>
      <point x="125" y="604" type="line"/>
      <point x="225" y="604" type="line"/>
      <point x="225" y="644" type="line"/>
      <point x="125" y="644" type="line"/>
      <point x="125" y="690" type="line"/>
      <point x="125" y="783"/>
      <point x="174" y="831"/>
      <point x="297" y="831" type="curve"/>
      <point x="433" y="831"/>
      <point x="548" y="771"/>
      <point x="548" y="771" type="curve"/>
      <point x="548" y="813" type="line"/>
      <point x="548" y="813"/>
      <point x="441" y="873"/>
      <point x="298" y="873" type="curve"/>
      <point x="168" y="873"/>
      <point x="80" y="831"/>
      <point x="80" y="690" type="curve"/>
    </contour>
  </outline>
</glyph>
<glyph name="dvmU" format="1">
  <advance width="0"/>
  <unicode hex="0941"/>
  <outline>
    <contour>
      <point x="-80" y="0" type="move" name="_blwm.u"/>
    </contour>
    <contour>
      <point x="-364" y="-65" type="line"/>
      <point x="-262" y="-165" type="line" smooth="yes"/>
      <point x="-226" y="-201"/>
      <point x="-189" y="-209"/>
      <point x="-154" y="-209" type="curve" smooth="yes"/>
      <point x="-76" y="-209" type="line"/>
      <point x="9" y="-209"/>
      <point x="39" y="-176"/>
      <point x="39" y="-103" type="curve" smooth="yes"/>
      <point x="39" y="-30"/>
      <point x="5" y="3"/>
      <point x="-77" y="3" type="curve"/>
      <point x="-135" y="3"/>
      <point x="-179" y="-12"/>
      <point x="-179" y="-12" type="curve"/>
      <point x="-179" y="-54" type="line"/>
      <point x="-179" y="-54"/>
      <point x="-133" y="-39"/>
      <point x="-77" y="-39" type="curve"/>
      <point x="-17" y="-39"/>
      <point x="-6" y="-64"/>
      <point x="-6" y="-103" type="curve" smooth="yes"/>
      <point x="-6" y="-142"/>
      <point x="-11" y="-167"/>
      <point x="-76" y="-167" type="curve" smooth="yes"/>
      <point x="-154" y="-167" type="line" smooth="yes"/>
      <point x="-177" y="-167"/>
      <point x="-199" y="-163"/>
      <point x="-233" y="-131" type="curve" smooth="yes"/>
      <point x="-299" y="-65" type="line"/>
    </contour>
  </outline>
</glyph>
<glyph name="dvmvR" format="1">
  <advance width="0"/>
  <unicode hex="0943"/>
  <outline>
    <contour>
      <point x="-80" y="0" type="move" name="_blwm.u"/>
    </contour>
    <contour>
      <point x="-155" y="0" type="curve"/>
      <point x="-115" y="0"/>
      <point x="-83" y="-9"/>
      <point x="-83" y="-9" type="curve"/>
      <point x="-83" y="31" type="line"/>
      <point x="-83" y="31"/>
      <point x="-114" y="40"/>
      <point x="-155" y="40" type="curve"/>
      <point x="-230" y="40"/>
      <point x="-277" y="15"/>
      <point x="-277" y="-80" type="curve" smooth="yes"/>
      <point x="-277" y="-175"/>
      <point x="-230" y="-205"/>
      <point x="-155" y="-205" type="curve"/>
      <point x="-111" y="-205"/>
      <point x="-78" y="-196"/>
      <point x="-78" y="-196" type="curve"/>
      <point x="-78" y="-156" type="line"/>
      <point x="-78" y="-156"/>
      <point x="-113" y="-165"/>
      <point x="-155" y="-165" type="curve"/>
      <point x="-200" y="-165"/>
      <point x="-234" y="-155"/>
      <point x="-234" y="-80" type="curve" smooth="yes"/>
      <point x="-234" y="-5"/>
      <point x="-200" y="0"/>
    </contour>
  </outline>
</glyph>
<glyph name="dvmAI" format="1">
  <advance width="0"/>
  <unicode hex="0948"/>
  <outline>
    <contour>
      <point x="-80" y="644" type="move" name="_abvm.e"/>
    </contour>
    <contour>
      <point x="-397" y="830" type="line"/>
      <point x="-390" y="831"/>
      <point x="-380" y="832"/>
      <point x="-371" y="832" type="curve" smooth="yes"/>
      <point x="-341" y="832"/>
      <point x="-323" y="820"/>
      <point x="-306" y="793" type="curve" smooth="yes"/>
      <point x="-211" y="644" type="line"/>
      <point x="-163" y="644" type="line"/>
      <point x="-272" y="814" type="line" smooth="yes"/>
      <point x="-299" y="856"/>
      <point x="-325" y="873"/>
      <point x="-370" y="873" type="curve" smooth="yes"/>
      <point x="-381" y="873"/>
      <point x="-390" y="872"/>
      <point x="-397" y="871" type="curve"/>
    </contour>
    <contour>
      <point x="-239" y="830" type="line"/>
      <point x="-232" y="831"/>
      <point x="-222" y="832"/>
      <point x="-213" y="832" type="curve" smooth="yes"/>
      <point x="-183" y="832"/>
      <point x="-174" y="814"/>
      <point x="-165" y="783" type="curve"/>
      <point x="-123" y="644" type="line"/>
      <point x="-80" y="644" type="line"/>
      <point x="-128" y="804" type="line"/>
      <point x="-142" y="852"/>
      <point x="-167" y="873"/>
      <point x="-212" y="873" type="curve" smooth="yes"/>
      <point x="-223" y="873"/>
      <point x="-232" y="872"/>
      <point x="-239" y="871" type="curve"/>
    </contour>
  </outline>
</glyph>
<glyph name="dvmO" format="1">
  <advance width="205"/>
  <unicode hex="094B"/>
  <outline>
    <contour>
      <point x="80" y="604" type="line"/>
      <point x="80" y="0" type="line"/>
      <point x="125" y="0" type="line"/>
      <point x="125" y="604" type="line"/>
      <point x="225" y="604" type="line"/>
      <point x="225" y="644" type="line"/>
      <point x="-20" y="644" type="line"/>
      <point x="-20" y="604" type="line"/>
    </contour>
    <contour>
      <point x="-110" y="830" type="line"/>
      <point x="-103" y="831"/>
      <point x="-93" y="832"/>
      <point x="-84" y="832" type="curve" smooth="yes"/>
      <point x="-54" y="832"/>
      <point x="-36" y="820"/>
      <point x="-19" y="793" type="curve" smooth="yes"/>
      <point x="76" y="644" type="line"/>
      <point x="124" y="644" type="line"/>
      <point x="15" y="814" type="line" smooth="yes"/>
      <point x="-12" y="856"/>
      <point x="-38" y="873"/>
      <point x="-83" y="873" type="curve" smooth="yes"/>
      <point x="-94" y="873"/>
      <point x="-103" y="872"/>
      <point x="-110" y="871" type="curve"/>
    </contour>
  </outline>
</glyph>
<glyph name="dvmAU" format="1">
  <advance width="205"/>
  <unicode hex="094C"/>
  <outline>
    <contour>
      <point x="80" y="604" type="line"/>
      <point x="80" y="0" type="line"/>
      <point x="125" y="0" type="line"/>
      <point x="125" y="604" type="line"/>
      <point x="225" y="604" type="line"/>
      <point x="225" y="644" type="line"/>
      <point x="-50" y="644" type="line"/>
      <point x="-50" y="604" type="line"/>
    </contour>
    <contour>
      <point x="-194" y="830" type="line"/>
      <point x="-187" y="831"/>
      <point x="-177" y="832"/>
      <point x="-168" y="832" type="curve" smooth="yes"/>
      <point x="-138" y="832"/>
      <point x="-120" y="820"/>
      <point x="-103" y="793" type="curve" smooth="yes"/>
      <point x="-8" y="644" type="line"/>
      <point x="40" y="644" type="line"/>
      <point x="-69" y="814" type="line" smooth="yes"/>
      <point x="-96" y="856"/>
      <point x="-122" y="873"/>
      <point x="-167" y="873" type="curve" smooth="yes"/>
      <point x="-178" y="873"/>
      <point x="-187" y="872"/>
      <point x="-194" y="871" type="curve"/>
    </contour>
    <contour>
      <point x="-36" y="830" type="line"/>
      <point x="-29" y="831"/>
      <point x="-19" y="832"/>
      <point x="-10" y="832" type="curve" smooth="yes"/>
      <point x="20" y="832"/>
      <point x="29" y="814"/>
      <point x="38" y="783" type="curve" smooth="yes"/>
      <point x="80" y="644" type="line"/>
      <point x="123" y="644" type="line"/>
      <point x="75" y="804" type="line" smooth="yes"/>
      <point x="61" y="852"/>
      <point x="36" y="873"/>
      <point x="-9" y="873" type="curve" smooth="yes"/>
      <point x="-20" y="873"/>
      <point x="-29" y="872"/>
      <point x="-36" y="871" type="curve"/>
    </contour>
  </outline>
</glyph>
<glyph name="dvVirama" format="1">
  <advance width="0"/>
  <unicode hex="094D"/>
  <outline>
    <contour>
      <point x="-80" y="0" type="move" name="_blwm.virama"/>
    </contour>
    <contour>
      <point x="20" y="-202" type="line"/>
      <point x="-80" y="-58" type="line"/>
      <point x="-122" y="-58" type="line"/>
      <point x="-32" y="-202" type="line"/>
    </contour>
  </outline>
</glyph>
<glyph name="dvOm" format="1">
  <advance width="758"/>
  <unicode hex="0950"/>
  <outline>
    <contour>
      <point x="484" y="802" type="line"/>
      <point x="484" y="747"/>
      <point x="454" y="732"/>
      <point x="379" y="732" type="curve" smooth="yes"/>
      <point x="304" y="732"/>
      <point x="274" y="747"/>
      <point x="274" y="802" type="curve"/>
      <point x="232" y="802" type="line"/>
      <point x="232" y="802"/>
      <point x="232" y="801"/>
      <point x="232" y="801" type="curve"/>
      <point x="232" y="717"/>
      <point x="284" y="692"/>
      <point x="379" y="692" type="curve" smooth="yes"/>
      <point x="473" y="692"/>
      <point x="526" y="717"/>
      <point x="526" y="801" type="curve"/>
      <point x="526" y="802" type="line"/>
    </contour>
    <contour>
      <point x="346" y="829" type="curve" smooth="yes"/>
      <point x="346" y="810"/>
      <point x="355" y="796"/>
      <point x="379" y="796" type="curve" smooth="yes"/>
      <point x="403" y="796"/>
      <point x="412" y="810"/>
      <point x="412" y="829" type="curve" smooth="yes"/>
      <point x="412" y="848"/>
      <point x="403" y="862"/>
      <point x="379" y="862" type="curve" smooth="yes"/>
      <point x="355" y="862"/>
      <point x="346" y="848"/>
    </contour>
    <contour>
      <point x="281" y="193" type="line"/>
      <point x="462" y="193" type="line" smooth="yes"/>
      <point x="476" y="193"/>
      <point x="484" y="196"/>
      <point x="484" y="210" type="curve" smooth="yes"/>
      <point x="484" y="527" type="line" smooth="yes"/>
      <point x="484" y="572"/>
      <point x="502" y="607"/>
      <point x="577" y="607" type="curve" smooth="yes"/>
      <point x="652" y="607"/>
      <point x="670" y="572"/>
      <point x="670" y="527" type="curve" smooth="yes"/>
      <point x="670" y="141" type="line" smooth="yes"/>
      <point x="670" y="81"/>
      <point x="650" y="38"/>
      <point x="540" y="38" type="curve" smooth="yes"/>
      <point x="502" y="38"/>
      <point x="461" y="45"/>
      <point x="461" y="45" type="curve"/>
      <point x="461" y="2" type="line"/>
      <point x="461" y="2"/>
      <point x="502" y="-5"/>
      <point x="540" y="-5" type="curve" smooth="yes"/>
      <point x="670" y="-5"/>
      <point x="715" y="51"/>
      <point x="715" y="141" type="curve" smooth="yes"/>
      <point x="715" y="527" type="line" smooth="yes"/>
      <point x="715" y="602"/>
      <point x="672" y="649"/>
      <point x="577" y="649" type="curve" smooth="yes"/>
      <point x="482" y="649"/>
      <point x="439" y="602"/>
      <point x="439" y="527" type="curve" smooth="yes"/>
      <point x="439" y="233" type="line"/>
      <point x="281" y="233" type="line"/>
    </contour>
    <contour>
      <point x="264" y="121" type="line"/>
      <point x="264" y="72"/>
      <point x="236" y="37"/>
      <point x="163" y="37" type="curve" smooth="yes"/>
      <point x="121" y="37"/>
      <point x="81" y="45"/>
      <point x="49" y="54" type="curve"/>
      <point x="49" y="10" type="line"/>
      <point x="84" y="1"/>
      <point x="121" y="-5"/>
      <point x="163" y="-5" type="curve" smooth="yes"/>
      <point x="258" y="-5"/>
      <point x="309" y="43"/>
      <point x="309" y="121" type="curve"/>
      <point x="309" y="222" type="line" smooth="yes"/>
      <point x="309" y="267"/>
      <point x="299" y="311"/>
      <point x="255" y="328" type="curve"/>
      <point x="298" y="343"/>
      <point x="309" y="389"/>
      <point x="309" y="434" type="curve" smooth="yes"/>
      <point x="309" y="523" type="line" smooth="yes"/>
      <point x="309" y="601"/>
      <point x="258" y="649"/>
      <point x="163" y="649" type="curve" smooth="yes"/>
      <point x="117" y="649"/>
      <point x="84" y="642"/>
      <point x="59" y="634" type="curve"/>
      <point x="59" y="588" type="line"/>
      <point x="87" y="598"/>
      <point x="120" y="607"/>
      <point x="163" y="607" type="curve" smooth="yes"/>
      <point x="236" y="607"/>
      <point x="264" y="572"/>
      <point x="264" y="523" type="curve" smooth="yes"/>
      <point x="264" y="434" type="line" smooth="yes"/>
      <point x="264" y="389"/>
      <point x="254" y="350"/>
      <point x="173" y="349" type="curve" smooth="yes"/>
      <point x="112" y="349" type="line"/>
      <point x="112" y="307" type="line"/>
      <point x="173" y="307" type="line" smooth="yes"/>
      <point x="254" y="306"/>
      <point x="264" y="267"/>
      <point x="264" y="222" type="curve" smooth="yes"/>
    </contour>
  </outline>
</glyph>
<glyph name="dvJxA" format="1">
  <advance width="540"/>
  <unicode hex="095B"/>
  <outline>
    <contour>
      <point x="-1" y="-43" type="curve" smooth="yes"/>
      <point x="-1" y="-62"/>
      <point x="8" y="-76"/>
      <point x="32" y="-76" type="curve" smooth="yes"/>
      <point x="56" y="-76"/>
      <point x="65" y="-62"/>
      <point x="65" y="-43" type="curve" smooth="yes"/>
      <point x="65" y="-24"/>
      <point x="56" y="-10"/>
      <point x="32" y="-10" type="curve" smooth="yes"/>
      <point x="8" y="-10"/>
      <point x="-1" y="-24"/>
    </contour>
    <component base="dvJA"/>
  </outline>
</glyph>
<glyph name="dvDDxA" format="1">
  <advance width="407"/>
  <unicode hex="095C"/>
  <outline>
    <contour>
      <point x="235" y="-213" type="move" name="blwm.u"/>
    </contour>
    <contour>
      <point x="225" y="-165" type="move" name="blwm.virama"/>
    </contour>
    <contour>
      <point x="323" y="644" type="move" name="abvm.e"/>
    </contour>
    <contour>
      <point x="323" y="644" type="move" name="abvm.bindu"/>
    </contour>
    <contour>
      <point x="170" y="-132" type="curve" smooth="yes"/>
      <point x="170" y="-151"/>
      <point x="179" y="-165"/>
      <point x="203" y="-165" type="curve" smooth="yes"/>
      <point x="227" y="-165"/>
      <point x="236" y="-151"/>
      <point x="236" y="-132" type="curve" smooth="yes"/>
      <point x="236" y="-113"/>
      <point x="227" y="-99"/>
      <point x="203" y="-99" type="curve" smooth="yes"/>
      <point x="179" y="-99"/>
      <point x="170" y="-113"/>
    </contour>
    <component base="dvDDA"/>
  </outline>
</glyph>
<glyph name="dvvRR" format="1">
  <advance width="658"/>
  <unicode hex="0960"/>
  <outline>
    <contour>
      <point x="610" y="80" type="curve"/>
      <point x="610" y="120" type="line"/>
      <point x="578" y="120" type="line" smooth="yes"/>
      <point x="503" y="120"/>
      <point x="456" y="95"/>
      <point x="456" y="10" type="curve" smooth="yes"/>
      <point x="456" y="-75"/>
      <point x="503" y="-100"/>
      <point x="578" y="-100" type="curve" smooth="yes"/>
      <point x="655" y="-100" type="line"/>
      <point x="655" y="-60" type="line"/>
      <point x="578" y="-60" type="line" smooth="yes"/>
      <point x="533" y="-60"/>
      <point x="501" y="-55"/>
      <point x="501" y="10" type="curve" smooth="yes"/>
      <point x="501" y="75"/>
      <point x="533" y="80"/>
      <point x="578" y="80" type="curve"/>
      <point x="578" y="80"/>
      <point x="610" y="80"/>
    </contour>
    <contour>
      <point x="456" y="194" type="curve" smooth="yes"/>
      <point x="456" y="109"/>
      <point x="522" y="80"/>
      <point x="597" y="80" type="curve"/>
      <point x="610" y="80" type="line"/>
      <point x="610" y="121" type="line"/>
      <point x="597" y="121" type="line" smooth="yes"/>
      <point x="552" y="121"/>
      <point x="501" y="129"/>
      <point x="501" y="194" type="curve" smooth="yes"/>
      <point x="501" y="259"/>
      <point x="528" y="274"/>
      <point x="583" y="274" type="curve" smooth="yes"/>
      <point x="623" y="274" type="line"/>
      <point x="623" y="507" type="line"/>
      <point x="580" y="507" type="line"/>
      <point x="580" y="499" type="line" smooth="yes"/>
      <point x="580" y="447"/>
      <point x="556" y="417"/>
      <point x="481" y="417" type="curve" smooth="yes"/>
      <point x="333" y="417" type="line"/>
      <point x="333" y="374" type="line"/>
      <point x="481" y="374" type="line" smooth="yes"/>
      <point x="529" y="374"/>
      <point x="561" y="387"/>
      <point x="580" y="410" type="curve"/>
      <point x="580" y="314" type="line"/>
      <point x="497" y="313"/>
      <point x="456" y="288"/>
    </contour>
    <contour>
      <point x="39" y="60" type="line"/>
      <point x="101" y="60" type="line"/>
      <point x="247" y="209" type="line"/>
      <point x="313" y="277" type="line"/>
      <point x="313" y="276" type="line"/>
      <point x="313" y="143" type="line"/>
      <point x="313" y="0" type="line"/>
      <point x="358" y="0" type="line"/>
      <point x="358" y="604" type="line"/>
      <point x="678" y="604" type="line"/>
      <point x="678" y="644" type="line"/>
      <point x="-20" y="644" type="line"/>
      <point x="-20" y="604" type="line"/>
      <point x="313" y="604" type="line"/>
      <point x="313" y="460" type="line"/>
      <point x="292" y="485"/>
      <point x="257" y="498"/>
      <point x="202" y="498" type="curve" smooth="yes"/>
      <point x="97" y="498"/>
      <point x="48" y="451"/>
      <point x="48" y="366" type="curve" smooth="yes"/>
      <point x="48" y="308" type="line"/>
      <point x="93" y="308" type="line"/>
      <point x="93" y="366" type="line" smooth="yes"/>
      <point x="93" y="421"/>
      <point x="118" y="456"/>
      <point x="203" y="456" type="curve" smooth="yes"/>
      <point x="288" y="456"/>
      <point x="313" y="422"/>
      <point x="313" y="360" type="curve"/>
      <point x="313" y="340" type="line"/>
      <point x="41" y="62" type="line"/>
    </contour>
  </outline>
</glyph>
<glyph name="dvvLL" format="1">
  <advance width="610"/>
  <unicode hex="0961"/>
  <outline>
    <contour>
      <point x="55" y="146" type="line"/>
      <point x="55" y="56"/>
      <point x="100" y="0"/>
      <point x="210" y="0" type="curve" smooth="yes"/>
      <point x="248" y="0" type="line"/>
      <point x="248" y="40" type="line"/>
      <point x="210" y="40" type="line" smooth="yes"/>
      <point x="120" y="40"/>
      <point x="100" y="86"/>
      <point x="100" y="146" type="curve" smooth="yes"/>
      <point x="100" y="354" type="line" smooth="yes"/>
      <point x="100" y="399"/>
      <point x="115" y="434"/>
      <point x="185" y="434" type="curve" smooth="yes"/>
      <point x="252" y="434"/>
      <point x="270" y="400"/>
      <point x="270" y="357" type="curve"/>
      <point x="270" y="266" type="line"/>
      <point x="315" y="266" type="line"/>
      <point x="315" y="357" type="line" smooth="yes"/>
      <point x="315" y="400"/>
      <point x="333" y="434"/>
      <point x="400" y="434" type="curve" smooth="yes"/>
      <point x="470" y="434"/>
      <point x="485" y="399"/>
      <point x="485" y="354" type="curve" smooth="yes"/>
      <point x="485" y="213" type="line"/>
      <point x="530" y="213" type="line"/>
      <point x="530" y="604" type="line"/>
      <point x="630" y="604" type="line"/>
      <point x="630" y="644" type="line"/>
      <point x="-20" y="644" type="line"/>
      <point x="-20" y="604" type="line"/>
      <point x="485" y="604" type="line"/>
      <point x="485" y="447" type="line"/>
      <point x="468" y="466"/>
      <point x="441" y="476"/>
      <point x="400" y="476" type="curve" smooth="yes"/>
      <point x="348" y="476"/>
      <point x="313" y="460"/>
      <point x="292" y="433" type="curve"/>
      <point x="272" y="460"/>
      <point x="236" y="476"/>
      <point x="185" y="476" type="curve" smooth="yes"/>
      <point x="95" y="476"/>
      <point x="55" y="429"/>
      <point x="55" y="354" type="curve" smooth="yes"/>
    </contour>
    <contour>
      <point x="530" y="213" type="curve"/>
      <point x="530" y="253" type="line"/>
      <point x="478" y="253" type="line" smooth="yes"/>
      <point x="400" y="253"/>
      <point x="360" y="215"/>
      <point x="360" y="138" type="curve" smooth="yes"/>
      <point x="360" y="61"/>
      <point x="401" y="29"/>
      <point x="476" y="29" type="curve" smooth="yes"/>
      <point x="514" y="29" type="line"/>
      <point x="514" y="69" type="line"/>
      <point x="476" y="69" type="line" smooth="yes"/>
      <point x="431" y="69"/>
      <point x="405" y="79"/>
      <point x="405" y="138" type="curve" smooth="yes"/>
      <point x="405" y="189"/>
      <point x="424" y="213"/>
      <point x="484" y="213" type="curve"/>
      <point x="484" y="213"/>
      <point x="530" y="213"/>
    </contour>
    <contour>
      <point x="514" y="26" type="line"/>
      <point x="514" y="66" type="line"/>
      <point x="478" y="66" type="line" smooth="yes"/>
      <point x="400" y="66"/>
      <point x="360" y="28"/>
      <point x="360" y="-49" type="curve" smooth="yes"/>
      <point x="360" y="-126"/>
      <point x="401" y="-158"/>
      <point x="476" y="-158" type="curve" smooth="yes"/>
      <point x="544" y="-158" type="line"/>
      <point x="544" y="-118" type="line"/>
      <point x="476" y="-118" type="line" smooth="yes"/>
      <point x="431" y="-118"/>
      <point x="405" y="-108"/>
      <point x="405" y="-48" type="curve" smooth="yes"/>
      <point x="405" y="2"/>
      <point x="424" y="26"/>
      <point x="484" y="26" type="curve"/>
    </contour>
  </outline>
</glyph>
<glyph name="danda" format="1">
  <advance width="275"/>
  <unicode hex="0964"/>
  <outline>
    <contour>
      <point x="150" y="0" type="line"/>
      <point x="195" y="0" type="line"/>
      <point x="195" y="644" type="line"/>
      <point x="150" y="644" type="line"/>
    </contour>
  </outline>
</glyph>
<glyph name="doubledanda" format="1">
  <advance width="447"/>
  <unicode hex="0965"/>
  <outline>
    <contour>
      <point x="130" y="0" type="line"/>
      <point x="175" y="0" type="line"/>
      <point x="175" y="644" type="line"/>
      <point x="130" y="644" type="line"/>
    </contour>
    <contour>
      <point x="322" y="0" type="line"/>
      <point x="367" y="0" type="line"/>
      <point x="367" y="644" type="line"/>
      <point x="322" y="644" type="line"/>
    </contour>
  </outline>
</glyph>
<glyph name="dvAbbreviationsign" format="1">
  <advance width="352"/>
  <unicode hex="0970"/>
  <outline>
    <contour>
      <point x="55" y="335" type="curve" smooth="yes"/>
      <point x="55" y="260"/>
      <point x="85" y="201"/>
      <point x="179" y="201" type="curve" smooth="yes"/>
      <point x="273" y="201"/>
      <point x="304" y="260"/>
      <point x="304" y="335" type="curve" smooth="yes"/>
      <point x="304" y="410"/>
      <point x="273" y="470"/>
      <point x="179" y="470" type="curve" smooth="yes"/>
      <point x="85" y="470"/>
      <point x="55" y="410"/>
    </contour>
    <contour>
      <point x="95" y="334" type="curve" smooth="yes"/>
      <point x="95" y="386"/>
      <point x="106" y="429"/>
      <point x="179" y="429" type="curve" smooth="yes"/>
      <point x="252" y="429"/>
      <point x="264" y="386"/>
      <point x="264" y="334" type="curve" smooth="yes"/>
      <point x="264" y="282"/>
      <point x="252" y="240"/>
      <point x="179" y="240" type="curve" smooth="yes"/>
      <point x="106" y="240"/>
      <point x="95" y="282"/>
    </contour>
  </outline>
</glyph>
<glyph name="endash" format="1">
  <advance width="345"/>
  <unicode hex="2013"/>
  <outline>
    <contour>
      <point x="40" y="342" type="line"/>
      <point x="40" y="302" type="line"/>
      <point x="301" y="302" type="line"/>
      <point x="301" y="342" type="line"/>
    </contour>
  </outline>
</glyph>
<glyph name="emdash" format="1">
  <advance width="574"/>
  <unicode hex="2014"/>
  <outline>
    <contour>
      <point x="40" y="343" type="line"/>
      <point x="40" y="303" type="line"/>
      <point x="521" y="303" type="line"/>
      <point x="521" y="343" type="line"/>
    </contour>
  </outline>
</glyph>
<glyph name="quoteleft" format="1">
  <advance width="147"/>
  <unicode hex="2018"/>
  <outline>
    <contour>
      <point x="85" y="708" type="line"/>
      <point x="70" y="675"/>
      <point x="30" y="580"/>
      <point x="30" y="547" type="curve" smooth="yes"/>
      <point x="30" y="529"/>
      <point x="42" y="520"/>
      <point x="57" y="520" type="curve" smooth="yes"/>
      <point x="77" y="520" type="line"/>
      <point x="117" y="708" type="line"/>
    </contour>
  </outline>
</glyph>
<glyph name="quotedblright" format="1">
  <advance width="245"/>
  <unicode hex="201D"/>
  <outline>
    <contour>
      <point x="170" y="708" type="line"/>
      <point x="130" y="520" type="line"/>
      <point x="160" y="520" type="line"/>
      <point x="175" y="553"/>
      <point x="215" y="648"/>
      <point x="215" y="681" type="curve" smooth="yes"/>
      <point x="215" y="699"/>
      <point x="203" y="708"/>
      <point x="188" y="708" type="curve" smooth="yes"/>
    </contour>
    <contour>
      <point x="70" y="708" type="line"/>
      <point x="30" y="520" type="line"/>
      <point x="60" y="520" type="line"/>
      <point x="75" y="553"/>
      <point x="115" y="648"/>
      <point x="115" y="681" type="curve" smooth="yes"/>
      <point x="115" y="699"/>
      <point x="103" y="708"/>
      <point x="88" y="708" type="curve" smooth="yes"/>
    </contour>
  </outline>
</glyph>
<glyph name="ellipsis" format="1">
  <advance width="518"/>
  <unicode hex="2026"/>
  <outline>
    <contour>
      <point x="386" y="33" type="curve" smooth="yes"/>
      <point x="386" y="14"/>
      <point x="395" y="0"/>
      <point x="419" y="0" type="curve" smooth="yes"/>
      <point x="443" y="0"/>
      <point x="452" y="14"/>
      <point x="452" y="33" type="curve" smooth="yes"/>
      <point x="452" y="52"/>
      <point x="443" y="66"/>
      <point x="419" y="66" type="curve" smooth="yes"/>
      <point x="395" y="66"/>
      <point x="386" y="52"/>
    </contour>
    <contour>
      <point x="66" y="33" type="curve" smooth="yes"/>
      <point x="66" y="14"/>
      <point x="75" y="0"/>
      <point x="99" y="0" type="curve" smooth="yes"/>
      <point x="123" y="0"/>
      <point x="132" y="14"/>
      <point x="132" y="33" type="curve" smooth="yes"/>
      <point x="132" y="52"/>
      <point x="123" y="66"/>
      <point x="99" y="66" type="curve" smooth="yes"/>
      <point x="75" y="66"/>
      <point x="66" y="52"/>
    </contour>
    <contour>
      <point x="226" y="33" type="curve" smooth="yes"/>
      <point x="226" y="14"/>
      <point x="235" y="0"/>
      <point x="259" y="0" type="curve" smooth="yes"/>
      <point x="283" y="0"/>
      <point x="292" y="14"/>
      <point x="292" y="33" type="curve" smooth="yes"/>
      <point x="292" y="52"/>
      <point x="283" y="66"/>
      <point x="259" y="66" type="curve" smooth="yes"/>
      <point x="235" y="66"/>
      <point x="226" y="52"/>
    </contour>
  </outline>
</glyph>
<glyph name="perthousand" format="1">
  <advance width="770"/>
  <unicode hex="2030"/>
  <outline>
    <contour>
      <point x="370" y="666" type="line"/>
      <point x="115" y="0" type="line"/>
      <point x="157" y="0" type="line"/>
      <point x="412" y="666" type="line"/>
    </contour>
    <contour>
      <point x="194" y="541" type="curve" smooth="yes"/>
      <point x="194" y="474"/>
      <point x="173" y="448"/>
      <point x="137" y="448" type="curve" smooth="yes"/>
      <point x="101" y="448"/>
      <point x="80" y="474"/>
      <point x="80" y="541" type="curve" smooth="yes"/>
      <point x="80" y="608"/>
      <point x="101" y="634"/>
      <point x="137" y="634" type="curve" smooth="yes"/>
      <point x="173" y="634"/>
      <point x="194" y="608"/>
    </contour>
    <contour>
      <point x="35" y="541" type="curve" smooth="yes"/>
      <point x="35" y="454"/>
      <point x="72" y="406"/>
      <point x="137" y="406" type="curve" smooth="yes"/>
      <point x="202" y="406"/>
      <point x="239" y="454"/>
      <point x="239" y="541" type="curve" smooth="yes"/>
      <point x="239" y="628"/>
      <point x="202" y="676"/>
      <point x="137" y="676" type="curve" smooth="yes"/>
      <point x="72" y="676"/>
      <point x="35" y="628"/>
    </contour>
    <contour>
      <point x="446" y="125" type="curve"/>
      <point x="446" y="58"/>
      <point x="425" y="32"/>
      <point x="389" y="32" type="curve" smooth="yes"/>
      <point x="353" y="32"/>
      <point x="332" y="58"/>
      <point x="332" y="125" type="curve" smooth="yes"/>
      <point x="332" y="192"/>
      <point x="353" y="218"/>
      <point x="389" y="218" type="curve" smooth="yes"/>
      <point x="425" y="218"/>
      <point x="446" y="192"/>
    </contour>
    <contour>
      <point x="287" y="125" type="curve"/>
      <point x="287" y="38"/>
      <point x="324" y="-10"/>
      <point x="389" y="-10" type="curve" smooth="yes"/>
      <point x="454" y="-10"/>
      <point x="491" y="38"/>
      <point x="491" y="125" type="curve" smooth="yes"/>
      <point x="491" y="212"/>
      <point x="454" y="260"/>
      <point x="389" y="260" type="curve" smooth="yes"/>
      <point x="324" y="260"/>
      <point x="287" y="212"/>
    </contour>
    <contour>
      <point x="695" y="125" type="curve" smooth="yes"/>
      <point x="695" y="58"/>
      <point x="674" y="32"/>
      <point x="638" y="32" type="curve" smooth="yes"/>
      <point x="602" y="32"/>
      <point x="581" y="58"/>
      <point x="581" y="125" type="curve" smooth="yes"/>
      <point x="581" y="192"/>
      <point x="602" y="218"/>
      <point x="638" y="218" type="curve" smooth="yes"/>
      <point x="674" y="218"/>
      <point x="695" y="192"/>
    </contour>
    <contour>
      <point x="536" y="125" type="curve" smooth="yes"/>
      <point x="536" y="38"/>
      <point x="573" y="-10"/>
      <point x="638" y="-10" type="curve" smooth="yes"/>
      <point x="703" y="-10"/>
      <point x="740" y="38"/>
      <point x="740" y="125" type="curve" smooth="yes"/>
      <point x="740" y="212"/>
      <point x="703" y="260"/>
      <point x="638" y="260" type="curve" smooth="yes"/>
      <point x="573" y="260"/>
      <point x="536" y="212"/>
    </contour>
  </outline>
</glyph>
<glyph name="guilsinglleft" format="1">
  <advance width="319"/>
  <unicode hex="2039"/>
  <outline>
    <contour>
      <point x="182" y="505" type="line"/>
      <point x="61" y="322" type="line"/>
      <point x="182" y="139" type="line"/>
      <point x="235" y="139" type="line"/>
      <point x="113" y="322" type="line"/>
      <point x="235" y="505" type="line"/>
    </contour>
  </outline>
</glyph>
<glyph name="fraction" format="1">
  <advance width="217"/>
  <unicode hex="2044"/>
  <outline>
    <contour>
      <point x="245" y="666" type="line"/>
      <point x="-70" y="0" type="line"/>
      <point x="-28" y="0" type="line"/>
      <point x="287" y="666" type="line"/>
    </contour>
  </outline>
</glyph>
<glyph name="indianrupee" format="1">
  <advance width="446"/>
  <unicode hex="20B9"/>
  <outline>
    <contour>
      <point x="146" y="330" type="curve" smooth="yes"/>
      <point x="50" y="330" type="line"/>
      <point x="50" y="288" type="line"/>
      <point x="262" y="0" type="line"/>
      <point x="316" y="0" type="line"/>
      <point x="103" y="287" type="line"/>
      <point x="146" y="287" type="line" smooth="yes"/>
      <point x="266" y="287"/>
      <point x="309" y="328"/>
      <point x="309" y="433" type="curve" smooth="yes"/>
      <point x="309" y="524" type="line" smooth="yes"/>
      <point x="309" y="563"/>
      <point x="295" y="588"/>
      <point x="268" y="604" type="curve"/>
      <point x="401" y="604" type="line"/>
      <point x="401" y="644" type="line"/>
      <point x="51" y="644" type="line"/>
      <point x="51" y="604" type="line"/>
      <point x="162" y="604" type="line" smooth="yes"/>
      <point x="237" y="604"/>
      <point x="267" y="569"/>
      <point x="267" y="524" type="curve" smooth="yes"/>
      <point x="267" y="433" type="line" smooth="yes"/>
      <point x="267" y="358"/>
      <point x="246" y="330"/>
    </contour>
    <contour>
      <point x="51" y="452" type="line"/>
      <point x="401" y="452" type="line"/>
      <point x="401" y="492" type="line"/>
      <point x="51" y="492" type="line"/>
    </contour>
  </outline>
</glyph>
<glyph name="litre" format="1">
  <advance width="335"/>
  <unicode hex="2113"/>
  <outline>
    <contour>
      <point x="75" y="582" type="curve" smooth="yes"/>
      <point x="75" y="128" type="line"/>
      <point x="125" y="128" type="line"/>
      <point x="125" y="582" type="line" smooth="yes"/>
      <point x="125" y="642"/>
      <point x="151" y="668"/>
      <point x="191" y="668" type="curve" smooth="yes"/>
      <point x="233" y="668"/>
      <point x="257" y="642"/>
      <point x="257" y="569" type="curve" smooth="yes"/>
      <point x="257" y="396"/>
      <point x="122" y="244"/>
      <point x="14" y="159" type="curve"/>
      <point x="14" y="93" type="line" smooth="yes"/>
      <point x="154" y="200"/>
      <point x="307" y="374"/>
      <point x="307" y="569" type="curve" smooth="yes"/>
      <point x="307" y="663"/>
      <point x="267" y="717"/>
      <point x="191" y="717" type="curve" smooth="yes"/>
      <point x="122" y="717"/>
      <point x="75" y="675"/>
    </contour>
    <contour>
      <point x="75" y="214" type="line"/>
      <point x="75" y="116" type="line" smooth="yes"/>
      <point x="75" y="38"/>
      <point x="118" y="-3"/>
      <point x="200" y="-3" type="curve" smooth="yes"/>
      <point x="226" y="-3"/>
      <point x="260" y="3"/>
      <point x="270" y="6" type="curve"/>
      <point x="270" y="53" type="line"/>
      <point x="259" y="49"/>
      <point x="227" y="43"/>
      <point x="200" y="43" type="curve" smooth="yes"/>
      <point x="150" y="43"/>
      <point x="125" y="61"/>
      <point x="125" y="116" type="curve" smooth="yes"/>
      <point x="125" y="214" type="line"/>
    </contour>
  </outline>
</glyph>
<glyph name="trademark" format="1">
  <advance width="528"/>
  <unicode hex="2122"/>
  <outline>
    <contour>
      <point x="273" y="694" type="line"/>
      <point x="338" y="471" type="line"/>
      <point x="361" y="471" type="line"/>
      <point x="341" y="563" type="line"/>
      <point x="301" y="694" type="line"/>
    </contour>
    <contour>
      <point x="134" y="645" type="line"/>
      <point x="134" y="471" type="line"/>
      <point x="168" y="471" type="line"/>
      <point x="168" y="645" type="line"/>
    </contour>
    <contour>
      <point x="70" y="694" type="line"/>
      <point x="70" y="663" type="line"/>
      <point x="134" y="663" type="line"/>
      <point x="134" y="645" type="line"/>
      <point x="168" y="645" type="line"/>
      <point x="168" y="663" type="line"/>
      <point x="232" y="663" type="line"/>
      <point x="232" y="694" type="line"/>
    </contour>
    <contour>
      <point x="254" y="694" type="line"/>
      <point x="254" y="471" type="line"/>
      <point x="288" y="471" type="line"/>
      <point x="288" y="578" type="line"/>
      <point x="277" y="694" type="line"/>
    </contour>
    <contour>
      <point x="401" y="694" type="line"/>
      <point x="361" y="563" type="line"/>
      <point x="341" y="471" type="line"/>
      <point x="364" y="471" type="line"/>
      <point x="429" y="694" type="line"/>
    </contour>
    <contour>
      <point x="425" y="694" type="line"/>
      <point x="414" y="578" type="line"/>
      <point x="414" y="471" type="line"/>
      <point x="448" y="471" type="line"/>
      <point x="448" y="694" type="line"/>
    </contour>
  </outline>
</glyph>
<glyph name="summation" format="1">
  <advance width="371"/>
  <unicode hex="2211"/>
  <outline>
    <contour>
      <point x="30" y="666" type="line"/>
      <point x="30" y="621" type="line"/>
      <point x="159" y="333" type="line"/>
      <point x="30" y="45" type="line"/>
      <point x="30" y="0" type="line"/>
      <point x="335" y="0" type="line"/>
      <point x="335" y="45" type="line"/>
      <point x="83" y="45" type="line"/>
      <point x="212" y="333" type="line"/>
      <point x="83" y="621" type="line"/>
      <point x="335" y="621" type="line"/>
      <point x="335" y="666" type="line"/>
    </contour>
  </outline>
</glyph>
<glyph name="infinity" format="1">
  <advance width="597"/>
  <unicode hex="221E"/>
  <outline>
    <contour>
      <point x="168" y="242" type="curve" smooth="yes"/>
      <point x="97" y="242"/>
      <point x="96" y="283"/>
      <point x="96" y="334" type="curve" smooth="yes"/>
      <point x="96" y="385"/>
      <point x="97" y="427"/>
      <point x="168" y="427" type="curve" smooth="yes"/>
      <point x="218" y="427"/>
      <point x="250" y="371"/>
      <point x="285" y="314" type="curve"/>
      <point x="312" y="353" type="line"/>
      <point x="275" y="412"/>
      <point x="235" y="474"/>
      <point x="168" y="474" type="curve" smooth="yes"/>
      <point x="71" y="474"/>
      <point x="50" y="412"/>
      <point x="50" y="335" type="curve" smooth="yes"/>
      <point x="50" y="258"/>
      <point x="71" y="197"/>
      <point x="168" y="197" type="curve" smooth="yes"/>
      <point x="299" y="197"/>
      <point x="327" y="427"/>
      <point x="428" y="427" type="curve" smooth="yes"/>
      <point x="499" y="427"/>
      <point x="501" y="385"/>
      <point x="501" y="334" type="curve" smooth="yes"/>
      <point x="501" y="283"/>
      <point x="499" y="242"/>
      <point x="428" y="242" type="curve" smooth="yes"/>
      <point x="379" y="242"/>
      <point x="347" y="297"/>
      <point x="312" y="353" type="curve"/>
      <point x="285" y="314" type="line"/>
      <point x="321" y="255"/>
      <point x="361" y="195"/>
      <point x="428" y="195" type="curve" smooth="yes"/>
      <point x="525" y="195"/>
      <point x="547" y="258"/>
      <point x="547" y="335" type="curve" smooth="yes"/>
      <point x="547" y="412"/>
      <point x="525" y="474"/>
      <point x="428" y="474" type="curve" smooth="yes"/>
      <point x="297" y="474"/>
      <point x="269" y="242"/>
    </contour>
  </outline>
</glyph>
<glyph name="integral" format="1">
  <advance width="267"/>
  <unicode hex="222B"/>
  <outline>
    <contour>
      <point x="97" y="666" type="curve" smooth="yes"/>
      <point x="97" y="0" type="line"/>
      <point x="97" y="-60"/>
      <point x="67" y="-82"/>
      <point x="19" y="-82" type="curve"/>
      <point x="19" y="-127" type="line"/>
      <point x="103" y="-127"/>
      <point x="147" y="-81"/>
      <point x="147" y="0" type="curve"/>
      <point x="147" y="666" type="line" smooth="yes"/>
      <point x="147" y="726"/>
      <point x="177" y="748"/>
      <point x="225" y="748" type="curve"/>
      <point x="225" y="793" type="line"/>
      <point x="141" y="793"/>
      <point x="97" y="747"/>
    </contour>
  </outline>
</glyph>
<glyph name="notequal" format="1">
  <advance width="441"/>
  <unicode hex="2260"/>
  <outline>
    <contour>
      <point x="295" y="527" type="line"/>
      <point x="115" y="120" type="line"/>
      <point x="154" y="120" type="line"/>
      <point x="334" y="527" type="line"/>
    </contour>
    <contour>
      <point x="50" y="256" type="line"/>
      <point x="50" y="216" type="line"/>
      <point x="391" y="216" type="line"/>
      <point x="391" y="256" type="line"/>
    </contour>
    <contour>
      <point x="50" y="428" type="line"/>
      <point x="50" y="388" type="line"/>
      <point x="391" y="388" type="line"/>
      <point x="391" y="428" type="line"/>
    </contour>
  </outline>
</glyph>
<glyph name="lessequal" format="1">
  <advance width="451"/>
  <unicode hex="2264"/>
  <outline>
    <contour>
      <point x="50" y="353" type="line"/>
      <point x="50" y="308" type="line"/>
      <point x="391" y="445" type="line"/>
      <point x="391" y="490" type="line"/>
    </contour>
    <contour>
      <point x="50" y="133" type="line"/>
      <point x="50" y="93" type="line"/>
      <point x="391" y="93" type="line"/>
      <point x="391" y="133" type="line"/>
    </contour>
    <contour>
      <point x="50" y="291" type="line"/>
      <point x="391" y="155" type="line"/>
      <point x="391" y="200" type="line"/>
      <point x="50" y="336" type="line"/>
    </contour>
  </outline>
</glyph>
<glyph name="lozenge" format="1">
  <advance width="411"/>
  <unicode hex="25CA"/>
  <outline>
    <contour>
      <point x="166" y="563" type="line"/>
      <point x="40" y="281" type="line"/>
      <point x="166" y="0" type="line"/>
      <point x="246" y="0" type="line"/>
      <point x="372" y="281" type="line"/>
      <point x="246" y="563" type="line"/>
    </contour>
    <contour>
      <point x="320" y="281" type="line"/>
      <point x="206" y="18" type="line"/>
      <point x="92" y="281" type="line"/>
      <point x="206" y="544" type="line"/>
    </contour>
  </outline>
</glyph>
<glyph name="fl" format="1">
  <advance width="475"/>
  <unicode hex="FB02"/>
  <outline>
    <contour>
      <point x="97" y="596" type="curve" smooth="yes"/>
      <point x="97" y="563" type="line"/>
      <point x="40" y="563" type="line"/>
      <point x="40" y="518" type="line"/>
      <point x="97" y="518" type="line"/>
      <point x="97" y="0" type="line"/>
      <point x="147" y="0" type="line"/>
      <point x="147" y="518" type="line"/>
      <point x="259" y="518" type="line"/>
      <point x="259" y="563" type="line"/>
      <point x="147" y="563" type="line"/>
      <point x="147" y="596" type="line" smooth="yes"/>
      <point x="147" y="656"/>
      <point x="176" y="682"/>
      <point x="256" y="682" type="curve" smooth="yes"/>
      <point x="305" y="682"/>
      <point x="347" y="674"/>
      <point x="376" y="666" type="curve"/>
      <point x="388" y="709" type="line"/>
      <point x="351" y="719"/>
      <point x="307" y="727"/>
      <point x="256" y="727" type="curve" smooth="yes"/>
      <point x="142" y="727"/>
      <point x="97" y="677"/>
    </contour>
    <contour>
      <point x="350" y="713" type="line"/>
      <point x="350" y="0" type="line"/>
      <point x="400" y="0" type="line"/>
      <point x="400" y="713" type="line"/>
    </contour>
  </outline>
</glyph>
<glyph name="dvAnusvara.amI" format="1">
  <advance width="0"/>
  <outline>
    <contour>
      <point x="0" y="644" type="move" name="_abvm.i"/>
    </contour>
    <component base="dvAnusvara" xOffset="149" yOffset="-20"/>
  </outline>
</glyph>
<glyph name="dvB" format="1">
  <advance width="209"/>
  <outline>
    <contour>
      <point x="-20" y="644" type="line"/>
      <point x="-20" y="604" type="line"/>
      <point x="330" y="604" type="line"/>
      <point x="330" y="644" type="line"/>
    </contour>
    <contour>
      <point x="50" y="388" type="curve"/>
      <point x="50" y="191" type="line" smooth="yes"/>
      <point x="50" y="116"/>
      <point x="95" y="74"/>
      <point x="190" y="74" type="curve" smooth="yes"/>
      <point x="290" y="74"/>
      <point x="330" y="116"/>
      <point x="330" y="191" type="curve" smooth="yes"/>
      <point x="330" y="388" type="line" smooth="yes"/>
      <point x="330" y="463"/>
      <point x="290" y="505"/>
      <point x="190" y="505" type="curve" smooth="yes"/>
      <point x="95" y="505"/>
      <point x="50" y="463"/>
    </contour>
    <contour>
      <point x="285" y="203" type="line"/>
      <point x="106" y="429" type="line"/>
      <point x="119" y="449"/>
      <point x="144" y="463"/>
      <point x="190" y="463" type="curve" smooth="yes"/>
      <point x="262" y="463"/>
      <point x="285" y="429"/>
      <point x="285" y="387" type="curve" smooth="yes"/>
    </contour>
    <contour>
      <point x="95" y="382" type="line"/>
      <point x="277" y="152" type="line"/>
      <point x="265" y="129"/>
      <point x="240" y="116"/>
      <point x="190" y="116" type="curve" smooth="yes"/>
      <point x="115" y="116"/>
      <point x="95" y="146"/>
      <point x="95" y="191" type="curve" smooth="yes"/>
    </contour>
  </outline>
</glyph>
<glyph name="dvBH_LA" format="1">
  <advance width="994"/>
  <outline>
    <contour>
      <point x="439" y="146" type="line"/>
      <point x="439" y="56"/>
      <point x="484" y="0"/>
      <point x="594" y="0" type="curve" smooth="yes"/>
      <point x="617" y="0"/>
      <point x="635" y="2"/>
      <point x="651" y="5" type="curve"/>
      <point x="651" y="45" type="line"/>
      <point x="638" y="43"/>
      <point x="615" y="40"/>
      <point x="594" y="40" type="curve" smooth="yes"/>
      <point x="504" y="40"/>
      <point x="484" y="86"/>
      <point x="484" y="146" type="curve" smooth="yes"/>
      <point x="484" y="354" type="line" smooth="yes"/>
      <point x="484" y="399"/>
      <point x="499" y="434"/>
      <point x="569" y="434" type="curve" smooth="yes"/>
      <point x="636" y="434"/>
      <point x="654" y="400"/>
      <point x="654" y="357" type="curve" smooth="yes"/>
      <point x="654" y="206" type="line"/>
      <point x="699" y="206" type="line"/>
      <point x="699" y="357" type="line" smooth="yes"/>
      <point x="699" y="400"/>
      <point x="722" y="434"/>
      <point x="789" y="434" type="curve" smooth="yes"/>
      <point x="817" y="434"/>
      <point x="845" y="429"/>
      <point x="869" y="418" type="curve"/>
      <point x="869" y="0" type="line"/>
      <point x="914" y="0" type="line"/>
      <point x="914" y="604" type="line"/>
      <point x="1014" y="604" type="line"/>
      <point x="1014" y="644" type="line"/>
      <point x="364" y="644" type="line"/>
      <point x="364" y="604" type="line"/>
      <point x="869" y="604" type="line"/>
      <point x="869" y="460" type="line"/>
      <point x="842" y="471"/>
      <point x="821" y="476"/>
      <point x="789" y="476" type="curve" smooth="yes"/>
      <point x="737" y="476"/>
      <point x="697" y="460"/>
      <point x="676" y="433" type="curve"/>
      <point x="656" y="460"/>
      <point x="620" y="476"/>
      <point x="569" y="476" type="curve" smooth="yes"/>
      <point x="479" y="476"/>
      <point x="439" y="429"/>
      <point x="439" y="354" type="curve" smooth="yes"/>
    </contour>
    <component base="dvBH"/>
  </outline>
</glyph>
<glyph name="dvBH_RA" format="1">
  <advance width="581"/>
  <outline>
    <contour>
      <point x="456" y="233" type="line"/>
      <point x="190" y="-44" type="line"/>
      <point x="253" y="-44" type="line"/>
      <point x="364" y="73" type="line" smooth="yes"/>
      <point x="451" y="165"/>
      <point x="457" y="175"/>
      <point x="459" y="178" type="curve"/>
      <point x="459" y="178" type="line"/>
      <point x="459" y="178"/>
      <point x="456" y="121"/>
      <point x="456" y="36" type="curve" smooth="yes"/>
      <point x="456" y="0" type="line"/>
      <point x="501" y="0" type="line"/>
      <point x="501" y="604" type="line"/>
      <point x="601" y="604" type="line"/>
      <point x="601" y="644" type="line"/>
      <point x="456" y="644" type="line"/>
      <point x="456" y="416" type="line"/>
      <point x="311" y="416" type="line"/>
      <point x="311" y="532" type="line" smooth="yes"/>
      <point x="311" y="607"/>
      <point x="273" y="649"/>
      <point x="187" y="649" type="curve" smooth="yes"/>
      <point x="101" y="649"/>
      <point x="63" y="607"/>
      <point x="63" y="532" type="curve"/>
      <point x="63" y="502"/>
      <point x="67" y="476"/>
      <point x="67" y="476" type="curve"/>
      <point x="112" y="476" type="line"/>
      <point x="112" y="476"/>
      <point x="108" y="496"/>
      <point x="108" y="532" type="curve"/>
      <point x="108" y="576"/>
      <point x="121" y="607"/>
      <point x="187" y="607" type="curve" smooth="yes"/>
      <point x="253" y="607"/>
      <point x="266" y="577"/>
      <point x="266" y="532" type="curve" smooth="yes"/>
      <point x="266" y="416" type="line"/>
      <point x="184" y="416" type="line" smooth="yes"/>
      <point x="94" y="416"/>
      <point x="57" y="381"/>
      <point x="57" y="306" type="curve" smooth="yes"/>
      <point x="57" y="245" type="line" smooth="yes"/>
      <point x="57" y="170"/>
      <point x="94" y="133"/>
      <point x="184" y="133" type="curve" smooth="yes"/>
      <point x="274" y="133"/>
      <point x="311" y="170"/>
      <point x="311" y="245" type="curve" smooth="yes"/>
      <point x="311" y="376" type="line"/>
      <point x="456" y="376" type="line"/>
    </contour>
    <contour>
      <point x="266" y="245" type="line"/>
      <point x="266" y="200"/>
      <point x="254" y="175"/>
      <point x="184" y="175" type="curve" smooth="yes"/>
      <point x="114" y="175"/>
      <point x="102" y="201"/>
      <point x="102" y="245" type="curve" smooth="yes"/>
      <point x="102" y="306" type="line" smooth="yes"/>
      <point x="102" y="351"/>
      <point x="114" y="376"/>
      <point x="184" y="376" type="curve" smooth="yes"/>
      <point x="266" y="376" type="line"/>
    </contour>
  </outline>
</glyph>
<glyph name="dvBH_R_YA" format="1">
  <advance width="875"/>
  <outline>
    <contour>
      <point x="259" y="245" type="line"/>
      <point x="259" y="200"/>
      <point x="247" y="175"/>
      <point x="177" y="175" type="curve" smooth="yes"/>
      <point x="107" y="175"/>
      <point x="95" y="201"/>
      <point x="95" y="245" type="curve" smooth="yes"/>
      <point x="95" y="291" type="line" smooth="yes"/>
      <point x="95" y="336"/>
      <point x="107" y="361"/>
      <point x="177" y="361" type="curve" smooth="yes"/>
      <point x="259" y="361" type="line"/>
    </contour>
    <contour>
      <point x="304" y="401" type="line"/>
      <point x="304" y="532" type="line" smooth="yes"/>
      <point x="304" y="607"/>
      <point x="266" y="649"/>
      <point x="180" y="649" type="curve" smooth="yes"/>
      <point x="94" y="649"/>
      <point x="56" y="607"/>
      <point x="56" y="532" type="curve" smooth="yes"/>
      <point x="56" y="491" type="line"/>
      <point x="101" y="491" type="line"/>
      <point x="101" y="532" type="line" smooth="yes"/>
      <point x="101" y="576"/>
      <point x="114" y="607"/>
      <point x="180" y="607" type="curve" smooth="yes"/>
      <point x="246" y="607"/>
      <point x="259" y="577"/>
      <point x="259" y="532" type="curve" smooth="yes"/>
      <point x="259" y="401" type="line"/>
      <point x="177" y="401" type="line" smooth="yes"/>
      <point x="87" y="401"/>
      <point x="50" y="366"/>
      <point x="50" y="291" type="curve" smooth="yes"/>
      <point x="50" y="245" type="line" smooth="yes"/>
      <point x="50" y="170"/>
      <point x="87" y="133"/>
      <point x="177" y="133" type="curve" smooth="yes"/>
      <point x="267" y="133"/>
      <point x="304" y="170"/>
      <point x="304" y="245" type="curve" smooth="yes"/>
      <point x="304" y="361" type="line"/>
      <point x="404" y="361" type="line" smooth="yes"/>
      <point x="427" y="361"/>
      <point x="447" y="356"/>
      <point x="447" y="335" type="curve"/>
      <point x="480" y="358" type="line"/>
      <point x="480" y="384"/>
      <point x="459" y="401"/>
      <point x="410" y="401" type="curve" smooth="yes"/>
    </contour>
    <contour>
      <point x="364" y="604" type="line"/>
      <point x="491" y="604" type="line" smooth="yes"/>
      <point x="560" y="604"/>
      <point x="578" y="574"/>
      <point x="578" y="529" type="curve" smooth="yes"/>
      <point x="578" y="461" type="line" smooth="yes"/>
      <point x="578" y="400"/>
      <point x="550" y="386"/>
      <point x="464" y="386" type="curve" smooth="yes"/>
      <point x="444" y="386" type="line"/>
      <point x="444" y="253" type="line" smooth="yes"/>
      <point x="444" y="115"/>
      <point x="522" y="85"/>
      <point x="618" y="85" type="curve" smooth="yes"/>
      <point x="693" y="85"/>
      <point x="731" y="104"/>
      <point x="750" y="132" type="curve"/>
      <point x="750" y="0" type="line"/>
      <point x="795" y="0" type="line"/>
      <point x="795" y="604" type="line"/>
      <point x="895" y="604" type="line"/>
      <point x="895" y="644" type="line"/>
      <point x="364" y="644" type="line"/>
    </contour>
    <contour>
      <point x="618" y="127" type="curve" smooth="yes"/>
      <point x="518" y="127"/>
      <point x="489" y="167"/>
      <point x="489" y="253" type="curve" smooth="yes"/>
      <point x="489" y="344" type="line"/>
      <point x="570" y="344"/>
      <point x="623" y="377"/>
      <point x="623" y="461" type="curve" smooth="yes"/>
      <point x="623" y="529" type="line" smooth="yes"/>
      <point x="623" y="572"/>
      <point x="609" y="594"/>
      <point x="591" y="604" type="curve"/>
      <point x="750" y="604" type="line"/>
      <point x="750" y="253" type="line" smooth="yes"/>
      <point x="750" y="167"/>
      <point x="720" y="127"/>
    </contour>
    <contour>
      <point x="487" y="265" type="line"/>
      <point x="190" y="-44" type="line"/>
      <point x="253" y="-44" type="line"/>
      <point x="364" y="73" type="line" smooth="yes"/>
      <point x="405" y="115"/>
      <point x="462" y="183"/>
      <point x="487" y="216" type="curve"/>
    </contour>
  </outline>
</glyph>
<glyph name="dvBH_YA" format="1">
  <advance width="875"/>
  <outline>
    <contour>
      <point x="259" y="175" type="line"/>
      <point x="259" y="130"/>
      <point x="247" y="105"/>
      <point x="177" y="105" type="curve" smooth="yes"/>
      <point x="107" y="105"/>
      <point x="95" y="131"/>
      <point x="95" y="175" type="curve" smooth="yes"/>
      <point x="95" y="291" type="line" smooth="yes"/>
      <point x="95" y="336"/>
      <point x="107" y="361"/>
      <point x="177" y="361" type="curve" smooth="yes"/>
      <point x="259" y="361" type="line"/>
    </contour>
    <contour>
      <point x="401" y="361" type="line"/>
      <point x="424" y="361"/>
      <point x="444" y="356"/>
      <point x="444" y="335" type="curve"/>
      <point x="477" y="358" type="line"/>
      <point x="477" y="384"/>
      <point x="456" y="401"/>
      <point x="407" y="401" type="curve"/>
      <point x="304" y="401" type="line"/>
      <point x="304" y="532" type="line" smooth="yes"/>
      <point x="304" y="607"/>
      <point x="266" y="649"/>
      <point x="180" y="649" type="curve" smooth="yes"/>
      <point x="94" y="649"/>
      <point x="56" y="607"/>
      <point x="56" y="532" type="curve"/>
      <point x="56" y="508"/>
      <point x="61" y="476"/>
      <point x="61" y="476" type="curve"/>
      <point x="106" y="476" type="line"/>
      <point x="106" y="476"/>
      <point x="101" y="507"/>
      <point x="101" y="532" type="curve"/>
      <point x="101" y="576"/>
      <point x="114" y="607"/>
      <point x="180" y="607" type="curve" smooth="yes"/>
      <point x="246" y="607"/>
      <point x="259" y="577"/>
      <point x="259" y="532" type="curve" smooth="yes"/>
      <point x="259" y="401" type="line"/>
      <point x="177" y="401" type="line" smooth="yes"/>
      <point x="87" y="401"/>
      <point x="50" y="366"/>
      <point x="50" y="291" type="curve" smooth="yes"/>
      <point x="50" y="175" type="line" smooth="yes"/>
      <point x="50" y="100"/>
      <point x="87" y="63"/>
      <point x="177" y="63" type="curve" smooth="yes"/>
      <point x="267" y="63"/>
      <point x="304" y="100"/>
      <point x="304" y="175" type="curve" smooth="yes"/>
      <point x="304" y="361" type="line"/>
    </contour>
    <contour>
      <point x="623" y="529" type="line"/>
      <point x="623" y="579"/>
      <point x="615" y="604"/>
      <point x="615" y="604" type="curve"/>
      <point x="750" y="604" type="line"/>
      <point x="750" y="139" type="line"/>
      <point x="724" y="134"/>
      <point x="682" y="127"/>
      <point x="632" y="127" type="curve" smooth="yes"/>
      <point x="532" y="127"/>
      <point x="489" y="167"/>
      <point x="489" y="253" type="curve" smooth="yes"/>
      <point x="489" y="339" type="line"/>
      <point x="570" y="339"/>
      <point x="623" y="372"/>
      <point x="623" y="456" type="curve" smooth="yes"/>
    </contour>
    <contour>
      <point x="570" y="604" type="line"/>
      <point x="570" y="604"/>
      <point x="578" y="576"/>
      <point x="578" y="529" type="curve"/>
      <point x="578" y="456" type="line" smooth="yes"/>
      <point x="578" y="395"/>
      <point x="550" y="381"/>
      <point x="464" y="381" type="curve" smooth="yes"/>
      <point x="444" y="381" type="line"/>
      <point x="444" y="253" type="line" smooth="yes"/>
      <point x="444" y="115"/>
      <point x="536" y="85"/>
      <point x="632" y="85" type="curve" smooth="yes"/>
      <point x="682" y="85"/>
      <point x="726" y="92"/>
      <point x="750" y="97" type="curve"/>
      <point x="750" y="0" type="line"/>
      <point x="795" y="0" type="line"/>
      <point x="795" y="604" type="line"/>
      <point x="895" y="604" type="line"/>
      <point x="895" y="644" type="line"/>
      <point x="364" y="644" type="line"/>
      <point x="364" y="604" type="line"/>
    </contour>
  </outline>
</glyph>
<glyph name="dvB_DA" format="1">
  <advance width="635"/>
  <outline>
    <contour>
      <point x="552" y="-10" type="move" name="blwm.u"/>
    </contour>
    <contour>
      <point x="572" y="-10" type="move" name="blwm.virama"/>
    </contour>
    <contour>
      <point x="555" y="644" type="move" name="abvm.e"/>
    </contour>
    <contour>
      <point x="555" y="644" type="move" name="abvm.bindu"/>
    </contour>
    <contour>
      <point x="285" y="295" type="line"/>
      <point x="285" y="191" type="line"/>
      <point x="285" y="143"/>
      <point x="261" y="116"/>
      <point x="190" y="116" type="curve" smooth="yes"/>
      <point x="115" y="116"/>
      <point x="95" y="146"/>
      <point x="95" y="191" type="curve" smooth="yes"/>
      <point x="95" y="388" type="line" smooth="yes"/>
      <point x="95" y="433"/>
      <point x="115" y="463"/>
      <point x="190" y="463" type="curve" smooth="yes"/>
      <point x="216" y="463"/>
      <point x="237" y="458"/>
      <point x="237" y="458" type="curve"/>
      <point x="237" y="500" type="line"/>
      <point x="237" y="500"/>
      <point x="215" y="505"/>
      <point x="190" y="505" type="curve" smooth="yes"/>
      <point x="95" y="505"/>
      <point x="50" y="463"/>
      <point x="50" y="388" type="curve" smooth="yes"/>
      <point x="50" y="191" type="line" smooth="yes"/>
      <point x="50" y="116"/>
      <point x="95" y="74"/>
      <point x="190" y="74" type="curve" smooth="yes"/>
      <point x="290" y="74"/>
      <point x="330" y="116"/>
      <point x="330" y="191" type="curve" smooth="yes"/>
      <point x="330" y="295" type="line"/>
    </contour>
    <contour>
      <point x="68" y="414" type="line"/>
      <point x="60" y="373" type="line"/>
      <point x="299" y="191" type="line"/>
      <point x="321" y="221" type="line"/>
    </contour>
    <contour>
      <point x="-20" y="604" type="line"/>
      <point x="330" y="604" type="line"/>
      <point x="330" y="644" type="line"/>
      <point x="-20" y="644" type="line"/>
    </contour>
    <component base="dvDA" xOffset="238"/>
  </outline>
</glyph>
<glyph name="dvB_JA" format="1">
  <advance width="840"/>
  <outline>
    <contour>
      <point x="565" y="192" type="curve"/>
      <point x="565" y="380" type="line"/>
      <point x="565" y="430"/>
      <point x="557" y="455"/>
      <point x="557" y="455" type="curve"/>
      <point x="715" y="455" type="line"/>
      <point x="715" y="0" type="line"/>
      <point x="760" y="0" type="line"/>
      <point x="760" y="604" type="line"/>
      <point x="860" y="604" type="line"/>
      <point x="860" y="644" type="line"/>
      <point x="280" y="644" type="line"/>
      <point x="280" y="604" type="line"/>
      <point x="715" y="604" type="line"/>
      <point x="715" y="495" type="line"/>
      <point x="399" y="495" type="line"/>
      <point x="399" y="455" type="line"/>
      <point x="512" y="455" type="line"/>
      <point x="512" y="455"/>
      <point x="520" y="427"/>
      <point x="520" y="380" type="curve" smooth="yes"/>
      <point x="520" y="192" type="line" smooth="yes"/>
      <point x="520" y="143"/>
      <point x="495" y="108"/>
      <point x="422" y="108" type="curve" smooth="yes"/>
      <point x="385" y="108"/>
      <point x="301" y="126"/>
      <point x="273" y="134" type="curve"/>
      <point x="273" y="91" type="line"/>
      <point x="298" y="84"/>
      <point x="377" y="66"/>
      <point x="422" y="66" type="curve" smooth="yes"/>
      <point x="517" y="66"/>
      <point x="565" y="114"/>
    </contour>
    <component base="dvB"/>
  </outline>
</glyph>
<glyph name="dvB_JxA" format="1">
  <advance width="840"/>
  <outline>
    <contour>
      <point x="565" y="192" type="line"/>
      <point x="565" y="114"/>
      <point x="517" y="66"/>
      <point x="422" y="66" type="curve" smooth="yes"/>
      <point x="377" y="66"/>
      <point x="298" y="84"/>
      <point x="273" y="91" type="curve"/>
      <point x="273" y="134" type="line"/>
      <point x="301" y="126"/>
      <point x="385" y="108"/>
      <point x="422" y="108" type="curve" smooth="yes"/>
      <point x="495" y="108"/>
      <point x="520" y="143"/>
      <point x="520" y="192" type="curve" smooth="yes"/>
      <point x="520" y="380" type="line" smooth="yes"/>
      <point x="520" y="427"/>
      <point x="512" y="455"/>
      <point x="512" y="455" type="curve"/>
      <point x="399" y="455" type="line"/>
      <point x="399" y="495" type="line"/>
      <point x="715" y="495" type="line"/>
      <point x="715" y="604" type="line"/>
      <point x="280" y="604" type="line"/>
      <point x="280" y="644" type="line"/>
      <point x="860" y="644" type="line"/>
      <point x="860" y="604" type="line"/>
      <point x="760" y="604" type="line"/>
      <point x="760" y="0" type="line"/>
      <point x="715" y="0" type="line"/>
      <point x="715" y="455" type="line"/>
      <point x="557" y="455" type="line"/>
      <point x="557" y="455"/>
      <point x="565" y="430"/>
      <point x="565" y="380" type="curve" smooth="yes"/>
    </contour>
    <contour>
      <point x="329" y="-23" type="curve" smooth="yes"/>
      <point x="329" y="-4"/>
      <point x="320" y="10"/>
      <point x="296" y="10" type="curve" smooth="yes"/>
      <point x="272" y="10"/>
      <point x="263" y="-4"/>
      <point x="263" y="-23" type="curve" smooth="yes"/>
      <point x="263" y="-42"/>
      <point x="272" y="-56"/>
      <point x="296" y="-56" type="curve" smooth="yes"/>
      <point x="320" y="-56"/>
      <point x="329" y="-42"/>
    </contour>
    <contour>
      <point x="330" y="644" type="line"/>
      <point x="330" y="604" type="line"/>
      <point x="-20" y="604" type="line"/>
      <point x="-20" y="644" type="line"/>
    </contour>
    <contour>
      <point x="50" y="388" type="line"/>
      <point x="50" y="463"/>
      <point x="95" y="505"/>
      <point x="190" y="505" type="curve" smooth="yes"/>
      <point x="290" y="505"/>
      <point x="330" y="463"/>
      <point x="330" y="388" type="curve" smooth="yes"/>
      <point x="330" y="191" type="line" smooth="yes"/>
      <point x="330" y="116"/>
      <point x="290" y="74"/>
      <point x="190" y="74" type="curve" smooth="yes"/>
      <point x="95" y="74"/>
      <point x="50" y="116"/>
      <point x="50" y="191" type="curve" smooth="yes"/>
    </contour>
    <contour>
      <point x="285" y="387" type="line"/>
      <point x="285" y="429"/>
      <point x="262" y="463"/>
      <point x="190" y="463" type="curve" smooth="yes"/>
      <point x="144" y="463"/>
      <point x="119" y="449"/>
      <point x="106" y="429" type="curve"/>
      <point x="285" y="203" type="line"/>
    </contour>
    <contour>
      <point x="95" y="191" type="line"/>
      <point x="95" y="146"/>
      <point x="115" y="116"/>
      <point x="190" y="116" type="curve" smooth="yes"/>
      <point x="240" y="116"/>
      <point x="265" y="129"/>
      <point x="277" y="152" type="curve"/>
      <point x="95" y="382" type="line"/>
    </contour>
  </outline>
</glyph>
<glyph name="dvB_L_YA" format="1">
  <advance width="1131"/>
  <outline>
    <contour>
      <point x="-20" y="604" type="line"/>
      <point x="330" y="604" type="line"/>
      <point x="330" y="644" type="line"/>
      <point x="-20" y="644" type="line"/>
    </contour>
    <contour>
      <point x="285" y="252" type="line"/>
      <point x="285" y="191" type="line" smooth="yes"/>
      <point x="285" y="143"/>
      <point x="261" y="116"/>
      <point x="190" y="116" type="curve" smooth="yes"/>
      <point x="115" y="116"/>
      <point x="95" y="146"/>
      <point x="95" y="191" type="curve" smooth="yes"/>
      <point x="95" y="388" type="line" smooth="yes"/>
      <point x="95" y="433"/>
      <point x="115" y="463"/>
      <point x="190" y="463" type="curve" smooth="yes"/>
      <point x="216" y="463"/>
      <point x="237" y="458"/>
      <point x="237" y="458" type="curve"/>
      <point x="237" y="500" type="line"/>
      <point x="237" y="500"/>
      <point x="215" y="505"/>
      <point x="190" y="505" type="curve" smooth="yes"/>
      <point x="95" y="505"/>
      <point x="50" y="463"/>
      <point x="50" y="388" type="curve" smooth="yes"/>
      <point x="50" y="191" type="line" smooth="yes"/>
      <point x="50" y="116"/>
      <point x="95" y="74"/>
      <point x="190" y="74" type="curve" smooth="yes"/>
      <point x="290" y="74"/>
      <point x="330" y="116"/>
      <point x="330" y="191" type="curve" smooth="yes"/>
      <point x="330" y="252" type="line"/>
    </contour>
    <contour>
      <point x="68" y="414" type="line"/>
      <point x="60" y="373" type="line"/>
      <point x="299" y="191" type="line"/>
      <point x="321" y="221" type="line"/>
    </contour>
    <contour>
      <point x="745" y="644" type="line"/>
      <point x="210" y="644" type="line"/>
      <point x="210" y="604" type="line"/>
      <point x="745" y="604" type="line"/>
    </contour>
    <contour>
      <point x="285" y="354" type="curve"/>
      <point x="285" y="146" type="line" smooth="yes"/>
      <point x="285" y="56"/>
      <point x="330" y="0"/>
      <point x="440" y="0" type="curve" smooth="yes"/>
      <point x="499" y="0" type="line"/>
      <point x="499" y="40" type="line"/>
      <point x="440" y="40" type="line" smooth="yes"/>
      <point x="350" y="40"/>
      <point x="330" y="86"/>
      <point x="330" y="146" type="curve" smooth="yes"/>
      <point x="330" y="354" type="line" smooth="yes"/>
      <point x="330" y="399"/>
      <point x="345" y="434"/>
      <point x="415" y="434" type="curve" smooth="yes"/>
      <point x="485" y="434"/>
      <point x="500" y="399"/>
      <point x="500" y="354" type="curve" smooth="yes"/>
      <point x="500" y="206" type="line"/>
      <point x="545" y="206" type="line"/>
      <point x="545" y="354" type="line" smooth="yes"/>
      <point x="545" y="402"/>
      <point x="558" y="434"/>
      <point x="620" y="434" type="curve" smooth="yes"/>
      <point x="691" y="434"/>
      <point x="700" y="402"/>
      <point x="700" y="354" type="curve" smooth="yes"/>
      <point x="700" y="301" type="line"/>
      <point x="745" y="301" type="line"/>
      <point x="745" y="354" type="line" smooth="yes"/>
      <point x="745" y="429"/>
      <point x="707" y="476"/>
      <point x="620" y="476" type="curve" smooth="yes"/>
      <point x="573" y="476"/>
      <point x="543" y="460"/>
      <point x="522" y="433" type="curve"/>
      <point x="502" y="460"/>
      <point x="466" y="476"/>
      <point x="415" y="476" type="curve" smooth="yes"/>
      <point x="325" y="476"/>
      <point x="285" y="429"/>
    </contour>
    <contour>
      <point x="879" y="529" type="line"/>
      <point x="879" y="579"/>
      <point x="871" y="604"/>
      <point x="871" y="604" type="curve"/>
      <point x="1006" y="604" type="line"/>
      <point x="1006" y="139" type="line"/>
      <point x="980" y="134"/>
      <point x="938" y="127"/>
      <point x="888" y="127" type="curve" smooth="yes"/>
      <point x="788" y="127"/>
      <point x="745" y="167"/>
      <point x="745" y="253" type="curve" smooth="yes"/>
      <point x="745" y="339" type="line"/>
      <point x="826" y="339"/>
      <point x="879" y="372"/>
      <point x="879" y="456" type="curve" smooth="yes"/>
    </contour>
    <contour>
      <point x="826" y="604" type="line"/>
      <point x="826" y="604"/>
      <point x="834" y="576"/>
      <point x="834" y="529" type="curve" smooth="yes"/>
      <point x="834" y="456" type="line" smooth="yes"/>
      <point x="834" y="395"/>
      <point x="806" y="381"/>
      <point x="720" y="381" type="curve" smooth="yes"/>
      <point x="700" y="381" type="line"/>
      <point x="700" y="253" type="line" smooth="yes"/>
      <point x="700" y="115"/>
      <point x="792" y="85"/>
      <point x="888" y="85" type="curve" smooth="yes"/>
      <point x="938" y="85"/>
      <point x="982" y="92"/>
      <point x="1006" y="97" type="curve"/>
      <point x="1006" y="0" type="line"/>
      <point x="1051" y="0" type="line"/>
      <point x="1051" y="604" type="line"/>
      <point x="1151" y="604" type="line"/>
      <point x="1151" y="644" type="line"/>
      <point x="620" y="644" type="line"/>
      <point x="620" y="604" type="line"/>
    </contour>
  </outline>
</glyph>
<glyph name="dvB_RA" format="1">
  <advance width="412"/>
  <outline>
    <contour>
      <point x="42" y="-56" type="line"/>
      <point x="107" y="-56" type="line"/>
      <point x="297" y="121" type="line"/>
      <point x="236" y="121" type="line"/>
    </contour>
    <contour>
      <point x="290" y="491" type="line"/>
      <point x="281" y="495"/>
      <point x="250" y="505"/>
      <point x="201" y="505" type="curve" smooth="yes"/>
      <point x="106" y="505"/>
      <point x="55" y="459"/>
      <point x="55" y="385" type="curve"/>
      <point x="55" y="221" type="line" smooth="yes"/>
      <point x="55" y="146"/>
      <point x="106" y="100"/>
      <point x="201" y="100" type="curve" smooth="yes"/>
      <point x="250" y="100"/>
      <point x="281" y="110"/>
      <point x="290" y="114" type="curve"/>
      <point x="290" y="0" type="line"/>
      <point x="332" y="0" type="line"/>
      <point x="332" y="604" type="line"/>
      <point x="432" y="604" type="line"/>
      <point x="432" y="644" type="line"/>
      <point x="-20" y="644" type="line"/>
      <point x="-20" y="604" type="line"/>
      <point x="290" y="604" type="line"/>
    </contour>
    <contour>
      <point x="73" y="414" type="line"/>
      <point x="65" y="373" type="line"/>
      <point x="304" y="191" type="line"/>
      <point x="326" y="221" type="line"/>
    </contour>
    <contour>
      <point x="290" y="156" type="line"/>
      <point x="281" y="152"/>
      <point x="250" y="142"/>
      <point x="201" y="142" type="curve" smooth="yes"/>
      <point x="126" y="142"/>
      <point x="100" y="176"/>
      <point x="100" y="221" type="curve" smooth="yes"/>
      <point x="100" y="384" type="line"/>
      <point x="100" y="429"/>
      <point x="126" y="463"/>
      <point x="201" y="463" type="curve" smooth="yes"/>
      <point x="250" y="463"/>
      <point x="281" y="453"/>
      <point x="290" y="449" type="curve"/>
    </contour>
  </outline>
</glyph>
<glyph name="dvCH_RA" format="1">
  <advance width="494"/>
  <outline>
    <contour>
      <point x="283" y="-169" type="move" name="blwm.u"/>
    </contour>
    <contour>
      <point x="277" y="-132" type="move" name="blwm.virama"/>
    </contour>
    <contour>
      <point x="356" y="644" type="move" name="abvm.e"/>
    </contour>
    <contour>
      <point x="356" y="644" type="move" name="abvm.bindu"/>
    </contour>
    <component base="dvCHA"/>
    <component base="dvRashtrasign" xOffset="468" yOffset="23"/>
  </outline>
</glyph>
<glyph name="dvCH_R_YA" format="1">
  <advance width="981"/>
  <outline>
    <contour>
      <point x="343" y="494" type="line"/>
      <point x="343" y="452" type="line"/>
      <point x="605" y="452" type="line" smooth="yes"/>
      <point x="671" y="452"/>
      <point x="684" y="422"/>
      <point x="684" y="377" type="curve" smooth="yes"/>
      <point x="684" y="370" type="line" smooth="yes"/>
      <point x="684" y="310"/>
      <point x="655" y="296"/>
      <point x="570" y="296" type="curve" smooth="yes"/>
      <point x="550" y="296" type="line"/>
      <point x="550" y="253" type="line" smooth="yes"/>
      <point x="550" y="115"/>
      <point x="637" y="85"/>
      <point x="733" y="85" type="curve" smooth="yes"/>
      <point x="778" y="85"/>
      <point x="824" y="92"/>
      <point x="856" y="97" type="curve"/>
      <point x="856" y="0" type="line"/>
      <point x="901" y="0" type="line"/>
      <point x="901" y="604" type="line"/>
      <point x="1001" y="604" type="line"/>
      <point x="1001" y="644" type="line"/>
      <point x="455" y="644" type="line"/>
      <point x="455" y="604" type="line"/>
      <point x="856" y="604" type="line"/>
      <point x="856" y="139" type="line"/>
      <point x="823" y="133"/>
      <point x="778" y="127"/>
      <point x="733" y="127" type="curve" smooth="yes"/>
      <point x="632" y="127"/>
      <point x="595" y="167"/>
      <point x="595" y="253" type="curve"/>
      <point x="595" y="254" type="line"/>
      <point x="675" y="254"/>
      <point x="729" y="287"/>
      <point x="729" y="370" type="curve" smooth="yes"/>
      <point x="729" y="377" type="line" smooth="yes"/>
      <point x="729" y="452"/>
      <point x="691" y="494"/>
      <point x="605" y="494" type="curve" smooth="yes"/>
    </contour>
    <component base="dvCHA"/>
    <component base="dvRashtrasign" xOffset="468" yOffset="23"/>
  </outline>
</glyph>
<glyph name="dvCH_YA" format="1">
  <advance width="960"/>
  <outline>
    <contour>
      <point x="395" y="494" type="line"/>
      <point x="395" y="452" type="line"/>
      <point x="584" y="452" type="line" smooth="yes"/>
      <point x="650" y="452"/>
      <point x="663" y="422"/>
      <point x="663" y="377" type="curve" smooth="yes"/>
      <point x="663" y="370" type="line" smooth="yes"/>
      <point x="663" y="310"/>
      <point x="634" y="296"/>
      <point x="549" y="296" type="curve" smooth="yes"/>
      <point x="529" y="296" type="line"/>
      <point x="529" y="253" type="line" smooth="yes"/>
      <point x="529" y="115"/>
      <point x="616" y="85"/>
      <point x="712" y="85" type="curve" smooth="yes"/>
      <point x="757" y="85"/>
      <point x="803" y="92"/>
      <point x="835" y="97" type="curve"/>
      <point x="835" y="0" type="line"/>
      <point x="880" y="0" type="line"/>
      <point x="880" y="604" type="line"/>
      <point x="980" y="604" type="line"/>
      <point x="980" y="644" type="line"/>
      <point x="434" y="644" type="line"/>
      <point x="434" y="604" type="line"/>
      <point x="835" y="604" type="line"/>
      <point x="835" y="139" type="line"/>
      <point x="802" y="133"/>
      <point x="757" y="127"/>
      <point x="712" y="127" type="curve" smooth="yes"/>
      <point x="611" y="127"/>
      <point x="574" y="167"/>
      <point x="574" y="253" type="curve"/>
      <point x="574" y="254" type="line"/>
      <point x="654" y="254"/>
      <point x="708" y="287"/>
      <point x="708" y="370" type="curve" smooth="yes"/>
      <point x="708" y="377" type="line" smooth="yes"/>
      <point x="708" y="452"/>
      <point x="670" y="494"/>
      <point x="584" y="494" type="curve" smooth="yes"/>
    </contour>
    <contour>
      <point x="315" y="523" type="curve"/>
      <point x="282" y="524"/>
      <point x="253" y="514"/>
      <point x="253" y="514" type="curve"/>
      <point x="253" y="470" type="line"/>
      <point x="253" y="470"/>
      <point x="278" y="481"/>
      <point x="309" y="481" type="curve" smooth="yes"/>
      <point x="378" y="481"/>
      <point x="389" y="451"/>
      <point x="389" y="406" type="curve" smooth="yes"/>
      <point x="389" y="167" type="line" smooth="yes"/>
      <point x="389" y="92"/>
      <point x="362" y="69"/>
      <point x="250" y="69" type="curve" smooth="yes"/>
      <point x="138" y="69"/>
      <point x="110" y="92"/>
      <point x="110" y="167" type="curve" smooth="yes"/>
      <point x="110" y="205" type="line" smooth="yes"/>
      <point x="110" y="250"/>
      <point x="131" y="280"/>
      <point x="207" y="280" type="curve" smooth="yes"/>
      <point x="254" y="280" type="line"/>
      <point x="254" y="322" type="line"/>
      <point x="207" y="322" type="line" smooth="yes"/>
      <point x="132" y="323"/>
      <point x="116" y="352"/>
      <point x="116" y="397" type="curve" smooth="yes"/>
      <point x="116" y="529" type="line" smooth="yes"/>
      <point x="116" y="586"/>
      <point x="145" y="604"/>
      <point x="193" y="604" type="curve" smooth="yes"/>
      <point x="513" y="604" type="line"/>
      <point x="513" y="644" type="line"/>
      <point x="-20" y="644" type="line"/>
      <point x="-20" y="604" type="line"/>
      <point x="103" y="604" type="line"/>
      <point x="83" y="594"/>
      <point x="71" y="574"/>
      <point x="71" y="529" type="curve" smooth="yes"/>
      <point x="71" y="397" type="line" smooth="yes"/>
      <point x="71" y="352"/>
      <point x="81" y="316"/>
      <point x="129" y="300" type="curve"/>
      <point x="81" y="288"/>
      <point x="65" y="249"/>
      <point x="65" y="205" type="curve" smooth="yes"/>
      <point x="65" y="167" type="line" smooth="yes"/>
      <point x="65" y="65"/>
      <point x="118" y="27"/>
      <point x="250" y="27" type="curve" smooth="yes"/>
      <point x="382" y="27"/>
      <point x="434" y="64"/>
      <point x="434" y="167" type="curve" smooth="yes"/>
      <point x="434" y="406" type="line" smooth="yes"/>
      <point x="434" y="466"/>
      <point x="410" y="523"/>
    </contour>
  </outline>
</glyph>
<glyph name="dvC_CHA" format="1">
  <advance width="769"/>
  <outline>
    <contour>
      <point x="552" y="-27" type="move" name="blwm.u"/>
    </contour>
    <contour>
      <point x="546" y="27" type="move" name="blwm.virama"/>
    </contour>
    <contour>
      <point x="631" y="644" type="move" name="abvm.e"/>
    </contour>
    <contour>
      <point x="631" y="644" type="move" name="abvm.bindu"/>
    </contour>
    <contour>
      <point x="338" y="644" type="line"/>
      <point x="-20" y="644" type="line"/>
      <point x="-20" y="604" type="line"/>
      <point x="338" y="604" type="line"/>
    </contour>
    <contour>
      <point x="360" y="127" type="line"/>
      <point x="327" y="116"/>
      <point x="283" y="106"/>
      <point x="237" y="106" type="curve" smooth="yes"/>
      <point x="164" y="106"/>
      <point x="140" y="135"/>
      <point x="140" y="187" type="curve" smooth="yes"/>
      <point x="140" y="344" type="line" smooth="yes"/>
      <point x="140" y="406"/>
      <point x="150" y="439"/>
      <point x="150" y="439" type="curve"/>
      <point x="271" y="439" type="line"/>
      <point x="271" y="479" type="line"/>
      <point x="12" y="479" type="line"/>
      <point x="12" y="439" type="line"/>
      <point x="105" y="439" type="line"/>
      <point x="105" y="439"/>
      <point x="95" y="407"/>
      <point x="95" y="344" type="curve" smooth="yes"/>
      <point x="95" y="187" type="line" smooth="yes"/>
      <point x="95" y="111"/>
      <point x="138" y="64"/>
      <point x="237" y="64" type="curve" smooth="yes"/>
      <point x="282" y="64"/>
      <point x="335" y="76"/>
      <point x="360" y="85" type="curve"/>
    </contour>
    <component base="dvCHA" xOffset="275"/>
  </outline>
</glyph>
